<svg id="Layer_1" data-name="Layer 1" xmlns="http://www.w3.org/2000/svg" viewBox="0 0 127 110"><defs><style>.cls-2{fill:#fff}.cls-10,.cls-17,.cls-4,.cls-8,.cls-9{fill:none;stroke-miterlimit:10}.cls-17,.cls-4,.cls-5,.cls-8{stroke:#857bbf}.cls-10,.cls-17,.cls-4,.cls-5,.cls-8,.cls-9{stroke-linecap:round}.cls-5{fill:#c9dcf3;strokeLinejoin:round}.cls-15,.cls-6{fill:#857bbf}.cls-10,.cls-8{stroke-width:.8px}.cls-10,.cls-9{stroke:#f1eef9}.cls-11{fill:#d2cfec}.cls-15{fill-rule:evenodd}.cls-17{stroke-width:2px}</style></defs><circle cx="64.72" cy="61.09" r="46.84" fill="#a5a0da" opacity=".5"/><path class="cls-2" d="M96.18 44.25v51.17a53.61 53.61 0 01-4.52 3.83 45.29 45.29 0 01-4.89 3.22l-.46.26c-.92.51-1.85 1-2.8 1.41l-.23.1a41.21 41.21 0 01-11.47 3.27 47.33 47.33 0 01-6.28.41h-.33a44 44 0 01-6-.48A51.09 51.09 0 0146.77 104l-.24-.1c-1.13-.48-2.25-1-3.33-1.55-.85-.42-1.68-.87-2.49-1.34-.22-.12-.44-.26-.66-.39-.61-.36-1.2-.73-1.78-1.11A45.94 45.94 0 0134 96.3v-52a1.64 1.64 0 01.69-1.34 1.67 1.67 0 011-.31h58.84a1.67 1.67 0 011 .31 1.64 1.64 0 01.65 1.29z"/><path fill="#b4b8e7" d="M33.96 42.91h62.23v11.6H33.96z"/><path class="cls-4" d="M34 96.3v-52a1.64 1.64 0 01.69-1.34 1.67 1.67 0 011-.31h58.84a1.67 1.67 0 011 .31 1.64 1.64 0 01.69 1.34v51.49M34.62 54.06h59.19"/><circle class="cls-5" cx="39.91" cy="48.75" r="1.04"/><circle class="cls-5" cx="43.93" cy="48.75" r="1.04"/><circle class="cls-5" cx="47.94" cy="48.75" r="1.04"/><circle class="cls-6" cx="90.44" cy="10.49" r="1.04"/><circle class="cls-6" cx="16.15" cy="28.28" r="1.04"/><circle class="cls-6" cx="65.07" cy="14.24" r="1.68"/><circle class="cls-6" cx="17.84" cy="61.09" r="1.68"/><circle class="cls-6" cx="111.52" cy="61.09" r="1.68"/><g opacity=".7"><path class="cls-4" d="M5.71 39.08h5.46M8.44 41.81v-5.46M118.66 78.46h5.46M121.39 81.19v-5.46"/><path class="cls-8" d="M46.18 2.07v1.41M46.18 7.06v1.4M49.43 5.33h-1.4M44.42 5.33h-1.41M48.52 2.98l-.99 1M48.52 7.55l-.99-.99M43.82 2.98l.99 1M43.82 7.55l.99-.99"/><circle class="cls-4" cx="99.63" cy="9.62" r="2.1"/></g><path class="cls-9" d="M98.97 18.35h5.46M101.7 21.08v-5.46"/><path class="cls-10" d="M122.87 64.87V66M122.87 68.89v1.13M125.5 67.5h-1.13M121.45 67.5h-1.13M124.77 65.6l-.81.8M124.77 69.29l-.81-.8M120.97 65.6l.8.8M120.97 69.29l.8-.8"/><circle class="cls-9" cx="3.6" cy="30.38" r="2.1"/><path class="cls-11" d="M73 83.24l2.6-4.67a2.12 2.12 0 013.84 0L86.89 92l.06.11a38.92 38.92 0 01-4 2.51l-.39.2c-.74.41-1.49.79-2.26 1.14l-.2.04h-.08M50 96.07V96h-.23c-.77-.35-1.52-.73-2.26-1.14l-.39-.2a38.92 38.92 0 01-4-2.51l.06-.11 7.49-13.43a2.12 2.12 0 013.84 0l2.61 4.67"/><path class="cls-4" d="M49.65 97.59h-.08l-.22-.09c-1-.44-2-.93-3-1.44-.74-.38-1.48-.8-2.21-1.24l-.59-.35c-.55-.32-1.08-.65-1.6-1l8.42-15.07a2.35 2.35 0 014.24 0l2.82 5.05"/><path d="M80.58 97.92a35 35 0 01-9.73 2.77 39.84 39.84 0 01-5.32.35h-.59a36.86 36.86 0 01-5.06-.35 38.19 38.19 0 01-10.3-2.92v-.07l7.43-13.31 5.51-9.87a2.73 2.73 0 015 0l5.58 10 7.45 13.35z" fill="#cdc1e9"/><path class="cls-2" d="M71.33 82.26l-1.51 2.66-2.7-2.92-2 3.55-2-3.55-2.72 2.88-1.6-2.71 3.84-7.28a2.6 2.6 0 014.82 0z"/><path class="cls-4" d="M81.48 99.51a37.15 37.15 0 01-10.3 2.93 42.82 42.82 0 01-5.63.37h-.62a39.66 39.66 0 01-5.36-.37 40.6 40.6 0 01-10.9-3.09v-.08l7.86-14.08 5.84-10.45a2.89 2.89 0 015.24 0l5.9 10.59 7.89 14.12z"/><path class="cls-4" d="M71.46 81.82l-1.71 2.85-2.68-2.68-2 3.31-1.99-3.31-2.69 2.68-1.71-2.85M72.66 83.53l2.89-5.18a2.35 2.35 0 014.25 0l8.3 14.88.07.13a43.46 43.46 0 01-4.45 2.77l-.42.22c-.83.46-1.66.88-2.51 1.27l-.21.09a.32.32 0 01-.09 0"/><path d="M65.08 60.81h12.79a.35.35 0 01.34.35v7.33a.34.34 0 01-.34.35H65.08" fill-rule="evenodd" fill="#d2cfec"/><path stroke-width=".9" stroke-linecap="round" stroke="#857bbf" fill="none" stroke-miterlimit="10" d="M65.08 58.97v13.74"/><path id="Fill-14" class="cls-15" d="M64.11 58.45a1 1 0 111.93 0 1 1 0 01-1.93 0"/><path d="M65.08 60.81h12.79a.35.35 0 01.34.35v7.33a.34.34 0 01-.34.35H65.08" stroke-width=".9" fill-rule="evenodd" stroke-linecap="round" stroke="#857bbf" fill="none" stroke-miterlimit="10"/><path class="cls-17" d="M18.47 53.77a46.87 46.87 0 0138.59-38.9M72.27 14.85a46.86 46.86 0 0138.81 39.38M111 68.71a46.84 46.84 0 01-92.6-1.06"/><path class="cls-15" d="M71.76 62.68l.58 1.17a.19.19 0 00.15.11l1.29.19a.14.14 0 01.08.23l-.94.9a.22.22 0 00-.06.19l.22 1.28a.13.13 0 01-.19.14l-1.15-.61a.21.21 0 00-.19 0l-1.15.61a.13.13 0 01-.19-.14l.22-1.28a.22.22 0 00-.06-.19l-.93-.9a.13.13 0 01.07-.23L70.8 64a.19.19 0 00.15-.11l.58-1.17a.13.13 0 01.23-.04z"/></svg>