<svg xmlns="http://www.w3.org/2000/svg" width="375" viewBox="0 0 375 375" height="375" version="1.0"><defs><clipPath id="a"><path d="M 87 65.125 L 121 65.125 L 121 107 L 87 107 Z M 87 65.125"/></clipPath><clipPath id="b"><path d="M 54.484375 147 L 82 147 L 82 184 L 54.484375 184 Z M 54.484375 147"/></clipPath><clipPath id="c"><path d="M 76 77 L 198 77 L 198 309.625 L 76 309.625 Z M 76 77"/></clipPath><clipPath id="d"><path d="M 254 65.125 L 288 65.125 L 288 107 L 254 107 Z M 254 65.125"/></clipPath><clipPath id="e"><path d="M 293 147 L 320.734375 147 L 320.734375 184 L 293 184 Z M 293 147"/></clipPath><clipPath id="f"><path d="M 177 77 L 299 77 L 299 309.625 L 177 309.625 Z M 177 77"/></clipPath></defs><g clip-path="url(#a)"><path fill="#FFDB23" d="M 106.71875 94.355469 C 99.996094 105 95.484375 107.542969 91.332031 105.738281 C 87.460938 104.019531 85.632812 98.058594 93.316406 85.863281 C 101.074219 73.308594 120.578125 65.257812 120.511719 65.574219 C 120.121094 65.710938 113 83.878906 106.71875 94.355469 Z M 106.71875 94.355469"/></g><path fill="#FFDB23" d="M 97.175781 137.8125 C 89.691406 143.613281 80.371094 141.355469 80.339844 141.230469 C 80.011719 141.324219 83.097656 123.390625 92.1875 118.167969 C 100.90625 112.945312 113.242188 118.027344 113.210938 117.933594 C 112.914062 117.839844 104.320312 131.882812 97.175781 137.8125 Z M 97.175781 137.8125"/><path fill="#FFDB23" d="M 66.535156 131.703125 C 71.152344 141.652344 81.238281 141.238281 81.152344 141.355469 C 80.910156 141.230469 84.386719 124.507812 81.742188 114.453125 C 78.773438 104.335938 67.507812 97.953125 67.410156 98.015625 C 66.902344 97.929688 61.324219 121.710938 66.535156 131.703125 Z M 66.535156 131.703125"/><path fill="#FFDB23" d="M 96.023438 174.589844 C 90.75 182.3125 81.203125 183.09375 81.140625 182.988281 C 80.878906 183.144531 78.160156 165.496094 85 157.972656 C 91.511719 150.523438 104.796875 151.453125 104.742188 151.367188 C 104.457031 151.324219 100.96875 166.8125 96.023438 174.589844 Z M 96.023438 174.589844"/><g clip-path="url(#b)"><path fill="#FFDB23" d="M 65.074219 178.355469 C 72.578125 186.195312 81.988281 182.710938 81.953125 182.839844 C 81.703125 182.777344 79.746094 166.117188 73.933594 157.730469 C 67.8125 149.363281 55.054688 146.980469 54.992188 147.054688 C 54.527344 147.085938 57.054688 170.601562 65.074219 178.355469 Z M 65.074219 178.355469"/></g><path fill="#FFDB23" d="M 106.210938 209.59375 C 103.550781 218.574219 94.734375 222.296875 94.640625 222.203125 C 94.4375 222.421875 86.53125 206.460938 90.71875 197.25 C 94.617188 188.210938 107.480469 184.96875 107.417969 184.90625 C 107.152344 184.949219 108.570312 200.636719 106.210938 209.59375 Z M 106.210938 209.59375"/><path fill="#FFDB23" d="M 78.003906 222.773438 C 87.492188 227.910156 95.355469 221.683594 95.355469 221.8125 C 95.09375 221.820312 88.210938 206.554688 80.136719 200.46875 C 71.777344 194.476562 58.933594 196.207031 58.902344 196.289062 C 58.5 196.4375 68.078125 217.84375 78.003906 222.773438 Z M 78.003906 222.773438"/><path fill="#FFDB23" d="M 126.582031 239.925781 C 126.855469 249.359375 119.625 255.644531 119.507812 255.582031 C 119.371094 255.855469 106.878906 242.984375 108.0625 232.878906 C 109.003906 223.015625 120.238281 215.945312 120.152344 215.914062 C 119.898438 216.019531 126.007812 230.609375 126.582031 239.925781 Z M 126.582031 239.925781"/><path fill="#FFDB23" d="M 103.84375 261.257812 C 114.476562 263.261719 120.039062 254.867188 120.078125 254.992188 C 119.816406 255.085938 108.507812 242.5625 99.015625 239.230469 C 89.25 236.074219 77.601562 241.710938 77.601562 241.792969 C 77.242188 242.046875 92.832031 259.59375 103.84375 261.257812 Z M 103.84375 261.257812"/><path fill="#FFDB23" d="M 155.921875 262.660156 C 159.386719 271.578125 154.527344 279.816406 154.378906 279.804688 C 154.292969 280.132812 137.816406 271.734375 135.734375 261.679688 C 133.449219 251.941406 141.949219 241.699219 141.84375 241.6875 C 141.621094 241.878906 152.179688 253.957031 155.921875 262.660156 Z M 155.921875 262.660156"/><path fill="#FFDB23" d="M 141.082031 290.113281 C 152.09375 288.699219 154.664062 278.953125 154.738281 279.066406 C 154.472656 279.257812 139.253906 270.828125 129.117188 270.5625 C 118.738281 270.5625 109.425781 279.542969 109.445312 279.636719 C 109.152344 279.984375 129.75 291.96875 141.082031 290.113281 Z M 141.082031 290.113281"/><g clip-path="url(#c)"><path fill="#FFDB23" d="M 109.648438 77.117188 C 102.34375 86.96875 96.289062 97.625 91.878906 108.902344 C 87.453125 120.160156 84.554688 131.957031 83.285156 143.898438 C 82.652344 149.871094 82.441406 155.871094 82.601562 161.867188 C 82.78125 167.847656 83.328125 173.820312 84.300781 179.726562 C 85.273438 185.625 86.59375 191.46875 88.339844 197.175781 C 90.0625 202.894531 92.164062 208.496094 94.648438 213.929688 C 104.5625 235.664062 120.3125 254.78125 140.109375 268.410156 C 141.347656 269.265625 142.605469 270.089844 143.863281 270.902344 C 144.484375 271.292969 145.140625 271.726562 145.753906 272.074219 L 146.683594 272.621094 C 147 272.800781 147.316406 272.960938 147.636719 273.128906 C 148.902344 273.8125 150.246094 274.40625 151.597656 274.972656 C 152.972656 275.511719 154.355469 276.050781 155.785156 276.515625 C 158.628906 277.484375 161.566406 278.320312 164.515625 279.257812 C 167.464844 280.207031 170.445312 281.21875 173.320312 282.527344 C 174.757812 283.171875 176.164062 283.890625 177.535156 284.648438 C 178.910156 285.417969 180.261719 286.230469 181.554688 287.128906 C 182.851562 288.023438 184.109375 288.972656 185.304688 289.996094 C 186.5 291.019531 187.628906 292.128906 188.675781 293.289062 C 189.734375 294.460938 190.683594 295.707031 191.574219 296.992188 C 192.449219 298.289062 193.234375 299.640625 193.941406 301.011719 C 195.335938 303.777344 196.488281 306.625 197.585938 309.484375 C 196.140625 306.78125 194.742188 304.050781 193.085938 301.496094 C 192.269531 300.222656 191.402344 298.976562 190.453125 297.816406 C 189.5 296.65625 188.488281 295.558594 187.386719 294.542969 C 183.011719 290.460938 177.683594 287.527344 172.09375 285.460938 C 166.511719 283.351562 160.550781 282.265625 154.515625 280.578125 C 153.003906 280.164062 151.492188 279.679688 149.992188 279.164062 C 148.492188 278.613281 146.992188 278.035156 145.53125 277.328125 C 145.160156 277.148438 144.792969 276.988281 144.433594 276.800781 L 143.355469 276.230469 C 142.613281 275.851562 141.96875 275.460938 141.28125 275.070312 C 139.929688 274.289062 138.597656 273.464844 137.277344 272.632812 C 131.992188 269.289062 126.949219 265.554688 122.226562 261.4375 C 121.03125 260.425781 119.878906 259.359375 118.714844 258.304688 C 117.574219 257.230469 116.445312 256.152344 115.34375 255.035156 C 113.136719 252.808594 110.988281 250.53125 108.949219 248.144531 C 104.847656 243.40625 101.117188 238.34375 97.714844 233.078125 C 96.035156 230.429688 94.4375 227.730469 92.9375 224.976562 L 90.75 220.808594 L 88.71875 216.566406 C 86.140625 210.851562 83.941406 204.964844 82.175781 198.949219 C 80.433594 192.925781 79.082031 186.796875 78.203125 180.59375 C 77.324219 174.386719 76.859375 168.144531 76.871094 161.886719 C 76.859375 155.628906 77.324219 149.382812 78.214844 143.210938 C 80.03125 130.867188 83.636719 118.808594 88.941406 107.59375 C 94.300781 96.453125 101.234375 86.050781 109.648438 77.117188 Z M 109.648438 77.117188"/></g><g clip-path="url(#d)"><path fill="#FFDB23" d="M 268.605469 94.355469 C 275.328125 105 279.839844 107.542969 283.996094 105.738281 C 287.863281 104.019531 289.691406 98.058594 282.007812 85.863281 C 274.25 73.308594 254.746094 65.257812 254.8125 65.574219 C 255.203125 65.710938 262.328125 83.878906 268.605469 94.355469 Z M 268.605469 94.355469"/></g><path fill="#FFDB23" d="M 278.148438 137.8125 C 285.632812 143.613281 294.953125 141.355469 294.988281 141.230469 C 295.3125 141.324219 292.226562 123.390625 283.136719 118.167969 C 274.417969 112.945312 262.082031 118.027344 262.113281 117.933594 C 262.410156 117.839844 271.003906 131.882812 278.148438 137.8125 Z M 278.148438 137.8125"/><path fill="#FFDB23" d="M 308.789062 131.703125 C 304.171875 141.652344 294.089844 141.238281 294.171875 141.355469 C 294.417969 141.230469 290.9375 124.507812 293.582031 114.453125 C 296.550781 104.335938 307.820312 97.953125 307.914062 98.015625 C 308.421875 97.929688 314 121.710938 308.789062 131.703125 Z M 308.789062 131.703125"/><path fill="#FFDB23" d="M 279.300781 174.589844 C 284.574219 182.3125 294.121094 183.09375 294.183594 182.988281 C 294.449219 183.144531 297.164062 165.496094 290.324219 157.972656 C 283.816406 150.523438 270.527344 151.453125 270.582031 151.367188 C 270.867188 151.324219 274.355469 166.8125 279.300781 174.589844 Z M 279.300781 174.589844"/><g clip-path="url(#e)"><path fill="#FFDB23" d="M 310.25 178.355469 C 302.746094 186.195312 293.339844 182.710938 293.371094 182.839844 C 293.625 182.777344 295.578125 166.117188 301.390625 157.730469 C 307.511719 149.363281 320.269531 146.980469 320.332031 147.054688 C 320.796875 147.085938 318.273438 170.601562 310.25 178.355469 Z M 310.25 178.355469"/></g><path fill="#FFDB23" d="M 269.113281 209.59375 C 271.777344 218.574219 280.589844 222.296875 280.6875 222.203125 C 280.886719 222.421875 288.792969 206.460938 284.605469 197.25 C 280.707031 188.210938 267.84375 184.96875 267.90625 184.90625 C 268.171875 184.949219 266.753906 200.636719 269.113281 209.59375 Z M 269.113281 209.59375"/><path fill="#FFDB23" d="M 297.324219 222.773438 C 287.832031 227.910156 279.96875 221.683594 279.96875 221.8125 C 280.230469 221.820312 287.113281 206.554688 295.1875 200.46875 C 303.546875 194.476562 316.390625 196.207031 316.421875 196.289062 C 316.824219 196.4375 307.246094 217.84375 297.324219 222.773438 Z M 297.324219 222.773438"/><path fill="#FFDB23" d="M 248.746094 239.925781 C 248.46875 249.359375 255.699219 255.644531 255.816406 255.582031 C 255.953125 255.855469 268.445312 242.984375 267.261719 232.878906 C 266.320312 223.015625 255.085938 215.945312 255.171875 215.914062 C 255.425781 216.019531 249.316406 230.609375 248.746094 239.925781 Z M 248.746094 239.925781"/><path fill="#FFDB23" d="M 271.480469 261.257812 C 260.847656 263.261719 255.285156 254.867188 255.246094 254.992188 C 255.507812 255.085938 266.820312 242.5625 276.308594 239.230469 C 286.078125 236.074219 297.722656 241.710938 297.722656 241.792969 C 298.082031 242.046875 282.492188 259.59375 271.480469 261.257812 Z M 271.480469 261.257812"/><path fill="#FFDB23" d="M 219.402344 262.660156 C 215.9375 271.578125 220.796875 279.816406 220.945312 279.804688 C 221.03125 280.132812 237.507812 271.734375 239.589844 261.679688 C 241.875 251.941406 233.375 241.699219 233.480469 241.6875 C 233.703125 241.878906 223.144531 253.957031 219.402344 262.660156 Z M 219.402344 262.660156"/><path fill="#FFDB23" d="M 234.242188 290.113281 C 223.230469 288.699219 220.660156 278.953125 220.585938 279.066406 C 220.851562 279.257812 236.070312 270.828125 246.207031 270.5625 C 256.585938 270.5625 265.898438 279.542969 265.878906 279.636719 C 266.175781 279.984375 245.574219 291.96875 234.242188 290.113281 Z M 234.242188 290.113281"/><g clip-path="url(#f)"><path fill="#FFDB23" d="M 265.675781 77.117188 C 272.980469 86.96875 279.039062 97.625 283.445312 108.902344 C 287.875 120.160156 290.769531 131.957031 292.039062 143.898438 C 292.671875 149.871094 292.882812 155.871094 292.726562 161.867188 C 292.546875 167.847656 291.996094 173.820312 291.023438 179.726562 C 290.050781 185.625 288.730469 191.46875 286.984375 197.175781 C 285.261719 202.894531 283.160156 208.496094 280.675781 213.929688 C 270.761719 235.664062 255.011719 254.78125 235.214844 268.410156 C 233.980469 269.265625 232.722656 270.089844 231.464844 270.902344 C 230.839844 271.292969 230.183594 271.726562 229.570312 272.074219 L 228.640625 272.621094 C 228.324219 272.800781 228.007812 272.960938 227.691406 273.128906 C 226.421875 273.8125 225.078125 274.40625 223.726562 274.972656 C 222.351562 275.511719 220.96875 276.050781 219.539062 276.515625 C 216.695312 277.484375 213.757812 278.320312 210.808594 279.257812 C 207.859375 280.207031 204.878906 281.21875 202.003906 282.527344 C 200.566406 283.171875 199.164062 283.890625 197.789062 284.648438 C 196.414062 285.417969 195.0625 286.230469 193.773438 287.128906 C 192.472656 288.023438 191.214844 288.972656 190.019531 289.996094 C 188.824219 291.019531 187.695312 292.128906 186.648438 293.289062 C 185.589844 294.460938 184.640625 295.707031 183.75 296.992188 C 182.875 298.289062 182.09375 299.640625 181.382812 301.011719 C 179.988281 303.777344 178.835938 306.625 177.738281 309.484375 C 179.183594 306.78125 180.582031 304.050781 182.238281 301.496094 C 183.054688 300.222656 183.921875 298.976562 184.871094 297.816406 C 185.824219 296.65625 186.839844 295.558594 187.9375 294.542969 C 192.3125 290.460938 197.640625 287.527344 203.230469 285.460938 C 208.8125 283.351562 214.773438 282.265625 220.808594 280.578125 C 222.320312 280.164062 223.832031 279.679688 225.332031 279.164062 C 226.832031 278.613281 228.335938 278.035156 229.792969 277.328125 C 230.164062 277.148438 230.53125 276.988281 230.890625 276.800781 L 231.96875 276.230469 C 232.710938 275.851562 233.355469 275.460938 234.042969 275.070312 C 235.394531 274.289062 236.726562 273.464844 238.046875 272.632812 C 243.332031 269.289062 248.375 265.554688 253.097656 261.4375 C 254.292969 260.425781 255.445312 259.359375 256.609375 258.304688 C 257.75 257.230469 258.878906 256.152344 259.980469 255.035156 C 262.1875 252.808594 264.335938 250.53125 266.375 248.144531 C 270.476562 243.40625 274.207031 238.34375 277.609375 233.078125 C 279.289062 230.429688 280.886719 227.730469 282.386719 224.976562 L 284.574219 220.808594 L 286.605469 216.566406 C 289.183594 210.851562 291.382812 204.964844 293.148438 198.949219 C 294.890625 192.925781 296.246094 186.796875 297.121094 180.59375 C 298 174.386719 298.464844 168.144531 298.453125 161.886719 C 298.464844 155.628906 298 149.382812 297.109375 143.210938 C 295.292969 130.867188 291.6875 118.808594 286.382812 107.59375 C 281.023438 96.453125 274.089844 86.050781 265.675781 77.117188 Z M 265.675781 77.117188"/></g><g><g><g><path d="M 35.8125 -13.078125 C 41.394531 -13.078125 45.707031 -14.429688 48.75 -17.140625 C 51.800781 -19.847656 53.328125 -23.785156 53.328125 -28.953125 C 53.328125 -33.691406 51.613281 -37.097656 48.1875 -39.171875 C 44.757812 -41.242188 38.726562 -42.28125 30.09375 -42.28125 L 28.703125 -42.28125 C 27.003906 -42.28125 25.539062 -42.914062 24.3125 -44.1875 C 23.082031 -45.457031 22.46875 -46.941406 22.46875 -48.640625 C 22.46875 -52.867188 23.992188 -56.378906 27.046875 -59.171875 L 47.75 -77.96875 C 47.832031 -78.050781 47.875 -78.132812 47.875 -78.21875 C 47.875 -78.300781 47.832031 -78.34375 47.75 -78.34375 L 17.390625 -78.34375 C 15.441406 -78.34375 13.75 -79.039062 12.3125 -80.4375 C 10.875 -81.84375 10.15625 -83.515625 10.15625 -85.453125 C 10.15625 -87.398438 10.875 -89.09375 12.3125 -90.53125 C 13.75 -91.976562 15.441406 -92.703125 17.390625 -92.703125 L 62.46875 -92.703125 C 64.414062 -92.703125 66.085938 -91.976562 67.484375 -90.53125 C 68.890625 -89.09375 69.59375 -87.398438 69.59375 -85.453125 C 69.59375 -80.628906 67.8125 -76.65625 64.25 -73.53125 L 43.6875 -54.859375 C 43.601562 -54.773438 43.5625 -54.6875 43.5625 -54.59375 C 43.5625 -54.507812 43.601562 -54.46875 43.6875 -54.46875 L 45.71875 -54.46875 C 53.5 -54.46875 59.632812 -52.242188 64.125 -47.796875 C 68.613281 -43.359375 70.859375 -37.160156 70.859375 -29.203125 C 70.859375 -19.472656 67.894531 -11.960938 61.96875 -6.671875 C 56.039062 -1.378906 47.578125 1.265625 36.578125 1.265625 C 29.117188 1.265625 22.300781 0.0390625 16.125 -2.40625 C 14.175781 -3.175781 12.800781 -4.507812 12 -6.40625 C 11.195312 -8.3125 11.132812 -10.28125 11.8125 -12.3125 L 11.8125 -12.578125 C 12.40625 -14.347656 13.566406 -15.59375 15.296875 -16.3125 C 17.035156 -17.03125 18.796875 -17.050781 20.578125 -16.375 C 25.992188 -14.175781 31.070312 -13.078125 35.8125 -13.078125 Z M 35.8125 -13.078125" transform="translate(140.667 214.471)"/></g></g></g></svg>