<svg xmlns="http://www.w3.org/2000/svg" xmlns:xlink="http://www.w3.org/1999/xlink" width="108" zoomAndPan="magnify" viewBox="0 0 81 93.749996" height="125" preserveAspectRatio="xMidYMid meet" version="1.0"><defs><g><g id="id1"/></g><clipPath id="id2"><path d="M 0.109375 0 L 80.890625 0 L 80.890625 93.5 L 0.109375 93.5 Z M 0.109375 0 " clip-rule="nonzero"/></clipPath><clipPath id="id3"><path d="M 21.09375 33 L 22 33 L 22 34 L 21.09375 34 Z M 21.09375 33 " clip-rule="nonzero"/></clipPath><clipPath id="id4"><path d="M 21.09375 34 L 22 34 L 22 35 L 21.09375 35 Z M 21.09375 34 " clip-rule="nonzero"/></clipPath><clipPath id="id5"><path d="M 21.09375 33 L 22 33 L 22 34 L 21.09375 34 Z M 21.09375 33 " clip-rule="nonzero"/></clipPath><clipPath id="id6"><path d="M 21.09375 33 L 22 33 L 22 34 L 21.09375 34 Z M 21.09375 33 " clip-rule="nonzero"/></clipPath><clipPath id="id7"><path d="M 69 55 L 69.714844 55 L 69.714844 56 L 69 56 Z M 69 55 " clip-rule="nonzero"/></clipPath><clipPath id="id8"><path d="M 25 19.960938 L 66 19.960938 L 66 65 L 25 65 Z M 25 19.960938 " clip-rule="nonzero"/></clipPath><clipPath id="id9"><path d="M 34.183594 27.324219 L 42.132812 27.324219 L 42.132812 39.121094 L 34.183594 39.121094 Z M 34.183594 27.324219 " clip-rule="nonzero"/></clipPath><clipPath id="id10"><path d="M 37.226562 27.324219 L 42.132812 27.324219 L 42.132812 39.121094 L 37.226562 39.121094 Z M 37.226562 27.324219 " clip-rule="nonzero"/></clipPath><clipPath id="id11"><path d="M 38 31 L 44 31 L 44 39.121094 L 38 39.121094 Z M 38 31 " clip-rule="nonzero"/></clipPath><clipPath id="id12"><path d="M 38.691406 34.15625 L 47.167969 34.15625 L 47.167969 39.121094 L 38.691406 39.121094 Z M 38.691406 34.15625 " clip-rule="nonzero"/></clipPath><clipPath id="id13"><path d="M 44.074219 34.621094 L 47.425781 34.621094 L 47.425781 39.121094 L 44.074219 39.121094 Z M 44.074219 34.621094 " clip-rule="nonzero"/></clipPath><clipPath id="id14"><path d="M 52 35 L 56.617188 35 L 56.617188 39 L 52 39 Z M 52 35 " clip-rule="nonzero"/></clipPath></defs><g clip-path="url(#id2)"><path fill="rgb(100%, 100%, 100%)" d="M 0.109375 0 L 80.890625 0 L 80.890625 100.234375 L 0.109375 100.234375 Z M 0.109375 0 " fill-opacity="1" fill-rule="nonzero"/><path fill="rgb(100%, 100%, 100%)" d="M 0.109375 0 L 80.890625 0 L 80.890625 93.5 L 0.109375 93.5 Z M 0.109375 0 " fill-opacity="1" fill-rule="nonzero"/><path fill="rgb(0%, 29.019165%, 67.83905%)" d="M 0.109375 0 L 80.890625 0 L 80.890625 93.5 L 0.109375 93.5 Z M 0.109375 0 " fill-opacity="1" fill-rule="nonzero"/></g><g clip-path="url(#id3)"><path fill="rgb(92.158508%, 56.858826%, 12.548828%)" d="M 21.699219 33.347656 L 21.652344 33.371094 L 21.691406 33.457031 L 21.714844 33.40625 L 21.75 33.402344 L 21.859375 33.40625 L 21.789062 33.363281 L 21.699219 33.347656 " fill-opacity="1" fill-rule="nonzero"/></g><g clip-path="url(#id4)"><path fill="rgb(92.158508%, 56.858826%, 12.548828%)" d="M 21.617188 34.367188 L 21.578125 34.414062 L 21.601562 34.457031 L 21.636719 34.476562 L 21.671875 34.472656 L 21.703125 34.4375 L 21.707031 34.382812 L 21.667969 34.359375 L 21.617188 34.367188 " fill-opacity="1" fill-rule="nonzero"/></g><g clip-path="url(#id5)"><path fill="rgb(92.158508%, 56.858826%, 12.548828%)" d="M 21.238281 33.246094 L 21.324219 33.269531 L 21.339844 33.226562 L 21.304688 33.195312 L 21.238281 33.246094 " fill-opacity="1" fill-rule="nonzero"/></g><path fill="rgb(92.158508%, 56.858826%, 12.548828%)" d="M 22.117188 34.25 L 22.027344 34.171875 L 22.003906 34.324219 L 22.050781 34.386719 L 22.113281 34.417969 L 22.171875 34.410156 L 22.191406 34.347656 L 22.167969 34.300781 L 22.117188 34.25 " fill-opacity="1" fill-rule="nonzero"/><path fill="rgb(92.158508%, 56.858826%, 12.548828%)" d="M 22.511719 33.613281 L 22.511719 33.644531 L 22.496094 33.699219 L 22.488281 33.730469 L 22.570312 33.757812 L 22.625 33.710938 L 22.621094 33.644531 L 22.511719 33.613281 " fill-opacity="1" fill-rule="nonzero"/><path fill="rgb(92.158508%, 56.858826%, 12.548828%)" d="M 22.332031 34.175781 L 22.316406 34.261719 L 22.386719 34.28125 L 22.371094 34.21875 L 22.332031 34.175781 " fill-opacity="1" fill-rule="nonzero"/><path fill="rgb(92.158508%, 56.858826%, 12.548828%)" d="M 22.511719 33.382812 L 22.519531 33.351562 L 22.523438 33.3125 L 22.523438 33.277344 L 22.519531 33.238281 L 22.503906 33.242188 L 22.492188 33.246094 L 22.46875 33.261719 L 22.472656 33.292969 L 22.480469 33.324219 L 22.492188 33.355469 L 22.511719 33.382812 " fill-opacity="1" fill-rule="nonzero"/><g clip-path="url(#id6)"><path fill="rgb(92.158508%, 56.858826%, 12.548828%)" d="M 21.285156 33.046875 L 21.230469 33.035156 L 21.152344 33.0625 L 21.09375 33.101562 L 21.117188 33.164062 L 21.175781 33.1875 L 21.238281 33.164062 L 21.285156 33.113281 L 21.285156 33.046875 " fill-opacity="1" fill-rule="nonzero"/></g><path fill="rgb(92.158508%, 56.858826%, 12.548828%)" d="M 26.285156 31.488281 L 26.292969 31.503906 L 26.304688 31.519531 L 26.328125 31.484375 L 26.34375 31.445312 L 26.359375 31.359375 L 26.332031 31.375 L 26.3125 31.398438 L 26.292969 31.425781 L 26.28125 31.457031 L 26.28125 31.472656 L 26.285156 31.488281 " fill-opacity="1" fill-rule="nonzero"/><path fill="rgb(92.158508%, 56.858826%, 12.548828%)" d="M 59.285156 33.914062 L 59.328125 33.925781 L 59.347656 33.9375 L 59.363281 33.957031 L 59.332031 33.957031 L 59.316406 33.953125 L 59.289062 33.945312 L 59.351562 33.988281 L 59.464844 34.023438 L 59.535156 34.019531 L 59.480469 33.945312 L 59.464844 33.945312 L 59.460938 33.957031 L 59.453125 33.972656 L 59.445312 33.972656 L 59.4375 33.964844 L 59.414062 33.9375 L 59.402344 33.929688 L 59.378906 33.898438 L 59.371094 33.867188 L 59.347656 33.839844 L 59.296875 33.828125 L 59.308594 33.855469 L 59.308594 33.871094 L 59.285156 33.914062 " fill-opacity="1" fill-rule="nonzero"/><path fill="rgb(92.158508%, 56.858826%, 12.548828%)" d="M 59.351562 33.753906 L 59.367188 33.761719 L 59.386719 33.765625 L 59.371094 33.726562 L 59.363281 33.710938 L 59.351562 33.695312 L 59.320312 33.734375 L 59.335938 33.746094 L 59.351562 33.753906 " fill-opacity="1" fill-rule="nonzero"/><path fill="rgb(92.158508%, 56.858826%, 12.548828%)" d="M 59.152344 48.058594 L 59.207031 48.011719 L 59.246094 47.933594 L 59.265625 47.863281 L 59.230469 47.914062 L 59.089844 48.035156 L 59.152344 48.058594 " fill-opacity="1" fill-rule="nonzero"/><path fill="rgb(92.158508%, 56.858826%, 12.548828%)" d="M 58.917969 46.71875 L 58.902344 46.773438 L 58.867188 46.855469 L 58.855469 46.910156 L 58.855469 46.960938 L 58.863281 46.992188 L 58.945312 47.089844 L 58.988281 47.125 L 59.03125 47.140625 L 59.070312 47.113281 L 58.960938 46.804688 L 58.917969 46.71875 " fill-opacity="1" fill-rule="nonzero"/><path fill="rgb(92.158508%, 56.858826%, 12.548828%)" d="M 59.125 46.511719 L 59.164062 46.550781 L 59.214844 46.511719 L 59.234375 46.429688 L 59.246094 46.265625 L 59.226562 46.25 L 59.203125 46.246094 L 59.167969 46.242188 L 59.128906 46.246094 L 59.132812 46.320312 L 59.125 46.421875 L 59.125 46.511719 " fill-opacity="1" fill-rule="nonzero"/><path fill="rgb(92.158508%, 56.858826%, 12.548828%)" d="M 61.277344 50.390625 L 61.324219 50.410156 L 61.355469 50.402344 L 61.355469 50.367188 L 61.300781 50.199219 L 61.296875 50.160156 L 61.296875 50.121094 L 61.28125 50.09375 L 61.242188 50.105469 L 61.21875 50.144531 L 61.210938 50.207031 L 61.210938 50.324219 L 61.238281 50.355469 L 61.277344 50.390625 " fill-opacity="1" fill-rule="nonzero"/><path fill="rgb(92.158508%, 56.858826%, 12.548828%)" d="M 61.957031 50.6875 L 61.972656 50.648438 L 61.972656 50.628906 L 61.96875 50.605469 L 61.945312 50.535156 L 61.910156 50.539062 L 61.859375 50.566406 L 61.789062 50.574219 L 61.835938 50.597656 L 61.878906 50.625 L 61.957031 50.6875 " fill-opacity="1" fill-rule="nonzero"/><path fill="rgb(92.158508%, 56.858826%, 12.548828%)" d="M 61.53125 50.695312 L 61.578125 50.695312 L 61.550781 50.667969 L 61.519531 50.644531 L 61.484375 50.628906 L 61.445312 50.621094 L 61.460938 50.664062 L 61.492188 50.6875 L 61.53125 50.695312 " fill-opacity="1" fill-rule="nonzero"/><path fill="rgb(92.158508%, 56.858826%, 12.548828%)" d="M 59.882812 44.613281 L 59.96875 44.582031 L 59.96875 44.550781 L 59.925781 44.550781 L 59.882812 44.613281 " fill-opacity="1" fill-rule="nonzero"/><g clip-path="url(#id7)"><path fill="rgb(92.158508%, 56.858826%, 12.548828%)" d="M 69.703125 55.464844 L 69.617188 55.394531 L 69.550781 55.457031 L 69.453125 55.660156 L 69.539062 55.722656 L 69.644531 55.6875 L 69.714844 55.585938 L 69.703125 55.464844 " fill-opacity="1" fill-rule="nonzero"/></g><path fill="rgb(92.158508%, 56.858826%, 12.548828%)" d="M 65.105469 53.441406 L 65.082031 53.511719 L 65.070312 53.578125 L 65.132812 53.460938 L 65.1875 53.335938 L 65.140625 53.382812 L 65.105469 53.441406 " fill-opacity="1" fill-rule="nonzero"/><path fill="rgb(92.158508%, 56.858826%, 12.548828%)" d="M 64.191406 51.222656 L 64.171875 51.207031 L 64.144531 51.210938 L 64.113281 51.234375 L 64.117188 51.277344 L 64.132812 51.304688 L 64.160156 51.320312 L 64.203125 51.320312 L 64.203125 51.304688 L 64.207031 51.265625 L 64.191406 51.222656 " fill-opacity="1" fill-rule="nonzero"/><path fill="rgb(92.158508%, 56.858826%, 12.548828%)" d="M 65.308594 52.109375 L 65.292969 52.011719 L 65.273438 51.710938 L 65.25 51.59375 L 65.121094 51.144531 L 65.074219 51.050781 L 64.960938 50.859375 L 64.875 50.6875 L 64.824219 50.601562 L 64.769531 50.546875 L 64.699219 50.546875 L 64.636719 50.601562 L 64.527344 50.75 L 64.496094 50.769531 L 64.484375 50.761719 L 64.484375 50.765625 L 64.523438 50.945312 L 64.53125 50.996094 L 64.53125 51.054688 L 64.488281 51.179688 L 64.425781 51.265625 L 64.238281 51.402344 L 64.171875 51.472656 L 64.144531 51.484375 L 64.097656 51.492188 L 64.0625 51.484375 L 64.042969 51.460938 L 64.019531 51.449219 L 63.980469 51.464844 L 63.941406 51.519531 L 63.945312 51.585938 L 63.964844 51.652344 L 63.976562 51.707031 L 63.941406 51.816406 L 63.894531 51.910156 L 63.886719 52.003906 L 63.980469 52.09375 L 63.871094 52.074219 L 63.820312 52.136719 L 63.785156 52.222656 L 63.722656 52.289062 L 63.675781 52.292969 L 63.683594 52.238281 L 63.703125 52.167969 L 63.6875 52.121094 L 63.644531 52.148438 L 63.574219 52.234375 L 63.507812 52.328125 L 63.472656 52.386719 L 63.472656 52.441406 L 63.488281 52.496094 L 63.488281 52.542969 L 63.433594 52.570312 L 63.359375 52.449219 L 63.183594 52.53125 L 63.046875 52.703125 L 63.089844 52.84375 L 63.039062 52.855469 L 63.011719 52.832031 L 62.988281 52.792969 L 62.949219 52.761719 L 62.898438 52.753906 L 62.820312 52.761719 L 62.738281 52.773438 L 62.683594 52.792969 L 62.652344 52.816406 L 62.613281 52.875 L 62.589844 52.902344 L 62.542969 52.914062 L 62.488281 52.90625 L 62.410156 52.890625 L 62.363281 52.90625 L 62.234375 52.992188 L 62.164062 53.011719 L 62.011719 53.015625 L 61.953125 53.039062 L 61.921875 53.074219 L 61.910156 53.109375 L 61.902344 53.289062 L 61.890625 53.351562 L 61.863281 53.410156 L 61.675781 53.707031 L 61.644531 53.785156 L 61.636719 53.859375 L 61.691406 54.246094 L 61.773438 54.53125 L 61.828125 54.8125 L 61.90625 55.003906 L 61.917969 55.0625 L 61.917969 55.117188 L 61.914062 55.1875 L 61.894531 55.34375 L 61.855469 55.484375 L 61.796875 55.617188 L 61.679688 55.832031 L 61.578125 56.0625 L 61.53125 56.128906 L 61.417969 56.207031 L 61.367188 56.261719 L 61.34375 56.3125 L 61.253906 56.601562 L 61.238281 56.675781 L 61.226562 56.832031 L 61.234375 56.929688 L 61.25 57.035156 L 61.273438 57.132812 L 61.308594 57.222656 L 61.414062 57.386719 L 61.460938 57.472656 L 61.484375 57.566406 L 61.488281 57.660156 L 61.464844 57.851562 L 61.464844 57.949219 L 61.46875 58.050781 L 61.484375 58.125 L 61.515625 58.191406 L 61.566406 58.277344 L 61.597656 58.347656 L 61.640625 58.5 L 61.675781 58.566406 L 61.722656 58.621094 L 61.789062 58.675781 L 61.855469 58.726562 L 61.917969 58.761719 L 62.164062 58.84375 L 62.339844 58.941406 L 62.429688 58.960938 L 62.527344 58.953125 L 62.625 58.914062 L 62.859375 58.773438 L 62.945312 58.734375 L 63.058594 58.710938 L 63.167969 58.695312 L 63.277344 58.675781 L 63.382812 58.621094 L 63.5 58.484375 L 63.574219 58.316406 L 64.851562 54.171875 L 64.875 53.960938 L 64.855469 53.757812 L 64.859375 53.664062 L 64.894531 53.5625 L 64.917969 53.53125 L 64.96875 53.472656 L 64.988281 53.445312 L 65.003906 53.417969 L 65.011719 53.378906 L 65.054688 53.269531 L 65.070312 53.1875 L 65.066406 53.101562 L 65.046875 53.003906 L 64.988281 52.839844 L 64.964844 52.746094 L 64.96875 52.664062 L 65.003906 52.585938 L 65.046875 52.570312 L 65.09375 52.601562 L 65.136719 52.660156 L 65.210938 52.820312 L 65.257812 52.863281 L 65.335938 52.835938 L 65.441406 52.667969 L 65.433594 52.476562 L 65.308594 52.109375 " fill-opacity="1" fill-rule="nonzero"/><path fill="rgb(92.158508%, 56.858826%, 12.548828%)" d="M 68.414062 55.945312 L 68.296875 55.953125 L 68.234375 56.058594 L 68.3125 56.167969 L 68.441406 56.242188 L 68.550781 56.238281 L 68.585938 56.121094 L 68.527344 56.011719 L 68.414062 55.945312 " fill-opacity="1" fill-rule="nonzero"/><path fill="rgb(92.158508%, 56.858826%, 12.548828%)" d="M 28.488281 38.804688 L 28.410156 38.816406 L 28.34375 38.847656 L 28.472656 38.882812 L 28.53125 38.90625 L 28.582031 38.945312 L 28.597656 38.910156 L 28.605469 38.890625 L 28.605469 38.871094 L 28.558594 38.820312 L 28.488281 38.804688 " fill-opacity="1" fill-rule="nonzero"/><path fill="rgb(92.158508%, 56.858826%, 12.548828%)" d="M 25.367188 26.246094 L 25.296875 26.257812 L 25.316406 26.28125 L 25.339844 26.300781 L 25.367188 26.320312 L 25.398438 26.332031 L 25.457031 26.242188 L 25.433594 26.226562 L 25.367188 26.246094 " fill-opacity="1" fill-rule="nonzero"/><path fill="rgb(92.158508%, 56.858826%, 12.548828%)" d="M 25.519531 25.554688 L 25.492188 25.535156 L 25.460938 25.53125 L 25.429688 25.539062 L 25.398438 25.578125 L 25.402344 25.625 L 25.457031 25.71875 L 25.472656 25.769531 L 25.507812 25.738281 L 25.539062 25.683594 L 25.550781 25.625 L 25.539062 25.578125 L 25.519531 25.554688 " fill-opacity="1" fill-rule="nonzero"/><path fill="rgb(92.158508%, 56.858826%, 12.548828%)" d="M 25.859375 26.082031 L 25.90625 26.058594 L 25.90625 26.019531 L 25.871094 25.980469 L 25.824219 25.960938 L 25.796875 26 L 25.796875 26.039062 L 25.816406 26.074219 L 25.859375 26.082031 " fill-opacity="1" fill-rule="nonzero"/><path fill="rgb(92.158508%, 56.858826%, 12.548828%)" d="M 27.753906 25.910156 L 27.84375 25.742188 L 27.796875 25.601562 L 27.699219 25.664062 L 27.570312 25.953125 L 27.441406 26.027344 L 27.59375 26.03125 L 27.753906 25.910156 " fill-opacity="1" fill-rule="nonzero"/><path fill="rgb(92.158508%, 56.858826%, 12.548828%)" d="M 27.878906 25.519531 L 27.925781 25.5 L 27.964844 25.472656 L 28.003906 25.4375 L 28.03125 25.40625 L 28.050781 25.367188 L 28.066406 25.3125 L 28.011719 25.316406 L 27.921875 25.359375 L 27.84375 25.421875 L 27.816406 25.5 L 27.839844 25.523438 L 27.878906 25.519531 " fill-opacity="1" fill-rule="nonzero"/><path fill="rgb(92.158508%, 56.858826%, 12.548828%)" d="M 26.808594 26.257812 L 26.894531 26.210938 L 26.921875 26.101562 L 26.882812 26.003906 L 26.796875 25.992188 L 26.710938 26.042969 L 26.671875 26.136719 L 26.714844 26.234375 L 26.808594 26.257812 " fill-opacity="1" fill-rule="nonzero"/><path fill="rgb(92.158508%, 56.858826%, 12.548828%)" d="M 26.03125 25.867188 L 26.121094 26.03125 L 26.183594 26.078125 L 26.269531 26.054688 L 26.300781 26.023438 L 26.316406 25.980469 L 26.328125 25.9375 L 26.347656 25.894531 L 26.375 25.851562 L 26.40625 25.8125 L 26.488281 25.742188 L 26.441406 25.707031 L 26.382812 25.730469 L 26.261719 25.816406 L 26.203125 25.835938 L 26.085938 25.851562 L 26.03125 25.867188 " fill-opacity="1" fill-rule="nonzero"/><path fill="rgb(92.158508%, 56.858826%, 12.548828%)" d="M 26.566406 36.265625 L 26.542969 36.261719 L 26.492188 36.261719 L 26.46875 36.269531 L 26.476562 36.296875 L 26.492188 36.316406 L 26.511719 36.328125 L 26.535156 36.339844 L 26.546875 36.320312 L 26.566406 36.265625 " fill-opacity="1" fill-rule="nonzero"/><path fill="rgb(92.158508%, 56.858826%, 12.548828%)" d="M 26.816406 36.4375 L 26.796875 36.453125 L 26.78125 36.476562 L 26.8125 36.476562 L 26.835938 36.46875 L 26.851562 36.445312 L 26.863281 36.414062 L 26.835938 36.425781 L 26.816406 36.4375 " fill-opacity="1" fill-rule="nonzero"/><path fill="rgb(92.158508%, 56.858826%, 12.548828%)" d="M 26.460938 36.699219 L 26.421875 36.726562 L 26.4375 36.757812 L 26.460938 36.765625 L 26.484375 36.761719 L 26.515625 36.746094 L 26.519531 36.699219 L 26.496094 36.6875 L 26.460938 36.699219 " fill-opacity="1" fill-rule="nonzero"/><path fill="rgb(92.158508%, 56.858826%, 12.548828%)" d="M 26.59375 36.679688 L 26.585938 36.722656 L 26.582031 36.742188 L 26.582031 36.761719 L 26.605469 36.75 L 26.617188 36.734375 L 26.613281 36.710938 L 26.59375 36.679688 " fill-opacity="1" fill-rule="nonzero"/><path fill="rgb(92.158508%, 56.858826%, 12.548828%)" d="M 26.722656 36.628906 L 26.6875 36.679688 L 26.695312 36.679688 L 26.710938 36.691406 L 26.71875 36.691406 L 26.742188 36.648438 L 26.742188 36.625 L 26.722656 36.628906 " fill-opacity="1" fill-rule="nonzero"/><path fill="rgb(92.158508%, 56.858826%, 12.548828%)" d="M 26.609375 36.472656 L 26.582031 36.445312 L 26.546875 36.507812 L 26.601562 36.519531 L 26.609375 36.472656 " fill-opacity="1" fill-rule="nonzero"/><path fill="rgb(92.158508%, 56.858826%, 12.548828%)" d="M 40.140625 40.671875 L 40.113281 40.695312 L 40.097656 40.734375 L 40.132812 40.738281 L 40.164062 40.730469 L 40.191406 40.710938 L 40.207031 40.679688 L 40.171875 40.664062 L 40.140625 40.671875 " fill-opacity="1" fill-rule="nonzero"/><g clip-path="url(#id8)"><path fill="rgb(92.158508%, 56.858826%, 12.548828%)" d="M 65.949219 37.097656 L 65.910156 37.078125 L 65.871094 37.0625 L 65.863281 37.097656 L 65.84375 37.121094 L 65.8125 37.132812 L 65.777344 37.128906 L 65.828125 37.058594 L 65.84375 36.960938 L 65.828125 36.765625 L 65.832031 36.636719 L 65.90625 36.296875 L 65.671875 36.230469 L 65.582031 36.242188 L 65.355469 36.402344 L 65.238281 36.453125 L 64.972656 36.523438 L 64.757812 36.605469 L 64.644531 36.636719 L 64.53125 36.644531 L 64.375 36.609375 L 64.316406 36.609375 L 64.246094 36.625 L 64.039062 36.703125 L 63.914062 36.714844 L 63.679688 36.703125 L 63.566406 36.730469 L 63.238281 36.925781 L 63.117188 36.953125 L 62.996094 36.949219 L 62.761719 36.910156 L 62.640625 36.917969 L 62.523438 36.964844 L 62.300781 37.09375 L 62.1875 37.136719 L 61.863281 37.121094 L 61.628906 36.957031 L 61.21875 36.496094 L 61.109375 36.453125 L 60.863281 36.488281 L 60.796875 36.453125 L 60.859375 36.445312 L 60.925781 36.410156 L 61.054688 36.316406 L 61.164062 36.261719 L 61.21875 36.226562 L 61.265625 36.1875 L 61.308594 36.070312 L 61.273438 35.96875 L 61.144531 35.765625 L 61.136719 35.730469 L 61.125 35.699219 L 61.101562 35.671875 L 61.078125 35.648438 L 61.058594 35.707031 L 60.984375 35.671875 L 60.90625 35.601562 L 60.78125 35.457031 L 60.765625 35.449219 L 60.75 35.453125 L 60.734375 35.453125 L 60.71875 35.441406 L 60.710938 35.421875 L 60.703125 35.371094 L 60.695312 35.347656 L 60.640625 35.25 L 60.617188 35.222656 L 60.542969 35.15625 L 60.367188 35.050781 L 60.289062 34.984375 L 60.226562 34.90625 L 60.117188 34.734375 L 60.050781 34.65625 L 59.980469 34.605469 L 59.667969 34.449219 L 59.511719 34.398438 L 59.441406 34.363281 L 59.394531 34.300781 L 59.359375 34.210938 L 59.320312 34.132812 L 59.257812 34.097656 L 59.214844 34.117188 L 59.207031 34.167969 L 59.207031 34.238281 L 59.195312 34.296875 L 59.136719 34.203125 L 58.9375 33.816406 L 58.894531 33.710938 L 58.867188 33.601562 L 58.792969 33.222656 L 58.714844 32.984375 L 58.507812 32.519531 L 58.46875 32.46875 L 58.414062 32.421875 L 58.308594 32.351562 L 58.296875 32.347656 L 58.28125 32.347656 L 58.257812 32.34375 L 58.238281 32.328125 L 58.210938 32.300781 L 58.136719 32.207031 L 58.019531 32.117188 L 57.921875 32.050781 L 57.839844 31.972656 L 57.777344 31.832031 L 57.738281 31.671875 L 57.679688 31.179688 L 57.679688 30.847656 L 57.652344 30.648438 L 57.65625 30.578125 L 57.703125 30.605469 L 57.71875 30.617188 L 57.707031 30.554688 L 57.671875 30.5 L 57.589844 30.394531 L 57.542969 30.300781 L 57.515625 30.210938 L 57.5 30.113281 L 57.492188 30.011719 L 57.445312 29.921875 L 57.355469 29.835938 L 57.085938 29.617188 L 56.910156 29.511719 L 56.832031 29.433594 L 56.757812 29.269531 L 56.691406 29.023438 L 56.703125 28.816406 L 56.855469 28.765625 L 56.582031 28.511719 L 56.507812 28.410156 L 55.792969 27.003906 L 55.765625 26.898438 L 55.730469 26.683594 L 55.6875 26.578125 L 55.589844 26.449219 L 55.570312 26.398438 L 55.5625 26.34375 L 55.558594 26.226562 L 55.546875 26.175781 L 55.496094 26.089844 L 55.335938 25.921875 L 55.085938 25.589844 L 55.039062 25.5 L 55.007812 25.40625 L 54.96875 25.234375 L 54.882812 25.054688 L 54.878906 24.964844 L 54.90625 24.882812 L 54.972656 24.8125 L 55.007812 24.902344 L 55.066406 25.082031 L 55.101562 25.164062 L 55.152344 25.242188 L 55.261719 25.386719 L 55.304688 25.464844 L 55.335938 25.550781 L 55.359375 25.632812 L 55.386719 25.714844 L 55.433594 25.792969 L 55.753906 26.148438 L 55.800781 26.1875 L 55.847656 26.214844 L 55.898438 26.234375 L 55.925781 26.238281 L 55.945312 26.226562 L 55.984375 26.191406 L 56.035156 26.117188 L 56.058594 26.027344 L 56.078125 25.847656 L 56.101562 25.753906 L 56.171875 25.570312 L 56.242188 25.292969 L 56.277344 25.207031 L 56.339844 25.132812 L 56.320312 25.078125 L 56.195312 24.675781 L 56.121094 24.511719 L 56.113281 24.464844 L 56.097656 24.417969 L 56.070312 24.34375 L 56.023438 24.214844 L 55.945312 24.003906 L 55.9375 23.972656 L 55.925781 23.953125 L 55.84375 24 L 55.761719 24.035156 L 55.671875 24.0625 L 55.433594 24.089844 L 55.394531 24.089844 L 55.371094 24.085938 L 55.304688 24.058594 L 55.234375 24.070312 L 55.070312 24.113281 L 54.996094 24.113281 L 54.933594 24.089844 L 54.828125 24 L 54.769531 23.972656 L 54.792969 24.019531 L 54.78125 24.058594 L 54.746094 24.085938 L 54.695312 24.089844 L 54.6875 24.078125 L 54.613281 24.011719 L 54.59375 24 L 54.535156 23.984375 L 54.507812 23.972656 L 54.554688 23.917969 L 54.566406 23.886719 L 54.578125 23.851562 L 54.644531 23.90625 L 54.679688 23.929688 L 54.722656 23.941406 L 54.660156 23.882812 L 54.617188 23.847656 L 54.574219 23.835938 L 54.417969 23.839844 L 54.351562 23.832031 L 54.203125 23.796875 L 54.101562 23.804688 L 53.925781 23.894531 L 53.800781 23.894531 L 53.914062 23.859375 L 53.96875 23.832031 L 54.011719 23.796875 L 53.792969 23.84375 L 53.730469 23.863281 L 53.699219 23.886719 L 53.652344 23.9375 L 53.625 23.957031 L 53.363281 24.070312 L 53.175781 24.183594 L 53.078125 24.230469 L 52.976562 24.257812 L 52.871094 24.25 L 52.539062 24.132812 L 52.199219 24.066406 L 51.785156 23.914062 L 51.183594 23.773438 L 51.0625 23.765625 L 50.824219 23.824219 L 50.707031 23.824219 L 50.632812 23.742188 L 50.554688 23.621094 L 50.480469 23.554688 L 50.382812 23.527344 L 50.101562 23.511719 L 49.851562 23.4375 L 49.71875 23.40625 L 49.566406 23.386719 L 49.492188 23.363281 L 49.4375 23.3125 L 49.425781 23.257812 L 49.425781 23.210938 L 49.421875 23.160156 L 49.378906 23.105469 L 49.269531 23.046875 L 49.125 22.996094 L 48.972656 22.957031 L 48.636719 22.921875 L 48.578125 22.925781 L 48.527344 22.949219 L 48.4375 23.007812 L 48.382812 23.027344 L 48.128906 23.09375 L 48.011719 23.144531 L 47.890625 23.214844 L 47.796875 23.285156 L 47.710938 23.363281 L 47.640625 23.453125 L 47.597656 23.5625 L 47.585938 23.695312 L 47.617188 23.808594 L 47.664062 23.914062 L 47.703125 24.035156 L 47.664062 24.25 L 47.507812 24.441406 L 47.292969 24.582031 L 47.078125 24.625 L 46.933594 24.582031 L 46.8125 24.5 L 46.703125 24.40625 L 46.582031 24.316406 L 46.476562 24.261719 L 46.253906 24.171875 L 46.023438 24.09375 L 45.785156 24.035156 L 45.40625 23.996094 L 45.28125 23.96875 L 45.164062 23.917969 L 45.070312 23.84375 L 44.996094 23.753906 L 44.941406 23.644531 L 44.859375 23.378906 L 44.792969 23.300781 L 44.6875 23.257812 L 44.527344 23.21875 L 44.300781 23.144531 L 44.078125 23.046875 L 43.847656 22.96875 L 43.605469 22.953125 L 43.363281 22.996094 L 43.246094 23.003906 L 43.117188 22.980469 L 43.046875 22.949219 L 42.917969 22.867188 L 42.851562 22.832031 L 42.699219 22.785156 L 42.652344 22.761719 L 42.605469 22.746094 L 42.519531 22.730469 L 42.472656 22.714844 L 42.511719 22.691406 L 42.460938 22.636719 L 42.394531 22.503906 L 42.332031 22.464844 L 42.289062 22.527344 L 42.230469 22.539062 L 42.1875 22.5 L 42.1875 22.421875 L 42 22.394531 L 41.855469 22.289062 L 41.804688 22.140625 L 41.898438 21.972656 L 42.164062 21.757812 L 42.242188 21.667969 L 42.371094 21.453125 L 42.390625 21.414062 L 42.394531 21.382812 L 42.390625 21.332031 L 42.378906 21.230469 L 42.351562 21.148438 L 42.304688 21.082031 L 42.152344 20.960938 L 42.085938 20.886719 L 42.050781 20.796875 L 42.054688 20.691406 L 42.078125 20.648438 L 42.113281 20.613281 L 42.191406 20.554688 L 42.230469 20.511719 L 42.332031 20.367188 L 42.410156 20.28125 L 42.421875 20.257812 L 42.417969 20.1875 L 42.386719 20.160156 L 42.339844 20.164062 L 42.292969 20.175781 L 42.246094 20.195312 L 42.097656 20.285156 L 42.042969 20.320312 L 42.015625 20.34375 L 41.992188 20.34375 L 41.953125 20.308594 L 41.902344 20.207031 L 41.878906 20.101562 L 41.828125 20.03125 L 41.699219 20.015625 L 41.703125 20.042969 L 41.699219 20.058594 L 41.6875 20.070312 L 41.671875 20.09375 L 41.65625 20.035156 L 41.660156 20.011719 L 41.675781 19.976562 L 41.492188 19.960938 L 41.296875 20.039062 L 41.105469 20.152344 L 40.9375 20.230469 L 40.625 20.28125 L 40.53125 20.28125 L 40.433594 20.253906 L 40.238281 20.15625 L 40.132812 20.125 L 40.128906 20.230469 L 39.976562 20.21875 L 39.703125 20.132812 L 39.644531 20.152344 L 39.589844 20.1875 L 39.539062 20.234375 L 39.484375 20.273438 L 39.414062 20.300781 L 39.179688 20.367188 L 39.066406 20.410156 L 39.015625 20.414062 L 38.949219 20.398438 L 38.886719 20.363281 L 38.769531 20.285156 L 38.695312 20.257812 L 38.527344 20.238281 L 38.351562 20.246094 L 37.9375 20.324219 L 37.777344 20.328125 L 37.699219 20.332031 L 37.628906 20.355469 L 37.503906 20.429688 L 37.4375 20.457031 L 37.277344 20.484375 L 36.765625 20.503906 L 36.621094 20.53125 L 36.484375 20.574219 L 36.222656 20.6875 L 36.101562 20.753906 L 36.046875 20.792969 L 36 20.839844 L 35.941406 20.90625 L 35.898438 20.945312 L 35.851562 20.964844 L 35.609375 20.996094 L 35.46875 21.046875 L 35.332031 21.125 L 35.074219 21.324219 L 34.9375 21.414062 L 34.789062 21.46875 L 34.621094 21.46875 L 34.339844 21.453125 L 34.238281 21.402344 L 34.179688 21.265625 L 34.105469 21.34375 L 34.019531 21.378906 L 33.921875 21.390625 L 33.820312 21.386719 L 33.667969 21.371094 L 33.609375 21.375 L 33.449219 21.421875 L 33.394531 21.429688 L 33.210938 21.378906 L 32.972656 21.246094 L 32.800781 21.082031 L 32.832031 20.929688 L 32.765625 20.929688 L 32.660156 20.945312 L 32.550781 20.976562 L 32.480469 21.003906 L 32.429688 21.074219 L 32.382812 21.179688 L 32.320312 21.386719 L 32.164062 21.765625 L 32.070312 21.945312 L 31.96875 22.125 L 31.847656 22.257812 L 31.691406 22.359375 L 31.167969 22.597656 L 31.019531 22.691406 L 30.882812 22.800781 L 30.601562 23.078125 L 30.546875 23.144531 L 30.507812 23.230469 L 30.445312 23.425781 L 30.40625 23.511719 L 30.242188 23.761719 L 30.1875 23.921875 L 30.160156 24.09375 L 30.164062 24.328125 L 30.167969 24.351562 L 30.222656 24.445312 L 30.265625 24.507812 L 30.28125 24.542969 L 30.285156 24.636719 L 30.261719 24.734375 L 30.21875 24.824219 L 29.945312 25.214844 L 29.816406 25.359375 L 29.171875 25.867188 L 28.988281 25.972656 L 28.785156 26.046875 L 28.574219 26.09375 L 28.46875 26.105469 L 28.414062 26.117188 L 28.367188 26.144531 L 28.328125 26.183594 L 28.253906 26.28125 L 28.210938 26.324219 L 28.089844 26.695312 L 28.007812 26.871094 L 27.890625 27.007812 L 27.804688 27.070312 L 27.628906 27.164062 L 27.546875 27.226562 L 27.484375 27.296875 L 27.441406 27.375 L 27.257812 27.847656 L 27.234375 27.945312 L 27.21875 28.160156 L 27.195312 28.257812 L 27.132812 28.351562 L 26.824219 28.652344 L 26.675781 28.777344 L 26.613281 28.847656 L 26.570312 28.9375 L 26.675781 28.828125 L 26.65625 28.933594 L 26.59375 29.050781 L 26.519531 29.164062 L 26.464844 29.265625 L 26.398438 29.507812 L 26.351562 29.640625 L 26.28125 29.753906 L 26.234375 29.796875 L 26.136719 29.867188 L 26.089844 29.914062 L 26.050781 29.980469 L 26.027344 30.050781 L 25.9375 30.5 L 25.921875 30.660156 L 25.945312 30.765625 L 26.003906 30.601562 L 26.058594 30.644531 L 26.128906 30.777344 L 26.230469 30.894531 L 26.234375 30.878906 L 26.25 30.828125 L 26.3125 30.882812 L 26.367188 30.976562 L 26.40625 31.078125 L 26.425781 31.160156 L 26.425781 31.273438 L 26.394531 31.390625 L 26.300781 31.605469 L 26.320312 31.597656 L 26.359375 31.585938 L 26.378906 31.578125 L 26.34375 31.636719 L 26.300781 31.65625 L 26.28125 31.675781 L 26.296875 31.734375 L 26.316406 31.765625 L 26.382812 31.820312 L 26.40625 31.851562 L 26.425781 31.890625 L 26.4375 31.929688 L 26.523438 32.304688 L 26.539062 32.453125 L 26.539062 32.601562 L 26.515625 32.765625 L 26.46875 32.917969 L 26.34375 33.222656 L 26.292969 33.378906 L 26.265625 33.535156 L 26.246094 33.859375 L 26.164062 34.0625 L 26.027344 34.261719 L 25.855469 34.425781 L 25.660156 34.519531 L 25.671875 34.535156 L 25.683594 34.554688 L 25.714844 34.585938 L 25.796875 34.554688 L 25.925781 34.675781 L 26.046875 34.84375 L 26.097656 34.980469 L 26.175781 34.964844 L 26.199219 34.957031 L 26.125 35.019531 L 26.140625 35.082031 L 26.195312 35.152344 L 26.230469 35.234375 L 26.316406 35.375 L 26.480469 35.316406 L 26.796875 35.28125 L 26.894531 35.304688 L 26.640625 35.335938 L 26.484375 35.355469 L 26.449219 35.417969 L 26.410156 35.417969 L 26.332031 35.425781 L 26.296875 35.421875 L 26.269531 35.402344 L 26.234375 35.367188 L 26.207031 35.335938 L 26.199219 35.324219 L 26.121094 35.332031 L 26.09375 35.386719 L 26.113281 35.550781 L 26.101562 35.707031 L 26.105469 35.792969 L 26.128906 35.835938 L 26.167969 35.828125 L 26.203125 35.792969 L 26.242188 35.78125 L 26.296875 35.84375 L 26.21875 35.835938 L 26.144531 35.859375 L 26.109375 35.910156 L 26.144531 35.980469 L 26.21875 36.019531 L 26.277344 36.042969 L 26.339844 36.054688 L 26.417969 36.050781 L 26.378906 36.105469 L 26.375 36.15625 L 26.402344 36.199219 L 26.457031 36.234375 L 26.519531 36.238281 L 26.578125 36.230469 L 26.613281 36.25 L 26.59375 36.324219 L 26.671875 36.332031 L 26.738281 36.304688 L 26.796875 36.269531 L 26.867188 36.234375 L 26.925781 36.226562 L 27.042969 36.226562 L 27.097656 36.210938 L 27.046875 36.257812 L 26.894531 36.277344 L 26.851562 36.328125 L 26.867188 36.398438 L 26.941406 36.410156 L 27.035156 36.40625 L 27.101562 36.4375 L 27.03125 36.445312 L 26.964844 36.460938 L 26.90625 36.496094 L 26.863281 36.550781 L 26.878906 36.550781 L 26.917969 36.558594 L 26.9375 36.558594 L 26.910156 36.632812 L 26.949219 36.675781 L 27 36.714844 L 27.015625 36.777344 L 27.035156 36.761719 L 27.089844 36.726562 L 27.113281 36.710938 L 27.097656 36.746094 L 27.09375 36.773438 L 27.105469 36.800781 L 27.117188 36.832031 L 27.121094 36.910156 L 27.148438 36.898438 L 27.183594 36.847656 L 27.210938 36.816406 L 27.257812 36.832031 L 27.292969 36.875 L 27.332031 36.984375 L 27.382812 36.9375 L 27.382812 37.070312 L 27.433594 37.171875 L 27.519531 37.253906 L 27.628906 37.320312 L 27.648438 37.324219 L 27.691406 37.316406 L 27.707031 37.320312 L 27.71875 37.335938 L 27.730469 37.382812 L 27.746094 37.402344 L 27.789062 37.4375 L 27.828125 37.460938 L 27.871094 37.464844 L 27.910156 37.441406 L 27.925781 37.554688 L 27.925781 37.613281 L 27.910156 37.675781 L 28 37.695312 L 28.082031 37.773438 L 28.136719 37.875 L 28.144531 37.964844 L 28.164062 38.007812 L 28.195312 38.035156 L 28.234375 38.058594 L 28.28125 38.066406 L 28.230469 38.085938 L 28.1875 38.121094 L 28.171875 38.171875 L 28.199219 38.230469 L 28.230469 38.238281 L 28.28125 38.230469 L 28.332031 38.21875 L 28.371094 38.203125 L 28.363281 38.230469 L 28.355469 38.25 L 28.339844 38.265625 L 28.3125 38.285156 L 28.296875 38.296875 L 28.277344 38.328125 L 28.265625 38.339844 L 28.253906 38.335938 L 28.234375 38.332031 L 28.214844 38.324219 L 28.207031 38.316406 L 28.1875 38.320312 L 28.175781 38.3125 L 28.167969 38.3125 L 28.164062 38.351562 L 28.175781 38.378906 L 28.199219 38.414062 L 28.246094 38.46875 L 28.269531 38.484375 L 28.296875 38.492188 L 28.324219 38.507812 L 28.347656 38.535156 L 28.363281 38.570312 L 28.378906 38.652344 L 28.394531 38.691406 L 28.441406 38.734375 L 28.5 38.761719 L 28.5625 38.761719 L 28.617188 38.738281 L 28.613281 38.777344 L 28.617188 38.941406 L 28.644531 38.964844 L 28.992188 39.109375 L 29.09375 39.167969 L 29.1875 39.246094 L 29.253906 39.308594 L 29.320312 39.355469 L 29.46875 39.445312 L 29.535156 39.496094 L 29.636719 39.605469 L 29.703125 39.652344 L 29.859375 39.738281 L 30 39.835938 L 30.539062 40.296875 L 30.675781 40.390625 L 31.160156 40.652344 L 31.332031 40.722656 L 31.503906 40.761719 L 31.597656 40.738281 L 31.859375 40.597656 L 32.566406 40.359375 L 32.753906 40.324219 L 32.957031 40.300781 L 32.917969 40.285156 L 32.871094 40.28125 L 32.78125 40.289062 L 32.847656 40.25 L 32.921875 40.253906 L 32.992188 40.277344 L 33.0625 40.292969 L 33.183594 40.289062 L 33.558594 40.238281 L 33.484375 40.21875 L 33.394531 40.21875 L 33.222656 40.238281 L 33.332031 40.191406 L 33.449219 40.191406 L 33.832031 40.289062 L 33.914062 40.296875 L 33.976562 40.285156 L 34.003906 40.253906 L 34.015625 40.214844 L 34.03125 40.183594 L 34.074219 40.171875 L 34.066406 40.21875 L 34.082031 40.257812 L 34.113281 40.285156 L 34.152344 40.300781 L 34.113281 40.300781 L 34.0625 40.292969 L 34.042969 40.292969 L 34.019531 40.308594 L 34.097656 40.324219 L 34.421875 40.394531 L 34.496094 40.421875 L 34.652344 40.5 L 34.722656 40.515625 L 34.796875 40.5 L 35.019531 40.363281 L 35.105469 40.328125 L 35.375 40.253906 L 35.542969 40.183594 L 35.871094 40.007812 L 36.042969 39.941406 L 36.121094 39.929688 L 36.285156 39.933594 L 36.367188 39.921875 L 36.449219 39.886719 L 36.542969 39.773438 L 36.613281 39.730469 L 36.675781 39.703125 L 36.738281 39.683594 L 36.867188 39.65625 L 37.183594 39.597656 L 37.503906 39.5625 L 37.785156 39.566406 L 37.871094 39.546875 L 37.894531 39.535156 L 37.945312 39.484375 L 37.96875 39.46875 L 38.003906 39.453125 L 38.042969 39.441406 L 38.078125 39.4375 L 38.113281 39.4375 L 37.9375 39.53125 L 38.121094 39.558594 L 38.292969 39.558594 L 38.464844 39.578125 L 38.636719 39.660156 L 38.707031 39.71875 L 38.835938 39.847656 L 38.890625 39.917969 L 38.949219 40.003906 L 38.988281 40.011719 L 39.035156 39.957031 L 39.046875 39.984375 L 39.058594 40 L 39.074219 40.007812 L 39.113281 40.015625 L 39.074219 40.023438 L 39.027344 40.027344 L 38.980469 40.039062 L 38.960938 40.058594 L 38.988281 40.109375 L 39.046875 40.125 L 39.117188 40.117188 L 39.167969 40.09375 L 39.128906 40.140625 L 39.070312 40.199219 L 39.050781 40.253906 L 39.125 40.285156 L 39.113281 40.289062 L 39.085938 40.296875 L 39.070312 40.300781 L 39.109375 40.414062 L 39.160156 40.519531 L 39.226562 40.617188 L 39.3125 40.699219 L 39.390625 40.753906 L 39.46875 40.792969 L 39.539062 40.785156 L 39.589844 40.714844 L 39.601562 40.78125 L 39.667969 40.789062 L 39.738281 40.753906 L 39.769531 40.6875 L 39.789062 40.742188 L 39.824219 40.765625 L 39.875 40.765625 L 39.933594 40.75 L 39.902344 40.699219 L 39.894531 40.648438 L 39.878906 40.539062 L 39.910156 40.589844 L 39.921875 40.652344 L 39.945312 40.707031 L 39.996094 40.734375 L 40.066406 40.71875 L 40.097656 40.667969 L 40.09375 40.601562 L 40.058594 40.542969 L 40.125 40.589844 L 40.203125 40.636719 L 40.273438 40.644531 L 40.324219 40.582031 L 40.371094 40.648438 L 40.453125 40.664062 L 40.746094 40.621094 L 40.773438 40.585938 L 40.761719 40.523438 L 40.75 40.421875 L 40.832031 40.503906 L 40.878906 40.527344 L 40.925781 40.523438 L 40.917969 40.609375 L 40.957031 40.648438 L 40.992188 40.636719 L 40.988281 40.570312 L 41.019531 40.597656 L 41.105469 40.621094 L 41.128906 40.636719 L 41.144531 40.675781 L 41.15625 40.800781 L 41.175781 40.855469 L 41.207031 40.898438 L 41.253906 40.945312 L 41.308594 40.980469 L 41.367188 41 L 41.410156 41.003906 L 41.445312 41.003906 L 41.46875 40.980469 L 41.46875 40.929688 L 41.5 40.941406 L 41.53125 40.949219 L 41.5625 40.945312 L 41.589844 40.9375 L 41.566406 40.96875 L 41.570312 41 L 41.589844 41.03125 L 41.617188 41.054688 L 41.582031 41.050781 L 41.558594 41.054688 L 41.535156 41.066406 L 41.511719 41.089844 L 41.53125 41.136719 L 41.554688 41.175781 L 41.585938 41.195312 L 41.632812 41.191406 L 41.605469 41.25 L 41.644531 41.335938 L 41.703125 41.433594 L 41.734375 41.527344 L 41.726562 41.632812 L 41.652344 41.972656 L 41.625 42.207031 L 41.589844 42.308594 L 41.535156 42.417969 L 41.464844 42.507812 L 41.433594 42.558594 L 41.425781 42.613281 L 41.441406 42.65625 L 41.46875 42.671875 L 41.5 42.683594 L 41.53125 42.722656 L 41.535156 42.78125 L 41.550781 42.851562 L 41.5625 42.921875 L 41.550781 42.976562 L 41.527344 42.984375 L 41.503906 42.96875 L 41.472656 42.949219 L 41.425781 42.957031 L 41.390625 42.992188 L 41.398438 43.042969 L 41.433594 43.09375 L 41.484375 43.140625 L 41.554688 43.183594 L 41.625 43.195312 L 41.699219 43.203125 L 41.769531 43.21875 L 41.726562 43.226562 L 41.691406 43.242188 L 41.664062 43.269531 L 41.652344 43.308594 L 41.574219 43.269531 L 41.492188 43.246094 L 41.425781 43.207031 L 41.394531 43.128906 L 41.351562 43.230469 L 41.347656 43.515625 L 41.285156 43.640625 L 41.222656 43.699219 L 41.152344 43.734375 L 41.082031 43.730469 L 41.011719 43.683594 L 41.15625 43.996094 L 41.265625 44.125 L 41.386719 44.117188 L 41.34375 44.195312 L 41.378906 44.226562 L 41.441406 44.242188 L 41.492188 44.277344 L 41.398438 44.296875 L 41.328125 44.253906 L 41.207031 44.105469 L 41.226562 44.167969 L 41.300781 44.324219 L 41.332031 44.375 L 41.367188 44.402344 L 41.414062 44.421875 L 41.457031 44.449219 L 41.46875 44.492188 L 41.4375 44.476562 L 41.414062 44.46875 L 41.359375 44.457031 L 41.492188 44.648438 L 41.535156 44.699219 L 41.597656 44.742188 L 41.734375 44.800781 L 41.808594 44.839844 L 41.757812 44.851562 L 41.710938 44.839844 L 41.660156 44.8125 L 41.609375 44.789062 L 41.714844 44.910156 L 41.964844 45.113281 L 42.300781 45.484375 L 42.382812 45.597656 L 42.429688 45.648438 L 42.707031 45.902344 L 42.777344 45.992188 L 42.820312 46.070312 L 42.851562 46.144531 L 42.890625 46.21875 L 42.949219 46.292969 L 43.007812 46.394531 L 43.03125 46.449219 L 43.046875 46.503906 L 43.050781 46.566406 L 43.042969 46.625 L 43.042969 46.683594 L 43.066406 46.738281 L 43.183594 46.863281 L 43.300781 46.847656 L 43.421875 46.796875 L 43.566406 46.804688 L 43.496094 46.84375 L 43.421875 46.875 L 43.34375 46.894531 L 43.183594 46.921875 L 43.148438 46.933594 L 43.136719 46.957031 L 43.140625 47.007812 L 43.160156 47.074219 L 43.191406 47.144531 L 43.375 47.414062 L 43.410156 47.484375 L 43.496094 47.746094 L 43.714844 48.230469 L 43.742188 48.367188 L 43.71875 48.472656 L 43.652344 48.566406 L 43.558594 48.675781 L 43.570312 48.628906 L 43.578125 48.609375 L 43.535156 48.652344 L 43.527344 48.699219 L 43.546875 48.75 L 43.570312 48.808594 L 43.652344 49.101562 L 43.710938 49.246094 L 43.941406 49.640625 L 44.011719 49.871094 L 44.019531 50.144531 L 43.96875 50.417969 L 43.875 50.644531 L 43.824219 50.71875 L 43.769531 50.769531 L 43.578125 50.898438 L 43.542969 50.9375 L 43.484375 51.039062 L 43.4375 51.109375 L 43.332031 51.242188 L 43.289062 51.3125 L 43.265625 51.367188 L 43.246094 51.476562 L 42.984375 52.53125 L 42.929688 52.664062 L 42.894531 52.71875 L 42.824219 52.804688 L 42.804688 52.855469 L 42.804688 52.917969 L 42.832031 53.136719 L 42.789062 53.675781 L 42.789062 53.933594 L 42.839844 54.164062 L 42.941406 54.375 L 43.25 54.78125 L 43.660156 55.605469 L 43.738281 55.84375 L 43.785156 55.960938 L 44.300781 56.792969 L 44.398438 57.003906 L 44.402344 57.246094 L 44.367188 57.21875 L 44.347656 57.328125 L 44.402344 57.722656 L 44.40625 57.988281 L 44.421875 58.117188 L 44.550781 58.496094 L 44.578125 58.613281 L 44.597656 58.871094 L 44.675781 59.414062 L 44.695312 59.472656 L 44.746094 59.578125 L 44.757812 59.621094 L 44.785156 59.800781 L 44.847656 60.039062 L 44.890625 60.152344 L 45.011719 60.382812 L 45.164062 60.609375 L 45.34375 60.808594 L 45.542969 60.980469 L 45.683594 61.15625 L 45.789062 61.367188 L 46.09375 62.199219 L 46.546875 62.960938 L 46.628906 63.171875 L 46.640625 63.410156 L 46.636719 63.453125 L 46.625 63.496094 L 46.605469 63.535156 L 46.578125 63.570312 L 46.523438 63.601562 L 46.480469 63.605469 L 46.441406 63.597656 L 46.410156 63.605469 L 46.367188 63.679688 L 46.390625 63.773438 L 46.636719 64.113281 L 46.695312 64.214844 L 46.71875 64.316406 L 46.703125 64.367188 L 46.660156 64.441406 L 46.644531 64.5 L 46.648438 64.550781 L 46.664062 64.601562 L 46.691406 64.644531 L 46.722656 64.683594 L 46.71875 64.613281 L 46.730469 64.554688 L 46.765625 64.515625 L 46.835938 64.5 L 46.898438 64.515625 L 46.914062 64.546875 L 46.917969 64.59375 L 46.933594 64.644531 L 46.953125 64.675781 L 46.984375 64.691406 L 47.007812 64.695312 L 47.109375 64.707031 L 47.160156 64.726562 L 47.207031 64.757812 L 47.230469 64.800781 L 47.210938 64.863281 L 47.308594 64.875 L 47.523438 64.972656 L 47.640625 64.972656 L 47.703125 64.941406 L 47.8125 64.835938 L 47.871094 64.796875 L 47.929688 64.769531 L 48.058594 64.734375 L 48.121094 64.71875 L 48.234375 64.710938 L 48.457031 64.714844 L 48.574219 64.703125 L 48.695312 64.660156 L 48.910156 64.535156 L 49.035156 64.488281 L 49.160156 64.476562 L 49.402344 64.507812 L 49.53125 64.507812 L 49.585938 64.492188 L 49.683594 64.453125 L 49.734375 64.441406 L 49.808594 64.445312 L 49.96875 64.472656 L 50.105469 64.507812 L 50.230469 64.550781 L 50.296875 64.566406 L 50.371094 64.566406 L 50.414062 64.550781 L 50.449219 64.519531 L 50.5 64.484375 L 50.546875 64.457031 L 50.589844 64.4375 L 50.632812 64.433594 L 50.691406 64.4375 L 50.804688 64.46875 L 50.867188 64.476562 L 50.917969 64.460938 L 50.945312 64.417969 L 50.953125 64.367188 L 50.972656 64.316406 L 51.03125 64.273438 L 51.109375 64.257812 L 51.1875 64.265625 L 51.265625 64.277344 L 51.34375 64.285156 L 51.449219 64.269531 L 51.5625 64.230469 L 51.769531 64.125 L 51.992188 63.984375 L 52.835938 63.296875 L 53.625 62.523438 L 54.285156 61.445312 L 54.382812 61.328125 L 54.484375 61.234375 L 54.707031 61.082031 L 54.808594 60.980469 L 54.898438 60.835938 L 54.953125 60.675781 L 55.019531 60.34375 L 55.132812 59.941406 L 55.160156 59.804688 L 55.199219 59.300781 L 55.175781 59.320312 L 55.15625 59.347656 L 55.144531 59.382812 L 55.136719 59.421875 L 55.070312 59.363281 L 55.03125 59.308594 L 55.019531 59.246094 L 55.035156 59.167969 L 55.082031 59.0625 L 55.144531 58.976562 L 55.222656 58.902344 L 55.316406 58.835938 L 55.519531 58.722656 L 56.167969 58.472656 L 56.339844 58.378906 L 56.539062 58.230469 L 56.6875 58.046875 L 56.710938 57.84375 L 56.6875 57.8125 L 56.660156 57.820312 L 56.636719 57.820312 L 56.617188 57.746094 L 56.628906 57.632812 L 56.707031 57.402344 L 56.726562 57.289062 L 56.722656 57.230469 L 56.691406 57.117188 L 56.6875 57.058594 L 56.714844 56.882812 L 56.707031 56.824219 L 56.675781 56.746094 L 56.652344 56.78125 L 56.621094 56.949219 L 56.582031 56.871094 L 56.554688 56.507812 L 56.425781 56.023438 L 56.378906 55.925781 L 56.253906 55.738281 L 56.222656 55.640625 L 56.230469 55.53125 L 56.25 55.410156 L 56.25 55.296875 L 56.191406 55.203125 L 56.253906 55.222656 L 56.292969 55.25 L 56.332031 55.261719 L 56.398438 55.25 L 56.480469 55.199219 L 56.558594 55.128906 L 56.8125 54.835938 L 56.878906 54.777344 L 56.949219 54.722656 L 57.015625 54.699219 L 57.078125 54.683594 L 57.121094 54.65625 L 57.136719 54.589844 L 57.195312 54.597656 L 57.273438 54.527344 L 57.59375 54.09375 L 57.667969 54.019531 L 57.863281 53.878906 L 58.078125 53.75 L 58.300781 53.644531 L 58.683594 53.523438 L 58.753906 53.496094 L 59.144531 53.257812 L 59.21875 53.179688 L 59.21875 53.160156 L 59.199219 53.105469 L 59.199219 53.089844 L 59.222656 53.074219 L 59.273438 53.0625 L 59.292969 53.050781 L 59.320312 53.015625 L 59.386719 52.910156 L 59.605469 52.640625 L 59.667969 52.542969 L 59.6875 52.488281 L 59.703125 52.34375 L 59.71875 52.308594 L 59.773438 52.222656 L 59.792969 52.183594 L 59.796875 52.097656 L 59.78125 51.992188 L 59.746094 51.941406 L 59.699219 52.011719 L 59.699219 51.964844 L 59.714844 51.929688 L 59.730469 51.898438 L 59.738281 51.863281 L 59.726562 51.828125 L 59.707031 51.8125 L 59.6875 51.804688 L 59.671875 51.78125 L 59.660156 51.695312 L 59.648438 51.414062 L 59.667969 51.179688 L 59.65625 51.113281 L 59.636719 51.089844 L 59.613281 51.074219 L 59.585938 51.0625 L 59.578125 51.054688 L 59.585938 51.023438 L 59.605469 51.007812 L 59.628906 50.992188 L 59.644531 50.972656 L 59.652344 50.886719 L 59.621094 50.660156 L 59.578125 50.15625 L 59.578125 50.078125 L 59.589844 50.003906 L 59.617188 49.878906 L 59.640625 49.8125 L 59.671875 49.769531 L 59.65625 49.757812 L 59.621094 49.738281 L 59.605469 49.730469 L 59.625 49.714844 L 59.660156 49.679688 L 59.679688 49.667969 L 59.652344 49.640625 L 59.628906 49.613281 L 59.609375 49.582031 L 59.59375 49.546875 L 59.558594 49.496094 L 59.511719 49.453125 L 59.289062 49.316406 L 59.226562 49.28125 L 59.160156 49.269531 L 59.1875 49.1875 L 59.171875 49.085938 L 59.105469 48.894531 L 59.082031 48.800781 L 59.019531 48.59375 L 58.941406 48.414062 L 58.921875 48.324219 L 58.933594 48.21875 L 58.988281 48.03125 L 58.980469 47.949219 L 58.90625 47.945312 L 58.910156 47.800781 L 58.925781 47.730469 L 58.957031 47.660156 L 59.035156 47.539062 L 59.046875 47.476562 L 59.011719 47.40625 L 58.992188 47.390625 L 58.929688 47.378906 L 58.90625 47.367188 L 58.886719 47.34375 L 58.859375 47.28125 L 58.839844 47.253906 L 58.796875 47.207031 L 58.699219 47.128906 L 58.664062 47.078125 L 58.625 46.960938 L 58.632812 46.839844 L 58.800781 46.359375 L 58.867188 46.109375 L 58.910156 46.066406 L 58.957031 46.03125 L 59.003906 45.992188 L 59.046875 45.929688 L 59.125 45.769531 L 59.273438 45.40625 L 59.394531 45.191406 L 59.414062 45.132812 L 59.429688 45.058594 L 59.441406 44.988281 L 59.457031 44.933594 L 59.488281 44.886719 L 59.546875 44.847656 L 59.621094 44.828125 L 59.683594 44.816406 L 59.738281 44.796875 L 59.796875 44.738281 L 59.832031 44.691406 L 59.851562 44.640625 L 59.855469 44.589844 L 59.84375 44.527344 L 59.847656 44.53125 L 59.878906 44.546875 L 59.894531 44.503906 L 59.917969 44.496094 L 59.953125 44.5 L 59.992188 44.5 L 60.0625 44.46875 L 60.117188 44.4375 L 60.167969 44.394531 L 60.21875 44.335938 L 60.28125 44.253906 L 60.4375 43.984375 L 60.5 43.894531 L 61.523438 42.800781 L 62.089844 42.34375 L 62.683594 42 L 62.867188 41.867188 L 63.222656 41.535156 L 63.863281 40.792969 L 64.429688 39.984375 L 64.550781 39.773438 L 64.726562 39.328125 L 64.953125 38.949219 L 65.105469 38.625 L 65.261719 38.414062 L 65.613281 37.78125 L 65.648438 37.667969 L 65.707031 37.289062 L 65.753906 37.195312 L 65.835938 37.152344 L 65.980469 37.164062 L 65.972656 37.125 L 65.949219 37.097656 " fill-opacity="1" fill-rule="nonzero"/></g><path fill="rgb(92.158508%, 56.858826%, 12.548828%)" d="M 39.800781 43.101562 L 39.742188 43.136719 L 39.703125 43.199219 L 39.730469 43.277344 L 39.78125 43.289062 L 39.839844 43.257812 L 39.867188 43.191406 L 39.851562 43.117188 L 39.800781 43.101562 " fill-opacity="1" fill-rule="nonzero"/><path fill="rgb(92.158508%, 56.858826%, 12.548828%)" d="M 40.207031 42.386719 L 40.253906 42.410156 L 40.273438 42.371094 L 40.257812 42.339844 L 40.207031 42.386719 " fill-opacity="1" fill-rule="nonzero"/><path fill="rgb(92.158508%, 56.858826%, 12.548828%)" d="M 32.535156 52.910156 L 32.59375 52.890625 L 32.597656 52.867188 L 32.574219 52.863281 L 32.535156 52.910156 " fill-opacity="1" fill-rule="nonzero"/><path fill="rgb(92.158508%, 56.858826%, 12.548828%)" d="M 27.515625 48.011719 L 27.488281 48.039062 L 27.515625 48.054688 L 27.53125 48.054688 L 27.550781 48.035156 L 27.53125 48.011719 L 27.515625 48.011719 " fill-opacity="1" fill-rule="nonzero"/><path fill="rgb(92.158508%, 56.858826%, 12.548828%)" d="M 41.140625 41.246094 L 41.15625 41.144531 L 41.117188 41.109375 L 41.066406 41.109375 L 41.015625 41.128906 L 40.980469 41.15625 L 40.964844 41.179688 L 40.941406 41.25 L 40.929688 41.28125 L 40.90625 41.300781 L 40.878906 41.304688 L 40.863281 41.316406 L 40.855469 41.363281 L 40.949219 41.429688 L 41.058594 41.367188 L 41.140625 41.246094 " fill-opacity="1" fill-rule="nonzero"/><path fill="rgb(92.158508%, 56.858826%, 12.548828%)" d="M 68.414062 46.125 L 68.402344 46.089844 L 68.386719 46.058594 L 68.363281 46.027344 L 68.320312 46.058594 L 68.414062 46.164062 L 68.414062 46.125 " fill-opacity="1" fill-rule="nonzero"/><path fill="rgb(92.158508%, 56.858826%, 12.548828%)" d="M 42.488281 21.726562 L 42.507812 21.703125 L 42.519531 21.671875 L 42.492188 21.675781 L 42.464844 21.695312 L 42.441406 21.71875 L 42.425781 21.753906 L 42.460938 21.742188 L 42.488281 21.726562 " fill-opacity="1" fill-rule="nonzero"/><path fill="rgb(92.158508%, 56.858826%, 12.548828%)" d="M 42.242188 22.289062 L 42.1875 22.324219 L 42.199219 22.390625 L 42.238281 22.417969 L 42.289062 22.414062 L 42.339844 22.390625 L 42.378906 22.355469 L 42.316406 22.296875 L 42.242188 22.289062 " fill-opacity="1" fill-rule="nonzero"/><path fill="rgb(92.158508%, 56.858826%, 12.548828%)" d="M 62.339844 51.0625 L 62.359375 51.027344 L 62.378906 50.925781 L 62.355469 50.910156 L 62.335938 50.898438 L 62.320312 50.886719 L 62.300781 50.867188 L 62.296875 50.898438 L 62.289062 50.957031 L 62.289062 51.019531 L 62.300781 51.054688 L 62.339844 51.0625 " fill-opacity="1" fill-rule="nonzero"/><path fill="rgb(92.158508%, 56.858826%, 12.548828%)" d="M 25.976562 23.101562 L 26.082031 23.082031 L 26.152344 23.039062 L 25.972656 22.996094 L 25.875 22.984375 L 25.835938 23.015625 L 25.882812 23.085938 L 25.976562 23.101562 " fill-opacity="1" fill-rule="nonzero"/><g fill="rgb(92.158508%, 56.858826%, 12.548828%)" fill-opacity="1"><g transform="translate(6.965691, 50.650042)"><g><path d="M 3.875 -0.890625 L 1.9375 -0.890625 L 1.609375 0 L -0.140625 0 L 2.078125 -5.078125 L 3.765625 -5.078125 L 5.984375 0 L 4.21875 0 Z M 3.40625 -2.109375 L 2.90625 -3.390625 L 2.421875 -2.109375 Z M 3.40625 -2.109375 "/></g></g></g><g fill="rgb(92.158508%, 56.858826%, 12.548828%)" fill-opacity="1"><g transform="translate(12.807494, 50.650042)"><g><path d="M 2.125 -3.78125 L 2.125 -2.921875 L 4.234375 -2.921875 L 4.234375 -1.625 L 2.125 -1.625 L 2.125 0 L 0.40625 0 L 0.40625 -5.078125 L 4.53125 -5.078125 L 4.53125 -3.78125 Z M 2.125 -3.78125 "/></g></g></g><g fill="rgb(92.158508%, 56.858826%, 12.548828%)" fill-opacity="1"><g transform="translate(17.47514, 50.650042)"><g><path d="M 2.59375 -1.28125 L 2.125 -1.28125 L 2.125 0 L 0.40625 0 L 0.40625 -5.078125 L 2.859375 -5.078125 C 3.328125 -5.078125 3.734375 -5 4.078125 -4.84375 C 4.429688 -4.6875 4.703125 -4.460938 4.890625 -4.171875 C 5.078125 -3.878906 5.171875 -3.539062 5.171875 -3.15625 C 5.171875 -2.800781 5.085938 -2.488281 4.921875 -2.21875 C 4.753906 -1.945312 4.519531 -1.726562 4.21875 -1.5625 L 5.28125 0 L 3.453125 0 Z M 3.4375 -3.15625 C 3.4375 -3.34375 3.378906 -3.488281 3.265625 -3.59375 C 3.148438 -3.695312 2.976562 -3.75 2.75 -3.75 L 2.125 -3.75 L 2.125 -2.5625 L 2.75 -2.5625 C 2.976562 -2.5625 3.148438 -2.613281 3.265625 -2.71875 C 3.378906 -2.820312 3.4375 -2.96875 3.4375 -3.15625 Z M 3.4375 -3.15625 "/></g></g></g><g fill="rgb(92.158508%, 56.858826%, 12.548828%)" fill-opacity="1"><g transform="translate(22.874823, 50.650042)"><g><path d="M 0.40625 -5.078125 L 2.125 -5.078125 L 2.125 0 L 0.40625 0 Z M 0.40625 -5.078125 "/></g></g></g><g fill="rgb(92.158508%, 56.858826%, 12.548828%)" fill-opacity="1"><g transform="translate(25.411586, 50.650042)"><g><path d="M 3.03125 0.109375 C 2.5 0.109375 2.015625 0 1.578125 -0.21875 C 1.148438 -0.445312 0.8125 -0.757812 0.5625 -1.15625 C 0.320312 -1.5625 0.203125 -2.019531 0.203125 -2.53125 C 0.203125 -3.050781 0.320312 -3.507812 0.5625 -3.90625 C 0.8125 -4.3125 1.148438 -4.625 1.578125 -4.84375 C 2.015625 -5.070312 2.5 -5.1875 3.03125 -5.1875 C 3.53125 -5.1875 3.972656 -5.097656 4.359375 -4.921875 C 4.742188 -4.753906 5.0625 -4.503906 5.3125 -4.171875 L 4.234375 -3.21875 C 3.921875 -3.613281 3.550781 -3.8125 3.125 -3.8125 C 2.769531 -3.8125 2.484375 -3.695312 2.265625 -3.46875 C 2.046875 -3.238281 1.9375 -2.925781 1.9375 -2.53125 C 1.9375 -2.144531 2.046875 -1.835938 2.265625 -1.609375 C 2.484375 -1.378906 2.769531 -1.265625 3.125 -1.265625 C 3.550781 -1.265625 3.921875 -1.460938 4.234375 -1.859375 L 5.3125 -0.90625 C 5.0625 -0.570312 4.742188 -0.316406 4.359375 -0.140625 C 3.972656 0.0234375 3.53125 0.109375 3.03125 0.109375 Z M 3.03125 0.109375 "/></g></g></g><g fill="rgb(92.158508%, 56.858826%, 12.548828%)" fill-opacity="1"><g transform="translate(30.80402, 50.650042)"><g><path d="M 3.875 -0.890625 L 1.9375 -0.890625 L 1.609375 0 L -0.140625 0 L 2.078125 -5.078125 L 3.765625 -5.078125 L 5.984375 0 L 4.21875 0 Z M 3.40625 -2.109375 L 2.90625 -3.390625 L 2.421875 -2.109375 Z M 3.40625 -2.109375 "/></g></g></g><g clip-path="url(#id9)"><path fill="rgb(45.878601%, 81.17981%, 64.709473%)" d="M 39.359375 39.121094 L 34.308594 39.121094 C 33.457031 33.546875 37.007812 28.429688 42.128906 27.328125 C 36.121094 30.09375 36.1875 38.320312 39.359375 39.121094 " fill-opacity="1" fill-rule="nonzero"/></g><g clip-path="url(#id10)"><path fill="rgb(41.569519%, 79.60968%, 63.139343%)" d="M 41.242188 31.160156 C 38.273438 33.613281 37.402344 37.558594 39.265625 39.050781 C 39.296875 39.082031 39.328125 39.105469 39.359375 39.121094 C 36.1875 38.320312 36.121094 30.09375 42.128906 27.328125 C 41.253906 28.472656 40.992188 29.875 41.242188 31.160156 " fill-opacity="1" fill-rule="nonzero"/></g><g clip-path="url(#id11)"><path fill="rgb(29.40979%, 76.078796%, 70.979309%)" d="M 43.453125 34.324219 C 42.691406 34.058594 41.796875 34.085938 40.746094 34.613281 C 37.796875 35.941406 38.734375 38.535156 39.265625 39.050781 C 37.402344 37.558594 38.273438 33.613281 41.242188 31.160156 C 41.496094 32.460938 42.269531 33.640625 43.453125 34.324219 " fill-opacity="1" fill-rule="nonzero"/></g><g clip-path="url(#id12)"><path fill="rgb(21.179199%, 55.288696%, 66.268921%)" d="M 42.851562 39.121094 C 43.128906 38.738281 43.296875 38.265625 43.296875 37.75 C 43.296875 36.492188 42.3125 35.472656 41.105469 35.472656 C 39.894531 35.472656 38.914062 36.492188 38.914062 37.75 C 38.914062 38.265625 39.078125 38.738281 39.359375 39.121094 C 39.328125 39.097656 39.296875 39.074219 39.265625 39.050781 C 38.734375 38.535156 37.796875 35.941406 40.746094 34.613281 C 41.796875 34.085938 42.691406 34.058594 43.453125 34.324219 C 43.648438 34.4375 43.859375 34.539062 44.078125 34.621094 C 45.808594 35.683594 46.722656 38.253906 47.164062 39.121094 L 42.851562 39.121094 " fill-opacity="1" fill-rule="nonzero"/></g><g clip-path="url(#id13)"><path fill="rgb(29.40979%, 76.078796%, 70.979309%)" d="M 47.164062 39.121094 C 46.722656 38.253906 45.808594 35.683594 44.078125 34.621094 C 44.132812 34.644531 44.191406 34.664062 44.25 34.683594 C 45.03125 34.953125 45.875 34.988281 46.65625 34.800781 L 46.660156 34.800781 C 46.878906 35.117188 47.136719 35.398438 47.421875 35.648438 C 46.636719 36.558594 46.671875 38.046875 47.164062 39.121094 " fill-opacity="1" fill-rule="nonzero"/></g><path fill="rgb(68.629456%, 87.059021%, 36.859131%)" d="M 49.292969 27.480469 C 46.226562 26.445312 42.4375 27.691406 41.367188 31.664062 C 40.933594 30.246094 41.136719 28.621094 42.128906 27.328125 C 43.984375 24.910156 47.539062 24.988281 49.292969 27.480469 " fill-opacity="1" fill-rule="nonzero"/><path fill="rgb(47.059631%, 79.998779%, 37.649536%)" d="M 49.292969 27.480469 C 45.890625 27.535156 43.554688 30.230469 43.199219 34.167969 C 42.304688 33.566406 41.675781 32.667969 41.367188 31.664062 C 42.4375 27.691406 46.226562 26.445312 49.292969 27.480469 " fill-opacity="1" fill-rule="nonzero"/><path fill="rgb(33.729553%, 76.078796%, 41.958618%)" d="M 49.292969 27.480469 C 49.238281 27.496094 49.1875 27.507812 49.132812 27.523438 C 47.226562 28.046875 45.792969 29.863281 45.792969 32.042969 C 45.792969 33.074219 46.113281 34.027344 46.65625 34.800781 C 45.878906 34.988281 45.035156 34.953125 44.25 34.683594 C 43.867188 34.554688 43.515625 34.378906 43.199219 34.167969 C 43.554688 30.230469 45.890625 27.535156 49.292969 27.480469 " fill-opacity="1" fill-rule="nonzero"/><path fill="rgb(41.569519%, 79.60968%, 63.139343%)" d="M 52.46875 34.53125 C 52.097656 34.519531 51.730469 34.417969 51.394531 34.242188 L 51.390625 34.242188 C 50.8125 33.929688 50.359375 33.402344 50.140625 32.757812 C 50.140625 32.753906 50.136719 32.753906 50.136719 32.753906 C 50.070312 32.546875 49.9375 32.371094 49.765625 32.25 C 49.433594 31.847656 48.234375 31.402344 47.367188 32.597656 C 46.433594 33.882812 47.402344 35.609375 47.421875 35.648438 C 47.136719 35.398438 46.878906 35.117188 46.660156 34.800781 L 46.65625 34.800781 C 46.367188 34.453125 46.144531 34.070312 45.992188 33.667969 C 45.957031 32.539062 46.183594 30.464844 48.1875 29.648438 C 50.027344 28.902344 50.601562 31.027344 51.621094 31.464844 C 51.917969 31.589844 52.207031 31.578125 52.441406 31.519531 C 52.449219 31.582031 52.453125 31.644531 52.457031 31.707031 C 52.476562 31.9375 52.46875 31.8125 52.46875 34.53125 " fill-opacity="1" fill-rule="nonzero"/><path fill="rgb(45.878601%, 81.17981%, 64.709473%)" d="M 52.441406 31.519531 C 52.207031 31.578125 51.917969 31.589844 51.621094 31.464844 C 50.601562 31.027344 50.027344 28.902344 48.1875 29.648438 C 46.183594 30.464844 45.957031 32.539062 45.992188 33.667969 C 45 31.082031 46.71875 27.710938 49.292969 27.480469 C 50.945312 28.042969 52.242188 29.675781 52.441406 31.519531 " fill-opacity="1" fill-rule="nonzero"/><g clip-path="url(#id14)"><path fill="rgb(29.40979%, 76.078796%, 70.979309%)" d="M 53.648438 38.390625 C 53.085938 38.390625 52.558594 38.207031 52.132812 37.890625 C 53.460938 37.671875 54.324219 37.066406 54.777344 36.222656 C 55.058594 35.910156 55.199219 35.460938 55.105469 35 L 56.207031 35 C 56.613281 36.726562 55.355469 38.390625 53.648438 38.390625 " fill-opacity="1" fill-rule="nonzero"/></g><path fill="rgb(21.179199%, 55.288696%, 66.268921%)" d="M 54.777344 36.222656 C 54.324219 37.066406 53.460938 37.671875 52.132812 37.890625 C 51.707031 37.582031 51.375 37.144531 51.1875 36.632812 C 51.125 36.460938 51.078125 36.285156 51.050781 36.101562 C 51.605469 36.203125 52.175781 36.148438 52.65625 35.984375 C 52.902344 36.453125 53.503906 36.777344 54.113281 36.625 C 54.375 36.5625 54.601562 36.417969 54.777344 36.222656 " fill-opacity="1" fill-rule="nonzero"/><path fill="rgb(29.40979%, 76.078796%, 70.979309%)" d="M 54.554688 33.574219 C 54.304688 34.34375 53.941406 35.472656 52.746094 35.957031 C 51.378906 36.507812 49.792969 35.976562 48.902344 34.710938 C 48.425781 34.035156 48.289062 33.304688 48.289062 33.074219 C 48.289062 32.300781 49.105469 31.835938 49.730469 32.230469 C 49.921875 32.347656 50.066406 32.535156 50.136719 32.753906 C 50.136719 32.753906 50.140625 32.753906 50.140625 32.757812 C 50.359375 33.402344 50.8125 33.929688 51.390625 34.242188 L 51.394531 34.242188 C 52.46875 34.8125 53.777344 34.535156 54.554688 33.574219 " fill-opacity="1" fill-rule="nonzero"/><path fill="rgb(21.179199%, 55.288696%, 66.268921%)" d="M 49.765625 32.25 C 49.753906 32.242188 49.742188 32.238281 49.730469 32.230469 C 49.105469 31.835938 48.289062 32.300781 48.289062 33.074219 C 48.289062 33.289062 48.417969 34.023438 48.902344 34.710938 C 48.308594 34.839844 47.792969 35.175781 47.421875 35.648438 C 47.402344 35.609375 46.433594 33.882812 47.367188 32.597656 C 48.234375 31.402344 49.433594 31.847656 49.765625 32.25 " fill-opacity="1" fill-rule="nonzero"/></svg>