<?xml version="1.0" encoding="UTF-8"?><svg xmlns="http://www.w3.org/2000/svg" xmlns:xlink="http://www.w3.org/1999/xlink" contentScriptType="text/ecmascript" width="375pt" zoomAndPan="magnify" contentStyleType="text/css" viewBox="0 0 375 374.999991" height="374.999991pt" preserveAspectRatio="xMidYMid meet" version="1.2"><defs><clipPath xml:id="clip1" id="clip1"><path d="M 29 75.148438 L 337.789062 75.148438 L 337.789062 291 L 29 291 Z M 29 75.148438 "/></clipPath></defs><g xml:id="surface1" id="surface1"><rect x="0" width="375" y="0" height="374.999991" style="fill:rgb(100%,100%,100%);fill-opacity:1;stroke:none;"/><rect x="0" width="375" y="0" height="374.999991" style="fill:rgb(100%,100%,100%);fill-opacity:1;stroke:none;"/><rect x="0" width="375" y="0" height="374.999991" style="fill:rgb(100%,100%,100%);fill-opacity:1;stroke:none;"/><g clip-rule="nonzero" clip-path="url(#clip1)"><path style=" stroke:none;fill-rule:nonzero;fill:rgb(0%,0%,0%);fill-opacity:1;" d="M 335.652344 94.242188 C 334.449219 93.019531 332.824219 92.359375 331.113281 92.359375 L 314.578125 92.359375 C 314.546875 92.34375 314.539062 92.328125 314.511719 92.3125 C 293.621094 80.871094 270.515625 75.148438 247.417969 75.148438 C 225.449219 75.148438 203.492188 80.386719 183.429688 90.746094 C 163.359375 80.386719 141.390625 75.148438 119.425781 75.148438 C 96.347656 75.148438 73.234375 80.871094 52.347656 92.320312 C 52.324219 92.328125 52.308594 92.34375 52.285156 92.359375 L 35.75 92.359375 C 34.0625 92.359375 32.398438 93.042969 31.207031 94.234375 C 30.019531 95.421875 29.339844 97.082031 29.339844 98.765625 L 29.339844 284.453125 C 29.339844 286.167969 29.996094 287.765625 31.222656 288.988281 C 32.421875 290.183594 34.03125 290.847656 35.75 290.847656 L 183.398438 290.847656 C 183.414062 290.847656 183.414062 290.855469 183.429688 290.855469 L 331.113281 290.855469 C 332.824219 290.855469 334.433594 290.183594 335.652344 288.972656 C 336.855469 287.765625 337.53125 286.160156 337.53125 284.453125 L 337.53125 98.757812 C 337.53125 97.058594 336.855469 95.453125 335.652344 94.242188 Z M 304.996094 101.785156 C 304.996094 155.953125 304.996094 210.121094 304.996094 264.292969 C 286.703125 256.007812 267.054688 251.867188 247.417969 251.867188 C 227.769531 251.867188 208.128906 256.007812 189.847656 264.292969 L 189.847656 105.160156 C 189.847656 104.035156 189.847656 102.90625 189.847656 101.792969 C 207.90625 92.566406 227.652344 87.957031 247.417969 87.957031 C 267.15625 87.949219 286.917969 92.558594 304.996094 101.785156 Z M 177.019531 101.792969 C 177.003906 155.953125 177.003906 210.121094 177.011719 264.285156 C 158.71875 256.007812 139.0625 251.867188 119.425781 251.867188 C 99.777344 251.867188 80.121094 256.007812 61.847656 264.292969 C 61.847656 210.121094 61.847656 155.953125 61.847656 101.792969 C 79.9375 92.558594 99.671875 87.957031 119.425781 87.957031 C 139.171875 87.949219 158.917969 92.566406 177.019531 101.792969 Z M 42.160156 105.160156 L 49.027344 105.160156 C 49.019531 161.65625 49.019531 218.152344 49.027344 274.648438 C 49.027344 275.878906 49.394531 277.039062 50.035156 278.046875 L 42.160156 278.046875 Z M 119.425781 264.667969 C 138.792969 264.667969 158.164062 269.171875 175.960938 278.046875 L 62.894531 278.046875 C 80.683594 269.171875 100.039062 264.667969 119.425781 264.667969 Z M 247.417969 264.675781 C 266.785156 264.675781 286.148438 269.164062 303.953125 278.046875 L 190.894531 278.046875 C 208.660156 269.164062 228.039062 264.675781 247.417969 264.675781 Z M 324.6875 278.046875 L 316.828125 278.046875 C 317.460938 277.039062 317.839844 275.878906 317.839844 274.65625 C 317.839844 218.152344 317.839844 161.65625 317.839844 105.160156 L 324.6875 105.160156 Z M 324.6875 278.046875 "/></g></g></svg>