<svg xmlns="http://www.w3.org/2000/svg" xmlns:xlink="http://www.w3.org/1999/xlink" width="108" zoomAndPan="magnify" viewBox="0 0 81 93.749996" height="125" preserveAspectRatio="xMidYMid meet" version="1.0"><defs><clipPath id="id1"><path d="M 0.109375 0 L 80.890625 0 L 80.890625 93.5 L 0.109375 93.5 Z M 0.109375 0 " clip-rule="nonzero"/></clipPath><clipPath id="id2"><path d="M 51 13.207031 L 73.105469 13.207031 L 73.105469 38 L 51 38 Z M 51 13.207031 " clip-rule="nonzero"/></clipPath><clipPath id="id3"><path d="M 13 70 L 36 70 L 36 73.796875 L 13 73.796875 Z M 13 70 " clip-rule="nonzero"/></clipPath><clipPath id="id4"><path d="M 43 59 L 68 59 L 68 73.796875 L 43 73.796875 Z M 43 59 " clip-rule="nonzero"/></clipPath><clipPath id="id5"><path d="M 39 59 L 52 59 L 52 73.796875 L 39 73.796875 Z M 39 59 " clip-rule="nonzero"/></clipPath><clipPath id="id6"><path d="M 12.519531 44 L 37 44 L 37 73.796875 L 12.519531 73.796875 Z M 12.519531 44 " clip-rule="nonzero"/></clipPath><clipPath id="id7"><path d="M 37 58 L 69 58 L 69 73.796875 L 37 73.796875 Z M 37 58 " clip-rule="nonzero"/></clipPath></defs><g clip-path="url(#id1)"><path fill="rgb(100%, 100%, 100%)" d="M 0.109375 0 L 80.890625 0 L 80.890625 100.234375 L 0.109375 100.234375 Z M 0.109375 0 " fill-opacity="1" fill-rule="nonzero"/><path fill="rgb(100%, 100%, 100%)" d="M 0.109375 0 L 80.890625 0 L 80.890625 93.5 L 0.109375 93.5 Z M 0.109375 0 " fill-opacity="1" fill-rule="nonzero"/><path fill="rgb(100%, 74.119568%, 34.899902%)" d="M 0.109375 0 L 80.890625 0 L 80.890625 93.5 L 0.109375 93.5 Z M 0.109375 0 " fill-opacity="1" fill-rule="nonzero"/></g><g clip-path="url(#id2)"><path fill="rgb(100%, 79.998779%, 39.99939%)" d="M 73.003906 24.417969 C 73.003906 23.773438 72.945312 23.132812 72.828125 22.496094 C 72.710938 21.863281 72.539062 21.242188 72.308594 20.636719 C 72.078125 20.035156 71.792969 19.457031 71.457031 18.902344 C 71.121094 18.351562 70.738281 17.832031 70.304688 17.351562 C 69.875 16.867188 69.402344 16.425781 68.890625 16.027344 C 68.378906 15.628906 67.835938 15.28125 67.261719 14.984375 C 66.6875 14.683594 66.089844 14.4375 65.46875 14.246094 C 64.847656 14.054688 64.214844 13.921875 63.570312 13.84375 C 62.925781 13.769531 62.28125 13.75 61.632812 13.789062 C 60.984375 13.832031 60.34375 13.929688 59.714844 14.085938 C 59.085938 14.242188 58.472656 14.453125 57.882812 14.71875 C 57.289062 14.984375 56.726562 15.304688 56.195312 15.671875 C 55.660156 16.039062 55.167969 16.453125 54.707031 16.910156 C 54.25 17.371094 53.839844 17.867188 53.472656 18.398438 C 53.105469 18.929688 52.789062 19.492188 52.523438 20.082031 C 52.257812 20.671875 52.050781 21.28125 51.898438 21.910156 C 51.746094 22.539062 51.648438 23.171875 51.613281 23.820312 C 51.574219 24.464844 51.597656 25.105469 51.679688 25.746094 C 51.757812 26.386719 51.898438 27.015625 52.09375 27.632812 C 52.289062 28.25 52.539062 28.84375 52.84375 29.414062 C 53.148438 29.984375 53.5 30.523438 53.90625 31.027344 C 54.308594 31.535156 54.753906 32.003906 55.242188 32.429688 C 55.730469 32.855469 56.25 33.234375 56.808594 33.5625 C 57.367188 33.894531 57.949219 34.175781 58.558594 34.398438 C 58.457031 35.542969 58.003906 36.523438 57.199219 37.34375 C 57.199219 37.34375 60.714844 37.292969 62.625 35.0625 C 63.3125 35.042969 63.996094 34.957031 64.667969 34.804688 C 65.339844 34.652344 65.988281 34.4375 66.621094 34.160156 C 67.25 33.886719 67.847656 33.550781 68.414062 33.160156 C 68.980469 32.769531 69.503906 32.324219 69.984375 31.832031 C 70.464844 31.339844 70.890625 30.808594 71.269531 30.234375 C 71.644531 29.660156 71.960938 29.054688 72.222656 28.417969 C 72.480469 27.785156 72.675781 27.128906 72.808594 26.457031 C 72.9375 25.785156 73.003906 25.105469 73.003906 24.417969 Z M 73.003906 24.417969 " fill-opacity="1" fill-rule="nonzero"/></g><path fill="rgb(100%, 71.369934%, 33.329773%)" d="M 41.617188 24.921875 C 41.617188 24.921875 40.117188 31.21875 44.761719 33.636719 C 44.761719 33.636719 47.902344 28.402344 41.617188 24.921875 Z M 41.617188 24.921875 " fill-opacity="1" fill-rule="nonzero"/><path fill="rgb(100%, 71.369934%, 33.329773%)" d="M 43.507812 36.289062 C 43.507812 36.289062 40.519531 35.25 40.164062 30.175781 C 40.164062 30.175781 43.222656 29.769531 44.550781 32.6875 C 44.550781 32.6875 45.707031 35.746094 45.617188 37.46875 Z M 43.507812 36.289062 " fill-opacity="1" fill-rule="nonzero"/><path fill="rgb(100%, 71.369934%, 33.329773%)" d="M 44.550781 32.6875 C 44.550781 32.6875 44.460938 30.398438 46.738281 28.679688 C 46.738281 28.679688 49.679688 33.976562 45.765625 38.816406 C 45.5 36.410156 45.277344 34.847656 44.550781 32.6875 Z M 44.550781 32.6875 " fill-opacity="1" fill-rule="nonzero"/><path fill="rgb(100%, 71.369934%, 33.329773%)" d="M 45.925781 44.449219 C 45.925781 44.449219 41.804688 40.378906 40.773438 35.199219 C 40.773438 35.199219 45.699219 34.625 45.898438 39.835938 Z M 45.925781 44.449219 " fill-opacity="1" fill-rule="nonzero"/><path fill="rgb(100%, 71.369934%, 33.329773%)" d="M 45.648438 39.824219 C 45.648438 39.824219 45.332031 35.125 49.140625 34.144531 C 49.140625 34.144531 51.726562 40.539062 45.925781 44.449219 Z M 45.648438 39.824219 " fill-opacity="1" fill-rule="nonzero"/><path fill="rgb(100%, 71.369934%, 33.329773%)" d="M 41.167969 39.535156 C 41.167969 39.535156 46.175781 40.050781 45.746094 45.324219 C 45.746094 45.324219 45.550781 47.839844 44.65625 49.867188 C 44.65625 49.867188 41.1875 44.320312 41.167969 39.535156 Z M 41.167969 39.535156 " fill-opacity="1" fill-rule="nonzero"/><path fill="rgb(100%, 71.369934%, 33.329773%)" d="M 45.785156 45.179688 C 45.785156 45.179688 46.167969 40.84375 50.757812 40.050781 C 50.757812 40.050781 51.894531 47.078125 44.972656 49.589844 Z M 45.785156 45.179688 " fill-opacity="1" fill-rule="nonzero"/><path fill="rgb(100%, 71.369934%, 33.329773%)" d="M 40.441406 44.332031 C 40.441406 44.332031 44.972656 45.570312 44.40625 50.5625 L 42.09375 55.3125 C 42.09375 55.3125 39.15625 49.46875 40.441406 44.332031 Z M 40.441406 44.332031 " fill-opacity="1" fill-rule="nonzero"/><path fill="rgb(100%, 71.369934%, 33.329773%)" d="M 44.40625 50.5625 C 44.40625 50.5625 46.054688 46.625 50.519531 46.953125 C 50.519531 46.953125 51.183594 53.453125 42.746094 54.589844 Z M 44.40625 50.5625 " fill-opacity="1" fill-rule="nonzero"/><g clip-path="url(#id3)"><path fill="rgb(92.939758%, 43.139648%, 57.249451%)" d="M 14.507812 70.777344 L 34.722656 70.777344 C 34.878906 70.777344 35.035156 70.808594 35.179688 70.867188 C 35.328125 70.929688 35.457031 71.015625 35.570312 71.125 C 35.683594 71.238281 35.769531 71.367188 35.832031 71.515625 C 35.894531 71.660156 35.921875 71.8125 35.921875 71.972656 C 35.921875 72.132812 35.894531 72.285156 35.832031 72.429688 C 35.769531 72.578125 35.683594 72.707031 35.570312 72.820312 C 35.457031 72.929688 35.328125 73.015625 35.179688 73.078125 C 35.035156 73.136719 34.878906 73.167969 34.722656 73.167969 L 14.507812 73.167969 C 14.347656 73.167969 14.195312 73.136719 14.046875 73.078125 C 13.898438 73.015625 13.769531 72.929688 13.65625 72.820312 C 13.542969 72.707031 13.457031 72.578125 13.398438 72.429688 C 13.335938 72.285156 13.304688 72.132812 13.304688 71.972656 C 13.304688 71.8125 13.335938 71.660156 13.398438 71.515625 C 13.457031 71.367188 13.542969 71.238281 13.65625 71.125 C 13.769531 71.015625 13.898438 70.929688 14.046875 70.867188 C 14.195312 70.808594 14.347656 70.777344 14.507812 70.777344 Z M 14.507812 70.777344 " fill-opacity="1" fill-rule="nonzero"/></g><path fill="rgb(92.939758%, 43.139648%, 57.249451%)" d="M 14.507812 44.675781 L 34.722656 44.675781 C 34.878906 44.675781 35.035156 44.707031 35.179688 44.769531 C 35.328125 44.828125 35.457031 44.914062 35.570312 45.027344 C 35.683594 45.140625 35.769531 45.269531 35.832031 45.414062 C 35.894531 45.5625 35.921875 45.714844 35.921875 45.875 C 35.921875 46.03125 35.894531 46.183594 35.832031 46.332031 C 35.769531 46.476562 35.683594 46.605469 35.570312 46.71875 C 35.457031 46.832031 35.328125 46.917969 35.179688 46.980469 C 35.035156 47.039062 34.878906 47.070312 34.722656 47.070312 L 14.507812 47.070312 C 14.347656 47.070312 14.195312 47.039062 14.046875 46.980469 C 13.898438 46.917969 13.769531 46.832031 13.65625 46.71875 C 13.542969 46.605469 13.457031 46.476562 13.398438 46.332031 C 13.335938 46.183594 13.304688 46.03125 13.304688 45.875 C 13.304688 45.714844 13.335938 45.5625 13.398438 45.414062 C 13.457031 45.269531 13.542969 45.140625 13.65625 45.027344 C 13.769531 44.914062 13.898438 44.828125 14.046875 44.769531 C 14.195312 44.707031 14.347656 44.675781 14.507812 44.675781 Z M 14.507812 44.675781 " fill-opacity="1" fill-rule="nonzero"/><path fill="rgb(92.939758%, 43.139648%, 57.249451%)" d="M 34.113281 48.738281 C 32.84375 52.953125 33.917969 56.125 34.746094 57.738281 C 35.179688 58.59375 35.238281 59.476562 34.917969 60.378906 C 32.722656 66.730469 34.722656 70.777344 34.722656 70.777344 L 18.503906 70.777344 C 18.503906 70.777344 16.34375 66.050781 15.714844 59.359375 C 15.347656 55.429688 18.78125 52.652344 16.628906 47.605469 Z M 34.113281 48.738281 " fill-opacity="1" fill-rule="nonzero"/><path fill="rgb(26.269531%, 28.239441%, 36.859131%)" d="M 18.976562 60.125 C 18.71875 59.320312 18.722656 58.515625 18.992188 57.710938 C 19.660156 55.660156 19.644531 53.496094 19.5 51.980469 C 19.472656 51.714844 19.5 51.453125 19.578125 51.199219 C 19.65625 50.941406 19.78125 50.710938 19.953125 50.503906 C 20.125 50.300781 20.332031 50.132812 20.570312 50.011719 C 20.808594 49.886719 21.058594 49.8125 21.328125 49.789062 L 34.117188 48.738281 C 34.285156 48.167969 34.488281 47.613281 34.722656 47.070312 L 14.507812 47.070312 C 16.660156 52.113281 15.414062 55.917969 14.484375 57.738281 C 14.050781 58.59375 13.992188 59.472656 14.308594 60.378906 C 16.507812 66.730469 14.507812 70.777344 14.507812 70.777344 L 18.503906 70.777344 C 19.230469 69.089844 19.636719 67.328125 19.71875 65.492188 C 19.796875 63.660156 19.550781 61.871094 18.976562 60.125 Z M 18.976562 60.125 " fill-opacity="1" fill-rule="nonzero"/><g clip-path="url(#id4)"><path fill="rgb(100%, 100%, 100%)" d="M 46.453125 73.167969 L 67.109375 73.167969 C 67.191406 73.167969 67.238281 73.128906 67.25 73.054688 C 67.265625 72.976562 67.234375 72.921875 67.160156 72.894531 C 65.53125 72.296875 61.914062 70.519531 58.5625 65.824219 C 58.113281 65.195312 57.707031 64.539062 57.320312 63.871094 C 56.65625 62.714844 54.707031 59.8125 51.867188 59.636719 C 51.867188 59.636719 47.445312 59.507812 44.453125 66.402344 C 42.039062 71.976562 46.453125 73.167969 46.453125 73.167969 Z M 46.453125 73.167969 " fill-opacity="1" fill-rule="nonzero"/></g><g clip-path="url(#id5)"><path fill="rgb(26.269531%, 28.239441%, 36.859131%)" d="M 47.171875 64.808594 C 48.53125 61.652344 50.558594 60.238281 51.867188 59.640625 C 51.777344 59.632812 51.6875 59.628906 51.59375 59.628906 C 51.59375 59.628906 47.175781 59.503906 44.1875 66.398438 C 42.554688 70.160156 40.511719 71.929688 39.355469 72.679688 C 39.242188 72.75 39.207031 72.851562 39.242188 72.976562 C 39.28125 73.105469 39.367188 73.167969 39.5 73.167969 L 46.453125 73.167969 C 44.507812 70.03125 47.171875 64.808594 47.171875 64.808594 Z M 47.171875 64.808594 " fill-opacity="1" fill-rule="nonzero"/></g><path fill="rgb(74.119568%, 87.059021%, 100%)" d="M 27.238281 25.621094 C 26.925781 27.433594 25.953125 30.246094 22.921875 31.324219 C 22.816406 31.359375 22.765625 31.429688 22.769531 31.542969 C 22.769531 31.652344 22.824219 31.722656 22.929688 31.753906 C 24.292969 32.164062 26.921875 33.402344 27.652344 36.9375 C 27.671875 37.054688 27.742188 37.117188 27.863281 37.121094 C 27.984375 37.125 28.058594 37.066406 28.089844 36.953125 C 28.507812 35.363281 29.589844 32.917969 32.386719 31.679688 C 32.480469 31.636719 32.527344 31.566406 32.523438 31.460938 C 32.519531 31.359375 32.464844 31.292969 32.367188 31.261719 C 31.164062 30.871094 28.675781 29.601562 27.679688 25.605469 C 27.652344 25.488281 27.574219 25.429688 27.453125 25.433594 C 27.328125 25.4375 27.257812 25.5 27.238281 25.621094 Z M 27.238281 25.621094 " fill-opacity="1" fill-rule="nonzero"/><path fill="rgb(74.119568%, 87.059021%, 100%)" d="M 60.238281 51.117188 C 59.953125 52.605469 59.128906 54.773438 56.773438 55.660156 C 56.675781 55.695312 56.625 55.769531 56.628906 55.875 C 56.628906 55.980469 56.683594 56.050781 56.785156 56.082031 C 57.257812 56.226562 57.703125 56.429688 58.125 56.691406 C 58.542969 56.957031 58.917969 57.269531 59.253906 57.632812 C 59.585938 57.996094 59.867188 58.398438 60.09375 58.839844 C 60.316406 59.277344 60.480469 59.738281 60.582031 60.222656 C 60.605469 60.335938 60.675781 60.394531 60.792969 60.398438 C 60.910156 60.398438 60.984375 60.347656 61.015625 60.234375 C 61.386719 58.929688 62.285156 57.035156 64.46875 56.027344 C 64.5625 55.988281 64.605469 55.914062 64.601562 55.816406 C 64.597656 55.714844 64.546875 55.648438 64.453125 55.613281 C 63.441406 55.265625 61.511719 54.207031 60.675781 51.101562 C 60.648438 50.984375 60.570312 50.925781 60.449219 50.933594 C 60.328125 50.9375 60.257812 51 60.238281 51.117188 Z M 60.238281 51.117188 " fill-opacity="1" fill-rule="nonzero"/><path fill="rgb(100%, 71.369934%, 33.329773%)" d="M 38.554688 48.789062 C 38.554688 48.789062 43.347656 51.140625 41.632812 56.210938 L 40.703125 58.214844 C 40.703125 58.214844 36.324219 54.554688 38.554688 48.789062 Z M 38.554688 48.789062 " fill-opacity="1" fill-rule="nonzero"/><path fill="rgb(100%, 71.369934%, 33.329773%)" d="M 41.632812 56.210938 C 41.632812 56.210938 43.703125 51.351562 49.308594 53.230469 C 49.308594 53.230469 47.875 59.546875 41.09375 57.375 Z M 41.632812 56.210938 " fill-opacity="1" fill-rule="nonzero"/><path fill="rgb(26.269531%, 28.239441%, 36.859131%)" d="M 31.730469 59.320312 C 31.558594 59.320312 31.410156 59.265625 31.285156 59.148438 C 31.160156 59.035156 31.09375 58.890625 31.078125 58.722656 C 31.066406 58.554688 31.113281 58.402344 31.21875 58.269531 C 31.324219 58.136719 31.460938 58.054688 31.628906 58.03125 C 31.777344 58.007812 31.925781 57.984375 32.074219 57.957031 C 32.253906 57.925781 32.417969 57.964844 32.566406 58.066406 C 32.714844 58.171875 32.804688 58.3125 32.832031 58.492188 C 32.863281 58.671875 32.824219 58.832031 32.71875 58.980469 C 32.609375 59.125 32.46875 59.214844 32.285156 59.242188 C 32.136719 59.265625 31.984375 59.289062 31.832031 59.3125 C 31.796875 59.320312 31.765625 59.320312 31.730469 59.320312 Z M 31.730469 59.320312 " fill-opacity="1" fill-rule="nonzero"/><path fill="rgb(26.269531%, 28.239441%, 36.859131%)" d="M 28.757812 58.40625 C 24.636719 58.867188 20.515625 58.839844 16.398438 58.320312 L 16.398438 59.636719 C 18.503906 59.90625 20.613281 60.039062 22.734375 60.03125 C 24.796875 60.027344 26.851562 59.917969 28.898438 59.699219 C 29.078125 59.679688 29.226562 59.601562 29.339844 59.460938 C 29.453125 59.320312 29.5 59.164062 29.480469 58.984375 C 29.464844 58.804688 29.382812 58.65625 29.242188 58.546875 C 29.101562 58.433594 28.941406 58.386719 28.757812 58.40625 Z M 28.757812 58.40625 " fill-opacity="1" fill-rule="nonzero"/><path fill="rgb(90.979004%, 48.239136%, 19.219971%)" d="M 39.394531 62.964844 C 39.300781 62.964844 39.207031 62.945312 39.117188 62.902344 C 39.03125 62.863281 38.957031 62.804688 38.894531 62.730469 C 38.832031 62.65625 38.789062 62.574219 38.765625 62.480469 C 38.738281 62.386719 38.734375 62.292969 38.753906 62.199219 C 39.269531 59.355469 40.910156 56.042969 42.195312 53.761719 C 43.371094 51.695312 44.222656 49.5 44.746094 47.179688 C 45.269531 44.859375 45.441406 42.515625 45.269531 40.144531 C 45.082031 37.777344 44.664062 35.453125 44.015625 33.171875 C 43.964844 33 43.984375 32.835938 44.074219 32.679688 C 44.160156 32.523438 44.292969 32.417969 44.464844 32.371094 C 44.636719 32.320312 44.800781 32.339844 44.957031 32.425781 C 45.117188 32.511719 45.21875 32.644531 45.269531 32.8125 C 45.945312 35.183594 46.378906 37.59375 46.570312 40.046875 C 46.753906 42.546875 46.570312 45.015625 46.019531 47.460938 C 45.46875 49.90625 44.574219 52.21875 43.335938 54.398438 C 42.097656 56.589844 40.523438 59.765625 40.039062 62.429688 C 40.011719 62.585938 39.9375 62.710938 39.8125 62.8125 C 39.691406 62.914062 39.554688 62.964844 39.394531 62.964844 Z M 39.394531 62.964844 " fill-opacity="1" fill-rule="nonzero"/><path fill="rgb(74.119568%, 87.059021%, 100%)" d="M 18.820312 30.941406 L 18.5 30.941406 C 18.320312 30.941406 18.167969 31.003906 18.039062 31.132812 C 17.910156 31.257812 17.847656 31.410156 17.847656 31.589844 C 17.847656 31.769531 17.910156 31.921875 18.039062 32.050781 C 18.167969 32.175781 18.320312 32.238281 18.5 32.238281 L 18.820312 32.238281 C 19 32.238281 19.15625 32.175781 19.28125 32.050781 C 19.410156 31.921875 19.472656 31.769531 19.472656 31.589844 C 19.472656 31.410156 19.410156 31.257812 19.28125 31.132812 C 19.15625 31.003906 19 30.941406 18.820312 30.941406 Z M 18.820312 30.941406 " fill-opacity="1" fill-rule="nonzero"/><path fill="rgb(71.759033%, 78.42865%, 80.778503%)" d="M 55.476562 67.433594 C 55.476562 67.65625 55.398438 67.847656 55.238281 68.007812 C 55.078125 68.164062 54.886719 68.246094 54.660156 68.246094 C 54.4375 68.246094 54.242188 68.164062 54.085938 68.007812 C 53.925781 67.847656 53.84375 67.65625 53.84375 67.433594 C 53.84375 67.207031 53.925781 67.015625 54.085938 66.859375 C 54.242188 66.699219 54.4375 66.621094 54.660156 66.621094 C 54.886719 66.621094 55.078125 66.699219 55.238281 66.859375 C 55.398438 67.015625 55.476562 67.207031 55.476562 67.433594 Z M 55.476562 67.433594 " fill-opacity="1" fill-rule="nonzero"/><path fill="rgb(71.759033%, 78.42865%, 80.778503%)" d="M 53.84375 63.882812 C 53.84375 64.109375 53.765625 64.300781 53.605469 64.460938 C 53.445312 64.617188 53.253906 64.695312 53.027344 64.695312 C 52.804688 64.695312 52.609375 64.617188 52.453125 64.460938 C 52.292969 64.300781 52.210938 64.109375 52.210938 63.882812 C 52.210938 63.660156 52.292969 63.46875 52.453125 63.308594 C 52.609375 63.152344 52.804688 63.074219 53.027344 63.074219 C 53.253906 63.074219 53.445312 63.152344 53.605469 63.308594 C 53.765625 63.46875 53.84375 63.660156 53.84375 63.882812 Z M 53.84375 63.882812 " fill-opacity="1" fill-rule="nonzero"/><path fill="rgb(71.759033%, 78.42865%, 80.778503%)" d="M 51.347656 66.398438 C 51.347656 66.625 51.265625 66.816406 51.109375 66.972656 C 50.949219 67.132812 50.757812 67.210938 50.53125 67.210938 C 50.304688 67.210938 50.113281 67.132812 49.953125 66.972656 C 49.792969 66.816406 49.714844 66.625 49.714844 66.398438 C 49.714844 66.175781 49.792969 65.984375 49.953125 65.824219 C 50.113281 65.667969 50.304688 65.585938 50.53125 65.585938 C 50.757812 65.585938 50.949219 65.667969 51.109375 65.824219 C 51.265625 65.984375 51.347656 66.175781 51.347656 66.398438 Z M 51.347656 66.398438 " fill-opacity="1" fill-rule="nonzero"/><path fill="rgb(100%, 100%, 100%)" d="M 63.265625 23.78125 L 61.714844 23.78125 C 61.558594 23.78125 61.40625 23.753906 61.261719 23.695312 C 61.113281 23.636719 60.984375 23.550781 60.871094 23.441406 C 60.761719 23.332031 60.675781 23.203125 60.613281 23.058594 C 60.550781 22.914062 60.523438 22.765625 60.523438 22.609375 C 60.523438 22.449219 60.550781 22.300781 60.613281 22.15625 C 60.675781 22.011719 60.761719 21.882812 60.871094 21.773438 C 60.984375 21.664062 61.113281 21.578125 61.261719 21.519531 C 61.40625 21.460938 61.558594 21.433594 61.714844 21.433594 L 63.316406 21.433594 C 63.554688 21.433594 63.773438 21.503906 63.964844 21.640625 C 64.160156 21.777344 64.300781 21.957031 64.378906 22.179688 C 64.4375 22.351562 64.550781 22.472656 64.714844 22.550781 C 64.875 22.628906 65.042969 22.636719 65.214844 22.578125 C 65.382812 22.515625 65.507812 22.40625 65.585938 22.242188 C 65.664062 22.082031 65.671875 21.914062 65.609375 21.746094 C 65.4375 21.261719 65.140625 20.875 64.71875 20.578125 C 64.300781 20.285156 63.832031 20.136719 63.316406 20.136719 L 63.144531 20.136719 L 63.144531 19.578125 C 63.144531 19.398438 63.078125 19.242188 62.953125 19.117188 C 62.824219 18.992188 62.671875 18.925781 62.492188 18.925781 C 62.308594 18.925781 62.15625 18.992188 62.027344 19.117188 C 61.902344 19.242188 61.835938 19.398438 61.835938 19.578125 L 61.835938 20.136719 L 61.714844 20.136719 C 61.386719 20.132812 61.066406 20.191406 60.757812 20.316406 C 60.453125 20.441406 60.179688 20.621094 59.945312 20.851562 C 59.710938 21.082031 59.527344 21.351562 59.402344 21.65625 C 59.273438 21.960938 59.210938 22.277344 59.210938 22.609375 C 59.210938 22.9375 59.273438 23.253906 59.402344 23.558594 C 59.527344 23.863281 59.710938 24.132812 59.945312 24.363281 C 60.179688 24.59375 60.453125 24.773438 60.757812 24.898438 C 61.066406 25.023438 61.386719 25.082031 61.714844 25.078125 L 63.265625 25.078125 C 63.421875 25.082031 63.570312 25.113281 63.710938 25.171875 C 63.855469 25.234375 63.980469 25.320312 64.089844 25.429688 C 64.199219 25.539062 64.28125 25.664062 64.339844 25.808594 C 64.398438 25.949219 64.429688 26.097656 64.429688 26.253906 C 64.429688 26.40625 64.398438 26.554688 64.339844 26.699219 C 64.28125 26.839844 64.199219 26.96875 64.089844 27.078125 C 63.980469 27.1875 63.855469 27.273438 63.710938 27.332031 C 63.570312 27.394531 63.421875 27.425781 63.265625 27.425781 L 61.664062 27.425781 C 61.4375 27.425781 61.230469 27.363281 61.042969 27.238281 C 60.851562 27.117188 60.714844 26.949219 60.625 26.742188 C 60.554688 26.578125 60.4375 26.460938 60.269531 26.394531 C 60.101562 26.328125 59.9375 26.328125 59.769531 26.398438 C 59.605469 26.46875 59.488281 26.585938 59.421875 26.75 C 59.351562 26.917969 59.355469 27.082031 59.421875 27.25 C 59.613281 27.695312 59.914062 28.054688 60.320312 28.324219 C 60.726562 28.59375 61.175781 28.726562 61.664062 28.726562 L 61.839844 28.726562 L 61.839844 29.285156 C 61.839844 29.464844 61.902344 29.617188 62.03125 29.742188 C 62.15625 29.871094 62.3125 29.933594 62.492188 29.933594 C 62.671875 29.933594 62.824219 29.871094 62.953125 29.742188 C 63.082031 29.617188 63.144531 29.464844 63.144531 29.285156 L 63.144531 28.726562 L 63.265625 28.726562 C 63.59375 28.722656 63.90625 28.660156 64.210938 28.53125 C 64.511719 28.40625 64.777344 28.226562 65.007812 27.996094 C 65.238281 27.761719 65.417969 27.496094 65.542969 27.195312 C 65.667969 26.894531 65.730469 26.578125 65.730469 26.253906 C 65.730469 25.925781 65.667969 25.613281 65.542969 25.3125 C 65.417969 25.011719 65.238281 24.742188 65.007812 24.511719 C 64.777344 24.28125 64.511719 24.101562 64.210938 23.976562 C 63.90625 23.847656 63.59375 23.785156 63.265625 23.78125 Z M 63.265625 23.78125 " fill-opacity="1" fill-rule="nonzero"/><path fill="rgb(26.269531%, 28.239441%, 36.859131%)" d="M 32.152344 57.933594 C 32.003906 57.957031 31.855469 57.980469 31.707031 58.003906 C 31.539062 58.03125 31.402344 58.109375 31.296875 58.242188 C 31.191406 58.375 31.144531 58.527344 31.160156 58.695312 C 31.171875 58.863281 31.242188 59.007812 31.367188 59.121094 C 31.492188 59.238281 31.640625 59.296875 31.808594 59.296875 C 31.84375 59.296875 32.214844 59.238281 32.367188 59.214844 C 32.542969 59.183594 32.683594 59.09375 32.785156 58.949219 C 32.886719 58.804688 32.925781 58.644531 32.894531 58.46875 C 32.867188 58.292969 32.78125 58.152344 32.636719 58.050781 C 32.492188 57.945312 32.332031 57.90625 32.152344 57.933594 Z M 32.152344 57.933594 " fill-opacity="1" fill-rule="nonzero"/><g clip-path="url(#id6)"><path fill="rgb(26.269531%, 28.239441%, 36.859131%)" d="M 34.800781 73.792969 C 35.027344 73.792969 35.242188 73.753906 35.457031 73.671875 C 35.667969 73.59375 35.855469 73.480469 36.027344 73.332031 C 36.195312 73.183594 36.332031 73.007812 36.4375 72.8125 C 36.542969 72.613281 36.613281 72.402344 36.640625 72.179688 C 36.667969 71.957031 36.65625 71.734375 36.601562 71.515625 C 36.550781 71.296875 36.460938 71.097656 36.332031 70.910156 C 36.207031 70.726562 36.050781 70.566406 35.867188 70.4375 C 35.683594 70.308594 35.480469 70.214844 35.261719 70.160156 C 34.898438 69.183594 33.859375 65.636719 35.613281 60.566406 C 35.988281 59.488281 35.921875 58.4375 35.40625 57.417969 C 34.546875 55.742188 33.40625 52.265625 35.265625 47.632812 C 35.484375 47.578125 35.683594 47.484375 35.867188 47.355469 C 36.054688 47.226562 36.207031 47.066406 36.335938 46.882812 C 36.460938 46.695312 36.550781 46.492188 36.605469 46.273438 C 36.65625 46.058594 36.667969 45.835938 36.640625 45.613281 C 36.609375 45.390625 36.542969 45.179688 36.4375 44.980469 C 36.332031 44.785156 36.195312 44.609375 36.027344 44.460938 C 35.855469 44.3125 35.667969 44.199219 35.453125 44.121094 C 35.242188 44.042969 35.027344 44 34.800781 44 L 14.585938 44 C 14.359375 44 14.140625 44.042969 13.929688 44.121094 C 13.71875 44.199219 13.53125 44.3125 13.359375 44.460938 C 13.191406 44.609375 13.054688 44.785156 12.949219 44.980469 C 12.84375 45.179688 12.773438 45.390625 12.746094 45.613281 C 12.71875 45.835938 12.730469 46.058594 12.78125 46.273438 C 12.835938 46.492188 12.925781 46.695312 13.050781 46.882812 C 13.175781 47.066406 13.332031 47.226562 13.515625 47.355469 C 13.703125 47.484375 13.902344 47.578125 14.121094 47.632812 C 15.980469 52.265625 14.839844 55.742188 13.980469 57.417969 C 13.824219 57.722656 13.710938 58.042969 13.640625 58.378906 C 13.636719 58.394531 13.628906 58.40625 13.628906 58.421875 C 13.621094 58.445312 13.621094 58.46875 13.617188 58.492188 C 13.488281 59.195312 13.539062 59.886719 13.773438 60.566406 C 15.519531 65.625 14.511719 69.128906 14.125 70.160156 C 13.90625 70.214844 13.703125 70.308594 13.519531 70.4375 C 13.335938 70.566406 13.179688 70.722656 13.050781 70.910156 C 12.925781 71.097656 12.835938 71.296875 12.78125 71.515625 C 12.730469 71.734375 12.714844 71.957031 12.746094 72.179688 C 12.773438 72.402344 12.839844 72.613281 12.945312 72.8125 C 13.050781 73.011719 13.1875 73.183594 13.359375 73.332031 C 13.527344 73.480469 13.71875 73.59375 13.929688 73.671875 C 14.140625 73.753906 14.359375 73.792969 14.585938 73.792969 Z M 34.378906 60.140625 C 32.71875 64.941406 33.359375 68.472656 33.863281 70.101562 L 19.542969 70.101562 C 20.132812 68.457031 20.4375 66.761719 20.460938 65.019531 C 20.484375 63.273438 20.226562 61.574219 19.683594 59.914062 C 20.625 59.96875 21.671875 60.003906 22.8125 60.003906 C 24.875 60.003906 26.929688 59.894531 28.976562 59.671875 C 29.15625 59.65625 29.304688 59.578125 29.417969 59.4375 C 29.535156 59.296875 29.582031 59.136719 29.5625 58.957031 C 29.542969 58.777344 29.460938 58.632812 29.320312 58.519531 C 29.179688 58.40625 29.019531 58.359375 28.839844 58.382812 C 25.746094 58.714844 22.648438 58.785156 19.542969 58.59375 C 19.566406 58.351562 19.617188 58.117188 19.691406 57.886719 C 20.402344 55.707031 20.375 53.425781 20.230469 51.894531 C 20.191406 51.515625 20.292969 51.179688 20.539062 50.886719 C 20.78125 50.601562 21.085938 50.441406 21.460938 50.414062 L 33.324219 49.4375 C 32.390625 53.414062 33.429688 56.425781 34.242188 58.007812 C 34.589844 58.699219 34.636719 59.410156 34.378906 60.140625 Z M 15.007812 60.140625 C 14.917969 59.886719 14.871094 59.625 14.855469 59.359375 C 15.558594 59.488281 16.734375 59.675781 18.308594 59.8125 C 18.339844 59.980469 18.382812 60.140625 18.4375 60.304688 C 18.964844 61.902344 19.203125 63.542969 19.152344 65.226562 C 19.101562 66.910156 18.765625 68.535156 18.144531 70.101562 L 15.519531 70.101562 C 16 68.519531 16.667969 64.945312 15.007812 60.140625 Z M 14.585938 45.300781 L 34.800781 45.300781 C 34.953125 45.300781 35.082031 45.355469 35.1875 45.460938 C 35.296875 45.566406 35.347656 45.695312 35.347656 45.847656 C 35.347656 46 35.296875 46.128906 35.1875 46.234375 C 35.082031 46.339844 34.953125 46.394531 34.800781 46.394531 L 14.585938 46.394531 C 14.433594 46.394531 14.304688 46.339844 14.199219 46.234375 C 14.089844 46.128906 14.035156 46 14.035156 45.847656 C 14.035156 45.695312 14.089844 45.566406 14.199219 45.460938 C 14.304688 45.355469 14.433594 45.300781 14.585938 45.300781 Z M 15.144531 58.007812 C 16.070312 56.203125 17.292969 52.535156 15.542969 47.691406 L 33.84375 47.691406 C 33.792969 47.828125 33.746094 47.964844 33.703125 48.101562 L 21.351562 49.117188 C 20.996094 49.148438 20.664062 49.246094 20.347656 49.410156 C 20.03125 49.570312 19.757812 49.789062 19.53125 50.0625 C 19.300781 50.335938 19.136719 50.640625 19.03125 50.980469 C 18.925781 51.320312 18.890625 51.664062 18.925781 52.015625 C 19.0625 53.425781 19.089844 55.519531 18.449219 57.484375 C 18.34375 57.8125 18.273438 58.148438 18.238281 58.492188 C 16.816406 58.359375 15.75 58.195312 15.109375 58.078125 C 15.121094 58.054688 15.128906 58.03125 15.144531 58.007812 Z M 14.035156 71.945312 C 14.035156 71.796875 14.089844 71.667969 14.199219 71.558594 C 14.304688 71.453125 14.433594 71.398438 14.585938 71.398438 L 34.800781 71.398438 C 34.953125 71.398438 35.082031 71.453125 35.1875 71.558594 C 35.296875 71.667969 35.347656 71.796875 35.347656 71.945312 C 35.347656 72.097656 35.296875 72.226562 35.1875 72.332031 C 35.082031 72.441406 34.953125 72.492188 34.800781 72.492188 L 14.585938 72.492188 C 14.433594 72.492188 14.304688 72.4375 14.199219 72.332031 C 14.089844 72.226562 14.035156 72.097656 14.035156 71.945312 Z M 14.035156 71.945312 " fill-opacity="1" fill-rule="nonzero"/></g><g clip-path="url(#id7)"><path fill="rgb(26.269531%, 28.239441%, 36.859131%)" d="M 59.71875 66.15625 C 59.074219 65.3125 58.488281 64.429688 57.960938 63.507812 C 57.167969 62.140625 54.972656 58.957031 51.679688 58.953125 C 51.355469 58.953125 46.746094 59.007812 43.664062 66.117188 C 41.414062 71.304688 38.347656 72.515625 38.300781 72.53125 C 38.152344 72.585938 38.039062 72.683594 37.960938 72.820312 C 37.882812 72.957031 37.855469 73.101562 37.882812 73.257812 C 37.910156 73.410156 37.984375 73.539062 38.105469 73.640625 C 38.226562 73.742188 38.367188 73.792969 38.527344 73.792969 L 68.125 73.792969 C 68.289062 73.792969 68.4375 73.738281 68.5625 73.625 C 68.683594 73.515625 68.753906 73.375 68.773438 73.210938 C 68.789062 73.046875 68.75 72.894531 68.652344 72.761719 C 68.554688 72.625 68.421875 72.542969 68.257812 72.507812 C 68.214844 72.496094 63.84375 71.507812 59.71875 66.15625 Z M 44.863281 66.628906 C 45.945312 64.136719 47.199219 62.621094 48.335938 61.695312 C 47.648438 62.558594 47.089844 63.496094 46.660156 64.507812 C 46.46875 64.886719 44.367188 69.199219 45.511719 72.492188 L 40.738281 72.492188 C 41.964844 71.460938 43.550781 69.664062 44.863281 66.628906 Z M 46.921875 72.492188 C 45.535156 69.664062 47.808594 65.121094 47.832031 65.078125 C 47.839844 65.0625 47.847656 65.050781 47.851562 65.039062 C 48.722656 63.011719 49.882812 61.769531 50.875 61.015625 C 51.277344 60.707031 51.734375 60.53125 52.242188 60.492188 C 52.75 60.453125 53.226562 60.554688 53.671875 60.796875 C 55.234375 61.652344 56.339844 63.3125 56.828125 64.15625 C 57.382812 65.128906 58 66.058594 58.679688 66.945312 C 60.890625 69.8125 63.15625 71.507812 64.898438 72.492188 Z M 46.921875 72.492188 " fill-opacity="1" fill-rule="nonzero"/></g><path fill="rgb(26.269531%, 28.239441%, 36.859131%)" d="M 38.394531 48.15625 C 38.21875 48.226562 38.09375 48.351562 38.023438 48.527344 C 36.046875 53.640625 38.960938 57.261719 40.011719 58.347656 C 39.488281 59.582031 39.09375 60.859375 38.832031 62.171875 C 38.765625 62.523438 39.136719 62.898438 39.472656 62.9375 C 39.632812 62.941406 39.773438 62.894531 39.898438 62.792969 C 40.019531 62.691406 40.09375 62.558594 40.117188 62.402344 C 40.511719 60.527344 41.53125 58.128906 41.53125 58.128906 C 42.28125 58.339844 43.046875 58.445312 43.828125 58.457031 C 44.90625 58.46875 45.914062 58.214844 46.855469 57.6875 C 49.332031 56.28125 50 53.46875 50.023438 53.347656 C 50.0625 53.183594 50.039062 53.03125 49.957031 52.886719 C 49.875 52.742188 49.753906 52.640625 49.597656 52.589844 C 49.441406 52.535156 49.289062 52.492188 49.136719 52.449219 C 49.867188 51.703125 50.414062 50.847656 50.78125 49.875 C 51.148438 48.902344 51.300781 47.898438 51.246094 46.859375 C 51.230469 46.703125 51.164062 46.570312 51.050781 46.460938 C 50.9375 46.351562 50.804688 46.289062 50.644531 46.277344 C 50.5 46.269531 50.355469 46.261719 50.21875 46.261719 C 51.996094 43.289062 51.507812 40.074219 51.484375 39.921875 C 51.453125 39.742188 51.367188 39.601562 51.21875 39.496094 C 51.074219 39.394531 50.589844 39.367188 50.230469 39.488281 C 50.621094 37.582031 50.488281 35.710938 49.828125 33.878906 C 49.765625 33.726562 49.660156 33.613281 49.515625 33.542969 C 49.367188 33.46875 49.214844 33.449219 49.058594 33.492188 C 48.875 33.539062 48.691406 33.597656 48.515625 33.667969 C 48.605469 31.792969 48.230469 30.015625 47.386719 28.339844 C 47.289062 28.167969 47.144531 28.058594 46.949219 28.019531 C 46.757812 27.976562 46.578125 28.015625 46.421875 28.136719 C 46.246094 28.265625 46.085938 28.402344 45.9375 28.535156 C 45.359375 26.867188 44.042969 25.453125 42.011719 24.328125 C 41.921875 24.28125 41.828125 24.253906 41.726562 24.25 C 41.621094 24.242188 41.523438 24.261719 41.429688 24.304688 C 41.335938 24.34375 41.257812 24.402344 41.191406 24.480469 C 41.128906 24.558594 41.082031 24.648438 41.058594 24.746094 C 40.726562 26.328125 40.726562 27.910156 41.054688 29.488281 C 40.753906 29.464844 40.457031 29.46875 40.15625 29.503906 C 39.984375 29.527344 39.847656 29.605469 39.738281 29.738281 C 39.628906 29.871094 39.578125 30.023438 39.589844 30.191406 C 39.730469 32.15625 40.25 33.554688 40.824219 34.523438 C 40.621094 34.546875 40.453125 34.636719 40.324219 34.792969 C 40.214844 34.945312 40.175781 35.113281 40.210938 35.300781 C 40.46875 36.539062 40.863281 37.730469 41.40625 38.878906 C 41.191406 38.875 40.992188 38.925781 40.808594 39.03125 C 40.664062 39.160156 40.59375 39.320312 40.59375 39.515625 C 40.628906 41.023438 40.878906 42.496094 41.347656 43.933594 C 41.136719 43.832031 40.917969 43.75 40.691406 43.679688 C 40.515625 43.632812 40.347656 43.65625 40.191406 43.746094 C 40.03125 43.839844 39.929688 43.972656 39.886719 44.152344 C 39.539062 45.621094 39.449219 47.105469 39.617188 48.605469 C 39.394531 48.449219 39.164062 48.304688 38.921875 48.179688 C 38.75 48.09375 38.574219 48.085938 38.394531 48.15625 Z M 46.199219 56.566406 C 45.078125 57.199219 43.695312 57.320312 42.085938 56.933594 C 42.085938 56.933594 42.410156 56.246094 42.464844 56.140625 C 42.964844 55.234375 44.761719 52.675781 48.5625 53.640625 C 48.265625 54.417969 47.570312 55.792969 46.199219 56.566406 Z M 47.511719 52.144531 C 46.378906 52.039062 45.296875 52.226562 44.269531 52.714844 C 44.570312 52.082031 44.84375 51.4375 45.089844 50.785156 C 45.164062 50.609375 46.5 47.628906 49.949219 47.558594 C 49.90625 48.464844 49.667969 49.320312 49.242188 50.121094 C 48.816406 50.921875 48.238281 51.597656 47.511719 52.144531 Z M 48.5 46.4375 C 47.601562 46.652344 46.789062 47.042969 46.058594 47.605469 C 46.230469 46.867188 46.371094 46.121094 46.476562 45.367188 C 46.496094 45.316406 46.855469 41.816406 50.246094 40.828125 C 50.285156 42 50.125 44.429688 48.503906 46.4375 Z M 48.71875 40.03125 C 47.9375 40.421875 47.269531 40.957031 46.714844 41.632812 C 46.710938 41.097656 46.636719 39.863281 46.628906 39.785156 C 46.628906 39.785156 46.5 38.496094 46.476562 38.332031 C 46.476562 38.332031 46.476562 38.332031 46.480469 38.328125 C 46.6875 37.121094 47.261719 35.617188 48.800781 34.949219 C 49.066406 35.917969 49.4375 37.953125 48.71875 40.03125 Z M 46.582031 29.726562 C 47.175781 31.261719 47.355469 32.847656 47.113281 34.476562 C 46.691406 34.832031 46.339844 35.242188 46.054688 35.714844 C 45.824219 34.558594 45.285156 32.640625 45.285156 32.640625 C 45.28125 32.570312 45.257812 31.085938 46.582031 29.726562 Z M 42.1875 25.960938 C 43.746094 27.011719 44.65625 28.28125 44.902344 29.746094 C 44.648438 30.136719 44.441406 30.550781 44.285156 30.988281 C 43.78125 30.460938 43.179688 30.066406 42.492188 29.8125 C 42.039062 28.375 42.085938 26.882812 42.1875 25.960938 Z M 44.035156 32.929688 C 44.035156 32.929688 44.492188 34.617188 44.691406 35.554688 C 44.03125 35.070312 43.296875 34.757812 42.488281 34.617188 C 41.902344 33.933594 41.21875 32.746094 40.964844 30.792969 C 41.636719 30.832031 42.25 31.042969 42.804688 31.429688 C 43.359375 31.8125 43.769531 32.3125 44.035156 32.929688 Z M 41.671875 35.816406 C 42.324219 35.867188 43.285156 36.058594 44.050781 36.710938 C 44.699219 37.261719 45.097656 38.070312 45.253906 39.109375 C 45.289062 39.441406 45.386719 40.792969 45.398438 41.128906 C 44.789062 40.359375 44.03125 39.78125 43.125 39.394531 C 42.496094 38.257812 42.011719 37.066406 41.671875 35.816406 Z M 41.933594 40.320312 C 43.171875 40.6875 45.449219 41.828125 45.175781 45.238281 C 45.074219 45.953125 44.9375 46.667969 44.769531 47.375 C 44.414062 46.464844 43.863281 45.695312 43.121094 45.058594 C 42.449219 43.3125 42.050781 41.722656 41.933594 40.320312 Z M 41.003906 45.191406 C 42.109375 45.714844 44.179688 47.144531 43.84375 50.394531 C 43.496094 51.300781 43.097656 52.183594 42.648438 53.042969 C 42.433594 51.867188 41.925781 50.835938 41.125 49.945312 C 40.804688 48.367188 40.761719 46.78125 41.003906 45.191406 Z M 41.105469 55.9375 C 40.925781 56.296875 40.75 56.664062 40.578125 57.042969 C 39.605469 55.894531 37.949219 53.292969 38.992188 49.738281 C 40.125 50.527344 42.238281 52.53125 41.105469 55.9375 Z M 41.105469 55.9375 " fill-opacity="1" fill-rule="nonzero"/></svg>