<?xml version="1.0" encoding="UTF-8"?>
<svg xmlns="http://www.w3.org/2000/svg" xmlns:xlink="http://www.w3.org/1999/xlink" width="375pt" height="374.999991pt" viewBox="0 0 375 374.999991" version="1.2">
<defs>
<clipPath id="clip1">
  <path d="M 95 109 L 284 109 L 284 316.25 L 95 316.25 Z M 95 109 "/>
</clipPath>
<clipPath id="clip2">
  <path d="M 55.378906 63.757812 L 323.128906 63.757812 L 323.128906 198 L 55.378906 198 Z M 55.378906 63.757812 "/>
</clipPath>
</defs>
<g id="surface1">
<g clip-path="url(#clip1)" clip-rule="nonzero">
<path style=" stroke:none;fill-rule:nonzero;fill:rgb(0%,0%,0%);fill-opacity:1;" d="M 283.574219 192.105469 Z M 283.574219 192.105469 L 189.472656 109.167969 L 95.3125 192.136719 L 95.3125 310.695312 C 95.3125 313.757812 97.800781 316.214844 100.878906 316.214844 L 159.722656 316.214844 L 159.722656 264.230469 C 159.722656 261.167969 162.191406 258.695312 165.265625 258.695312 L 213.617188 258.695312 C 216.695312 258.695312 219.164062 261.167969 219.164062 264.230469 L 219.164062 316.214844 L 278.023438 316.214844 C 281.101562 316.214844 283.570312 313.757812 283.570312 310.695312 L 283.570312 192.097656 Z M 95.3125 192.140625 Z M 95.3125 192.140625 "/>
</g>
<g clip-path="url(#clip2)" clip-rule="nonzero">
<path style=" stroke:none;fill-rule:nonzero;fill:rgb(0%,0%,0%);fill-opacity:1;" d="M 188.925781 63.777344 L 55.382812 181.453125 L 69.449219 197.246094 L 189.472656 91.476562 L 309.464844 197.246094 L 323.507812 181.453125 L 189.992188 63.777344 L 189.472656 64.378906 Z M 188.925781 63.777344 "/>
</g>
<path style=" stroke:none;fill-rule:nonzero;fill:rgb(0%,0%,0%);fill-opacity:1;" d="M 95.3125 80.71875 L 129.167969 80.71875 L 128.871094 100.671875 L 95.3125 130.84375 Z M 95.3125 80.71875 "/>
</g>
</svg>
