<?xml version="1.0" encoding="UTF-8"?><svg xmlns="http://www.w3.org/2000/svg" xmlns:xlink="http://www.w3.org/1999/xlink" contentScriptType="text/ecmascript" width="375pt" zoomAndPan="magnify" contentStyleType="text/css" viewBox="0 0 375 374.999991" height="374.999991pt" preserveAspectRatio="xMidYMid meet" version="1.2"><defs><clipPath xml:id="clip1" id="clip1"><path d="M 2 101 L 375 101 L 375 286.707031 L 2 286.707031 Z M 2 101 "/></clipPath></defs><g xml:id="surface1" id="surface1"><path style=" stroke:none;fill-rule:nonzero;fill:rgb(100%,100%,100%);fill-opacity:1;" d="M 6.425781 164.042969 C 6.058594 153.542969 5.464844 143.050781 4.859375 132.5625 C 4.386719 124.328125 5.109375 114.484375 2.460938 106.621094 C 2.3125 106.179688 1.683594 106.199219 1.570312 106.652344 C 0.0117188 112.839844 1.238281 119.890625 1.566406 126.171875 C 2.109375 136.535156 2.894531 146.882812 3.667969 157.230469 C 5.386719 180.265625 6.496094 203.128906 5.246094 226.222656 C 5.183594 227.347656 6.902344 227.453125 6.984375 226.332031 C 8.480469 205.742188 7.148438 184.648438 6.425781 164.042969 Z M 6.425781 164.042969 "/><g clip-rule="nonzero" clip-path="url(#clip1)"><path style=" stroke:none;fill-rule:nonzero;fill:rgb(100%,100%,100%);fill-opacity:1;" d="M 373.011719 218.320312 C 367.171875 199.371094 361.613281 180.355469 355.273438 161.550781 C 349.097656 143.230469 343.03125 122.929688 331.378906 107.191406 C 331.363281 106.949219 331.203125 106.746094 330.949219 106.636719 C 330.597656 106.273438 330.054688 106.226562 329.640625 106.417969 C 325.308594 105.996094 320.910156 107.421875 316.679688 108.324219 C 312.679688 109.179688 308.4375 109.9375 304.421875 111.160156 C 294.566406 112.773438 284.851562 117.171875 275.507812 120.546875 C 265.507812 124.160156 255.484375 127.691406 245.355469 130.929688 C 243.894531 131.394531 242.429688 131.832031 240.964844 132.277344 C 241.460938 127.539062 240.554688 122.234375 240.484375 117.527344 C 240.429688 113.976562 241.625 107.996094 240.070312 104.570312 C 240.109375 104.558594 240.148438 104.550781 240.1875 104.539062 C 240.589844 104.421875 240.453125 103.785156 240.039062 103.824219 C 200.210938 107.402344 160.375 104.160156 120.507812 102.503906 C 100.589844 101.675781 80.65625 101 60.71875 101.242188 C 41.738281 101.476562 21.496094 101.390625 2.949219 105.824219 C 2.484375 105.933594 2.527344 106.679688 3.027344 106.675781 C 23.933594 106.382812 44.734375 103.96875 65.703125 104.070312 C 85.660156 104.167969 105.578125 105.230469 125.503906 106.285156 C 145.550781 107.34375 165.597656 108.417969 185.667969 108.914062 C 203.074219 109.34375 221.824219 109.574219 238.777344 104.921875 C 237.246094 107.945312 237.988281 113.078125 237.972656 116.089844 C 237.941406 121.179688 237.277344 127.875 239.070312 132.855469 C 236.097656 133.742188 233.113281 134.574219 230.121094 135.382812 C 230.484375 133.167969 230.546875 130.902344 230.714844 128.667969 C 230.886719 126.414062 231.613281 123.894531 231.367188 121.617188 C 231.671875 121.425781 231.980469 121.242188 232.265625 121.003906 C 232.585938 120.738281 232.417969 120.15625 232.023438 120.070312 C 228.804688 119.34375 225.574219 119.9375 222.402344 118.730469 C 219.03125 117.449219 217.421875 114.390625 215.214844 111.785156 C 214.765625 111.25 213.972656 111.398438 213.648438 111.898438 C 182.578125 116.179688 151.644531 114.625 120.425781 112.832031 C 104.710938 111.929688 89.003906 110.875 73.289062 110.03125 C 57.671875 109.195312 41.515625 107.667969 25.902344 108.871094 C 25.894531 108.871094 25.886719 108.878906 25.878906 108.878906 C 25.589844 108.703125 25.117188 108.78125 25.046875 109.160156 C 24.398438 112.660156 23.59375 115.882812 21.203125 118.621094 C 18.574219 121.632812 14.738281 122.320312 11.457031 124.308594 C 11.070312 124.542969 11.273438 125.136719 11.671875 125.199219 C 11.964844 125.246094 12.246094 125.25 12.53125 125.269531 C 10.277344 137.777344 10.691406 151.382812 10.964844 164.039062 C 11.101562 170.359375 11.453125 176.628906 12.210938 182.90625 C 13.308594 192.050781 13.601562 199.5 12.007812 208.664062 C 11.890625 209.335938 12.433594 210.046875 13.109375 210.113281 C 21.113281 210.863281 20.53125 217.808594 26.699219 219.972656 C 27.136719 220.128906 27.558594 220.003906 27.894531 219.753906 C 27.933594 219.769531 27.964844 219.792969 28.007812 219.800781 C 36.5 221.433594 45.527344 220.898438 54.128906 220.695312 C 64.664062 220.445312 75.15625 219.574219 85.550781 217.882812 C 85.933594 217.820312 85.835938 217.21875 85.464844 217.21875 C 75.929688 217.199219 66.425781 217.703125 56.894531 217.976562 C 47.492188 218.25 37.917969 217.535156 28.554688 218.347656 C 28.523438 218.0625 28.398438 217.789062 28.136719 217.566406 C 24.203125 214.277344 22.3125 209.316406 17.128906 207.710938 C 16.433594 207.496094 14.453125 207.84375 14.304688 206.636719 C 13.953125 203.789062 14.355469 201.109375 14.480469 198.285156 C 14.683594 193.59375 13.878906 189.394531 13.1875 184.789062 C 10.214844 164.976562 16.253906 144.980469 14.023438 125.292969 C 21.109375 124.90625 26.292969 117.679688 26.210938 110.824219 C 41.824219 112.058594 57.671875 111.691406 73.328125 112.503906 C 89.910156 113.367188 106.472656 114.5 123.046875 115.445312 C 138.660156 116.339844 154.277344 116.976562 169.921875 117.101562 C 184.386719 117.214844 199.589844 116.800781 213.640625 113.03125 C 215.046875 119.222656 223.429688 124.523438 229.65625 122.4375 C 228.929688 124.386719 228.894531 126.746094 228.6875 128.703125 C 228.4375 131.054688 228.273438 133.449219 228.613281 135.789062 C 214.6875 139.511719 200.570312 142.542969 186.480469 145.488281 C 169.253906 149.089844 151.402344 152.253906 133.800781 156.355469 C 134 156.023438 133.957031 155.492188 133.792969 155.105469 C 133.539062 154.492188 133.214844 153.957031 133.066406 153.300781 C 132.828125 152.253906 132.996094 151.058594 133.21875 150.023438 C 133.332031 149.5 132.582031 149.292969 132.296875 149.667969 C 131.292969 150.964844 130.820312 152.351562 130.996094 153.992188 C 131.101562 155.011719 131.757812 156.277344 132.808594 156.589844 C 112.480469 161.367188 92.511719 167.4375 74.289062 176.972656 C 74.132812 177.050781 74.164062 177.277344 74.285156 177.351562 C 73.546875 177.363281 72.769531 178.027344 73.015625 178.886719 C 77.558594 194.851562 84.421875 210.414062 90.792969 225.835938 C 87.859375 225.664062 84.53125 226.035156 82.503906 225.972656 C 73.707031 225.710938 64.898438 225.855469 56.105469 226.054688 C 47.542969 226.253906 38.980469 226.597656 30.417969 226.820312 C 25.160156 226.953125 19.898438 227.066406 14.636719 227.074219 C 11.148438 227.078125 7.714844 226.632812 4.386719 227.773438 C 3.921875 227.929688 3.84375 228.644531 4.316406 228.855469 C 10.917969 231.777344 20.875 230.125 27.980469 229.972656 C 37.429688 229.773438 46.882812 229.363281 56.328125 229.03125 C 65.046875 228.730469 73.75 228.613281 82.472656 228.65625 C 84.960938 228.667969 89.019531 229.585938 92.242188 229.386719 C 92.710938 230.53125 93.183594 231.679688 93.640625 232.820312 C 100.617188 250.246094 106.023438 268.085938 111.808594 285.914062 C 111.917969 286.246094 112.457031 286.058594 112.382812 285.726562 C 108.445312 267.5 101.898438 249.746094 95.808594 232.152344 C 95.4375 231.078125 95.0625 229.992188 94.6875 228.914062 C 94.996094 228.796875 95.289062 228.664062 95.550781 228.492188 C 96.0625 228.160156 96.070312 227.539062 95.597656 227.167969 C 95.113281 226.78125 94.488281 226.5 93.78125 226.296875 C 88.152344 210.054688 82.320312 193.535156 75.269531 177.964844 C 75.070312 177.527344 74.703125 177.355469 74.320312 177.351562 C 74.351562 177.363281 74.386719 177.378906 74.433594 177.363281 C 92.539062 170.691406 110.617188 164.605469 129.367188 159.992188 C 149.183594 155.113281 169.277344 151.398438 189.28125 147.375 C 208.339844 143.546875 227.328125 139.347656 245.953125 133.738281 C 256.3125 130.617188 266.503906 127 276.679688 123.34375 C 285.179688 120.285156 294.300781 117.894531 302.621094 114.238281 C 306.832031 113.679688 311.023438 112.476562 315.152344 111.625 C 319.835938 110.65625 325.179688 110.445312 329.625 108.550781 C 333.417969 117.054688 338.097656 125.164062 341.875 133.699219 C 346.355469 143.824219 350.503906 154.082031 354.070312 164.566406 C 360.101562 182.300781 364.289062 201.308594 372.03125 218.460938 C 352.3125 221.679688 332.941406 228.691406 313.886719 234.53125 C 291.488281 241.398438 269.261719 248.828125 246.851562 255.671875 C 225.472656 262.195312 203.929688 267.75 182.097656 272.535156 C 159.421875 277.511719 136.761719 280.804688 113.816406 284.082031 C 112.421875 284.277344 112.765625 286.519531 114.132812 286.496094 C 133.265625 286.191406 152.679688 281.6875 171.375 277.84375 C 192.988281 273.394531 214.40625 268.324219 235.605469 262.167969 C 258.796875 255.429688 281.707031 247.757812 304.71875 240.453125 C 327.242188 233.300781 349.964844 225.441406 373.191406 220.953125 C 373.476562 221.550781 373.753906 222.152344 374.046875 222.742188 C 374.140625 222.925781 374.402344 222.824219 374.34375 222.628906 C 374.148438 222.011719 373.960938 221.394531 373.769531 220.773438 C 374.988281 220.21875 374.460938 218.222656 373.011719 218.320312 Z M 373.011719 218.320312 "/></g><path style=" stroke:none;fill-rule:nonzero;fill:rgb(100%,100%,100%);fill-opacity:1;" d="M 360.082031 201.015625 C 357.226562 187.332031 352.746094 173.800781 348.140625 160.621094 C 345.785156 153.878906 342.96875 147.316406 340.109375 140.777344 C 337.453125 134.703125 335.058594 128.148438 331.078125 122.800781 C 330.847656 122.488281 330.464844 122.597656 330.265625 122.851562 C 330.195312 122.839844 330.121094 122.832031 330.042969 122.839844 C 325.960938 123.332031 322.339844 124.34375 318.183594 123.671875 C 314.476562 123.078125 311.457031 120.808594 307.988281 119.574219 C 307.988281 119.359375 307.859375 119.148438 307.605469 119.203125 C 290.339844 122.945312 274.105469 131.160156 257.347656 136.636719 C 239.832031 142.359375 222.097656 147.148438 204.0625 150.941406 C 187.359375 154.453125 170.449219 156.867188 153.683594 160.039062 C 136.984375 163.195312 117.609375 166.632812 103.140625 176.039062 C 103.039062 176.105469 102.96875 176.207031 102.929688 176.316406 C 102.707031 176.445312 102.535156 176.660156 102.523438 176.957031 C 102.371094 180.824219 102.203125 184.265625 100.253906 187.707031 C 98.621094 190.589844 95.445312 191.957031 93.738281 194.683594 C 93.5625 194.960938 93.679688 195.34375 93.976562 195.460938 C 93.746094 195.550781 93.554688 195.773438 93.5625 196.085938 C 93.796875 207.558594 98.699219 220.128906 102.5 230.832031 C 104.582031 236.6875 107.128906 242.390625 109.957031 247.917969 C 113.300781 254.453125 115.109375 261.117188 117.144531 268.144531 C 117.328125 268.773438 117.945312 269.035156 118.546875 268.910156 C 125.285156 267.539062 127.324219 273.558594 133.277344 274.648438 C 133.113281 274.714844 132.941406 274.777344 132.777344 274.847656 C 132.03125 275.167969 132.363281 276.460938 133.179688 276.25 C 150.488281 271.769531 167.898438 268.921875 185.535156 266.125 C 203.390625 263.292969 220.527344 258.65625 237.609375 252.746094 C 273.320312 240.40625 307.90625 225.628906 344.765625 216.890625 C 345.769531 216.65625 345.496094 214.980469 344.46875 215.105469 C 328.78125 216.96875 313.398438 223.503906 298.515625 228.507812 C 280.246094 234.648438 262.488281 242.199219 244.273438 248.488281 C 224.851562 255.199219 205.515625 260.851562 185.175781 263.992188 C 168.140625 266.621094 150.328125 267.738281 134.214844 274.269531 C 134.34375 273.949219 134.261719 273.535156 133.882812 273.332031 C 130.199219 271.367188 127.523438 266.542969 123.078125 266.179688 C 121.695312 266.066406 121.371094 266.105469 119.945312 266.238281 C 118.378906 266.382812 117.003906 260.15625 116.671875 259.074219 C 115.167969 254.175781 112.734375 250.050781 110.277344 245.605469 C 105.851562 237.609375 103.378906 228.511719 101.019531 219.738281 C 98.921875 211.941406 97.964844 203.1875 94.730469 195.785156 C 94.667969 195.636719 94.570312 195.542969 94.460938 195.484375 C 97.75 195.394531 100.710938 192.449219 102.390625 189.828125 C 104.894531 185.917969 105.902344 181.214844 104.199219 176.800781 C 112.410156 174.054688 120.261719 170.519531 128.617188 168.101562 C 137.765625 165.453125 147.132812 163.644531 156.496094 161.964844 C 173.308594 158.953125 190.191406 156.339844 206.902344 152.804688 C 241.476562 145.5 274.308594 133.171875 307.085938 120.207031 C 307.101562 120.289062 307.101562 120.371094 307.15625 120.457031 C 311.523438 127.480469 323.941406 129.539062 330.460938 124.515625 C 331.824219 129.753906 334.40625 134.675781 336.585938 139.605469 C 339.5 146.179688 342.289062 152.8125 345.109375 159.425781 C 350.714844 172.550781 355.613281 186.113281 358.382812 200.152344 C 358.363281 200.15625 358.347656 200.152344 358.328125 200.160156 C 352.4375 202.550781 345.675781 210.4375 346.820312 217.230469 C 346.933594 217.90625 347.925781 218.011719 348.238281 217.441406 C 349.550781 215.070312 350.296875 212.457031 351.644531 210.089844 C 353.597656 206.644531 356.617188 204.441406 359.574219 201.957031 C 359.648438 201.894531 359.6875 201.828125 359.742188 201.761719 C 359.988281 201.628906 360.15625 201.371094 360.082031 201.015625 Z M 360.082031 201.015625 "/><path style=" stroke:none;fill-rule:nonzero;fill:rgb(100%,100%,100%);fill-opacity:1;" d="M 114.980469 117.488281 C 96.65625 121.628906 81.472656 144.996094 88.507812 163.324219 C 88.726562 163.886719 89.601562 163.851562 89.601562 163.183594 C 89.625 154.117188 89.925781 146.394531 94.082031 138.078125 C 98.675781 128.878906 106.847656 123.433594 115.464844 118.527344 C 116.066406 118.1875 115.585938 117.351562 114.980469 117.488281 Z M 114.980469 117.488281 "/><path style=" stroke:none;fill-rule:nonzero;fill:rgb(100%,100%,100%);fill-opacity:1;" d="M 153.007812 127.371094 C 150.101562 123.097656 145.523438 119.714844 140.355469 119.003906 C 139.664062 118.90625 139.4375 119.742188 139.976562 120.105469 C 144.230469 122.953125 148.242188 125.382812 151.144531 129.773438 C 154.054688 134.167969 153.679688 139.605469 156.226562 143.945312 C 156.402344 144.246094 156.90625 144.226562 157.046875 143.902344 C 159.246094 138.734375 155.9375 131.679688 153.007812 127.371094 Z M 153.007812 127.371094 "/><path style=" stroke:none;fill-rule:nonzero;fill:rgb(100%,100%,100%);fill-opacity:1;" d="M 115.359375 121.65625 C 102.605469 128.246094 90.222656 145.722656 95.324219 160.800781 C 95.476562 161.253906 96.054688 160.996094 96.121094 160.640625 C 97.398438 153.65625 97.265625 147.253906 100.125 140.507812 C 103.292969 133.019531 109.328125 127.066406 115.976562 122.632812 C 116.605469 122.214844 116.011719 121.320312 115.359375 121.65625 Z M 115.359375 121.65625 "/><path style=" stroke:none;fill-rule:nonzero;fill:rgb(100%,100%,100%);fill-opacity:1;" d="M 138.328125 121.96875 C 137.667969 121.796875 137.15625 122.78125 137.734375 123.191406 C 141.371094 125.789062 144.867188 128.117188 147.421875 131.882812 C 149.8125 135.410156 150.28125 139.441406 151.445312 143.421875 C 151.640625 144.082031 152.503906 143.773438 152.628906 143.25 C 154.683594 134.507812 146.585938 124.082031 138.328125 121.96875 Z M 138.328125 121.96875 "/><path style=" stroke:none;fill-rule:nonzero;fill:rgb(100%,100%,100%);fill-opacity:1;" d="M 228.351562 249.648438 C 205.265625 242.386719 192.320312 223.503906 192.289062 199.6875 C 192.261719 180.164062 200.628906 160.9375 219.734375 153.796875 C 220.144531 153.640625 219.980469 152.976562 219.542969 153.050781 C 197.011719 156.703125 189.070312 182.917969 190.28125 202.726562 C 191.617188 224.660156 206.109375 245.464844 228.238281 250.097656 C 228.53125 250.160156 228.632812 249.738281 228.351562 249.648438 Z M 228.351562 249.648438 "/><path style=" stroke:none;fill-rule:nonzero;fill:rgb(100%,100%,100%);fill-opacity:1;" d="M 230.371094 152.785156 C 229.664062 152.769531 229.398438 153.875 230.136719 154.054688 C 244.484375 157.515625 255.152344 167.074219 262.320312 179.695312 C 272.445312 197.527344 271.617188 217.289062 260.253906 233.730469 C 260.027344 234.058594 260.429688 234.585938 260.761719 234.28125 C 286.503906 210.757812 265.296875 153.550781 230.371094 152.785156 Z M 230.371094 152.785156 "/><path style=" stroke:none;fill-rule:nonzero;fill:rgb(100%,100%,100%);fill-opacity:1;" d="M 233.550781 239.742188 C 224.996094 236.023438 217.480469 232.738281 210.710938 226.109375 C 205.226562 220.738281 201.511719 213.730469 199.402344 206.402344 C 194.132812 188.097656 201.761719 171.1875 216.34375 159.996094 C 216.816406 159.628906 216.3125 158.84375 215.785156 159.117188 C 180.027344 177.558594 196.597656 234.941406 233.378906 240.535156 C 233.859375 240.609375 233.957031 239.917969 233.550781 239.742188 Z M 233.550781 239.742188 "/><path style=" stroke:none;fill-rule:nonzero;fill:rgb(100%,100%,100%);fill-opacity:1;" d="M 261.964844 186.914062 C 255.949219 173.207031 242.140625 160.816406 226.800781 159.707031 C 226.363281 159.675781 226.164062 160.335938 226.613281 160.476562 C 241.726562 165.222656 253.785156 174.644531 260.320312 189.398438 C 267.542969 205.703125 262.675781 223.292969 250.605469 235.789062 C 250.328125 236.078125 250.71875 236.523438 251.027344 236.257812 C 265.789062 223.480469 269.851562 204.894531 261.964844 186.914062 Z M 261.964844 186.914062 "/><path style=" stroke:none;fill-rule:nonzero;fill:rgb(100%,100%,100%);fill-opacity:1;" d="M 329.617188 177.167969 C 321.328125 179.035156 312.160156 179.902344 305.816406 173.144531 C 297.171875 163.941406 305.546875 152.234375 314.449219 147.566406 C 314.828125 147.371094 314.523438 146.824219 314.144531 146.992188 C 304.835938 151.203125 297.207031 160.328125 301.796875 170.882812 C 306.496094 181.699219 320.546875 182.570312 329.785156 177.898438 C 330.136719 177.722656 330.070312 177.066406 329.617188 177.167969 Z M 329.617188 177.167969 "/><path style=" stroke:none;fill-rule:nonzero;fill:rgb(100%,100%,100%);fill-opacity:1;" d="M 337.738281 157.75 C 337.4375 157.257812 336.605469 157.738281 336.871094 158.246094 C 337.535156 159.519531 337.910156 160.734375 338.066406 162.167969 C 338.210938 163.53125 337.730469 164.867188 337.488281 166.191406 C 337.414062 166.582031 337.871094 166.734375 338.125 166.5 C 340.625 164.1875 339.238281 160.214844 337.738281 157.75 Z M 337.738281 157.75 "/><path style=" stroke:none;fill-rule:nonzero;fill:rgb(100%,100%,100%);fill-opacity:1;" d="M 327.699219 149.894531 C 327.230469 149.761719 326.96875 150.40625 327.289062 150.707031 C 330.203125 153.460938 333.21875 155.703125 334.546875 159.675781 C 335.625 162.898438 334.621094 165.988281 334.226562 169.199219 C 334.164062 169.691406 334.78125 170.226562 335.179688 169.734375 C 340.761719 162.839844 335.601562 152.101562 327.699219 149.894531 Z M 327.699219 149.894531 "/><path style=" stroke:none;fill-rule:nonzero;fill:rgb(100%,100%,100%);fill-opacity:1;" d="M 162.566406 230.511719 C 150.261719 235.832031 136.433594 236.492188 129.074219 223.199219 C 125.832031 217.339844 126.011719 210.179688 129.195312 204.351562 C 132.351562 198.566406 138.675781 195.710938 144.484375 193.382812 C 144.957031 193.195312 144.863281 192.375 144.304688 192.460938 C 128.636719 194.925781 119.71875 209.972656 126.738281 224.453125 C 133.585938 238.589844 151.421875 239.78125 163.054688 231.214844 C 163.46875 230.90625 162.988281 230.328125 162.566406 230.511719 Z M 162.566406 230.511719 "/><path style=" stroke:none;fill-rule:nonzero;fill:rgb(100%,100%,100%);fill-opacity:1;" d="M 162.824219 195.386719 C 162.695312 195.328125 162.574219 195.488281 162.679688 195.589844 C 169.042969 201.808594 170.0625 208.289062 168.371094 216.894531 C 168.261719 217.472656 169.105469 217.933594 169.386719 217.328125 C 173.039062 209.449219 171.167969 199.308594 162.824219 195.386719 Z M 162.824219 195.386719 "/><path style=" stroke:none;fill-rule:nonzero;fill:rgb(100%,100%,100%);fill-opacity:1;" d="M 148.183594 225.238281 C 142.722656 222.207031 135.726562 219.078125 135.230469 212.003906 C 134.785156 205.679688 141.75 200.488281 146.191406 197.441406 C 146.671875 197.113281 146.167969 196.265625 145.664062 196.566406 C 139.316406 200.355469 132.207031 206.019531 133.390625 214.253906 C 134.34375 220.878906 142.152344 224.910156 147.804688 226.339844 C 148.472656 226.511719 148.746094 225.550781 148.183594 225.238281 Z M 148.183594 225.238281 "/><path style=" stroke:none;fill-rule:nonzero;fill:rgb(100%,100%,100%);fill-opacity:1;" d="M 192.96875 245.097656 C 182.828125 244.773438 172.492188 245.945312 162.460938 247.34375 C 153.589844 248.585938 143.84375 250.222656 135.871094 254.519531 C 135.300781 254.824219 135.683594 255.683594 136.289062 255.542969 C 145.144531 253.480469 153.726562 251.078125 162.789062 249.894531 C 172.867188 248.578125 183.164062 248.367188 193.148438 246.417969 C 193.917969 246.269531 193.699219 245.121094 192.96875 245.097656 Z M 192.96875 245.097656 "/><path style=" stroke:none;fill-rule:nonzero;fill:rgb(100%,100%,100%);fill-opacity:1;" d="M 178.175781 256.03125 C 165.757812 255.328125 152.078125 257.566406 140.527344 262.222656 C 139.964844 262.449219 140.273438 263.3125 140.851562 263.214844 C 153.316406 261.050781 165.6875 258.953125 178.207031 257.050781 C 178.777344 256.964844 178.765625 256.0625 178.175781 256.03125 Z M 178.175781 256.03125 "/><path style=" stroke:none;fill-rule:nonzero;fill:rgb(100%,100%,100%);fill-opacity:1;" d="M 337.335938 188.160156 C 321.648438 188.804688 305.007812 193.636719 290.472656 199.445312 C 289.585938 199.800781 290.148438 201.035156 291.027344 200.785156 C 306.464844 196.40625 321.90625 193.109375 337.511719 189.476562 C 338.25 189.308594 338.09375 188.128906 337.335938 188.160156 Z M 337.335938 188.160156 "/><path style=" stroke:none;fill-rule:nonzero;fill:rgb(100%,100%,100%);fill-opacity:1;" d="M 328.542969 197.964844 C 317.988281 199.28125 306.734375 202.804688 297.085938 207.230469 C 296.386719 207.550781 296.851562 208.625 297.566406 208.453125 C 307.9375 205.964844 318.941406 203.027344 328.878906 199.148438 C 329.542969 198.886719 329.226562 197.878906 328.542969 197.964844 Z M 328.542969 197.964844 "/><path style=" stroke:none;fill-rule:nonzero;fill:rgb(100%,100%,100%);fill-opacity:1;" d="M 59.472656 142.238281 C 45.535156 136.839844 30.609375 147.101562 29.695312 161.582031 C 28.695312 177.546875 45.386719 184.175781 58.523438 179.550781 C 59.089844 179.351562 58.808594 178.542969 58.261719 178.585938 C 50.875 179.121094 42.773438 179.347656 37 173.996094 C 32.96875 170.261719 31.8125 164.429688 32.507812 159.179688 C 33.324219 152.992188 37.414062 147.867188 42.824219 145.039062 C 48.105469 142.277344 53.660156 143.015625 59.347656 143.105469 C 59.878906 143.113281 59.917969 142.410156 59.472656 142.238281 Z M 59.472656 142.238281 "/><path style=" stroke:none;fill-rule:nonzero;fill:rgb(100%,100%,100%);fill-opacity:1;" d="M 66.757812 146.972656 C 66.417969 146.753906 65.898438 147.164062 66.210938 147.511719 C 69.132812 150.769531 71.457031 154.382812 71.636719 158.851562 C 71.789062 162.503906 69.84375 165.734375 68.398438 168.949219 C 68.042969 169.738281 68.984375 170.554688 69.644531 169.886719 C 76.628906 162.835938 74.796875 152.179688 66.757812 146.972656 Z M 66.757812 146.972656 "/><path style=" stroke:none;fill-rule:nonzero;fill:rgb(100%,100%,100%);fill-opacity:1;" d="M 62.441406 170.328125 C 54.46875 170.75 45.660156 172.621094 39.871094 165.464844 C 32.996094 156.964844 45.15625 149.296875 51.785156 147.03125 C 52.085938 146.925781 51.949219 146.40625 51.636719 146.484375 C 42.851562 148.660156 31.511719 155.757812 37.476562 166.207031 C 42.09375 174.300781 55.175781 175.535156 62.683594 171.359375 C 63.132812 171.109375 63.007812 170.296875 62.441406 170.328125 Z M 62.441406 170.328125 "/><path style=" stroke:none;fill-rule:nonzero;fill:rgb(100%,100%,100%);fill-opacity:1;" d="M 203.074219 137.058594 C 195.152344 131.359375 185.101562 135.933594 179.148438 142.292969 C 178.652344 142.824219 179.527344 143.605469 180.058594 143.152344 C 187.144531 137.109375 193.851562 135.65625 202.605469 138.136719 C 203.195312 138.304688 203.546875 137.394531 203.074219 137.058594 Z M 203.074219 137.058594 "/><path style=" stroke:none;fill-rule:nonzero;fill:rgb(100%,100%,100%);fill-opacity:1;" d="M 71.242188 193.382812 C 59.46875 190.9375 44.789062 193.226562 33.214844 195.738281 C 32.871094 195.816406 32.921875 196.289062 33.277344 196.285156 C 45.628906 196.09375 59.101562 197.203125 71.320312 194.515625 C 71.917969 194.386719 71.777344 193.492188 71.242188 193.382812 Z M 71.242188 193.382812 "/><path style=" stroke:none;fill-rule:nonzero;fill:rgb(100%,100%,100%);fill-opacity:1;" d="M 68.171875 202.617188 C 58.96875 201.53125 48.988281 202.191406 39.773438 203.175781 C 39.121094 203.242188 39.3125 204.191406 39.886719 204.253906 C 48.972656 205.226562 59.289062 205.734375 68.25 203.75 C 68.820312 203.621094 68.738281 202.683594 68.171875 202.617188 Z M 68.171875 202.617188 "/><path style=" stroke:none;fill-rule:nonzero;fill:rgb(100%,100%,100%);fill-opacity:1;" d="M 241.824219 179.648438 C 241.640625 179.46875 241.433594 179.417969 241.246094 179.445312 C 241.296875 173.828125 237.285156 169.183594 231.894531 167.953125 C 225.792969 166.5625 219.726562 170.28125 215.433594 174.21875 C 214.832031 174.773438 215.722656 175.691406 216.367188 175.257812 C 220.941406 172.1875 226.40625 169.359375 232.054688 170.703125 C 236.59375 171.78125 237.972656 176.402344 240.050781 179.953125 C 240.199219 180.207031 240.5 180.324219 240.765625 180.292969 C 240.765625 180.300781 240.765625 180.308594 240.765625 180.3125 C 241.25 181.839844 241.550781 183.285156 241.300781 184.886719 C 241.140625 185.921875 240.707031 186.894531 240.65625 187.945312 C 240.632812 188.433594 241.292969 188.816406 241.695312 188.507812 C 244.191406 186.59375 243.925781 181.738281 241.824219 179.648438 Z M 241.824219 179.648438 "/><path style=" stroke:none;fill-rule:nonzero;fill:rgb(100%,100%,100%);fill-opacity:1;" d="M 213.921875 191.703125 C 213.199219 189.796875 212.246094 188.011719 211.851562 185.992188 C 211.382812 183.570312 212.515625 181.636719 213.007812 179.378906 C 213.050781 179.191406 212.839844 179.011719 212.660156 179.085938 C 207.515625 181.296875 209.507812 189.640625 213.152344 192.230469 C 213.523438 192.496094 214.105469 192.191406 213.921875 191.703125 Z M 213.921875 191.703125 "/><path style=" stroke:none;fill-rule:nonzero;fill:rgb(100%,100%,100%);fill-opacity:1;" d="M 240.417969 204.792969 C 237.671875 204.140625 234.746094 204.476562 231.9375 204.121094 C 228.378906 203.667969 225.171875 202.105469 221.949219 200.648438 C 221.328125 200.367188 220.828125 201.144531 221.296875 201.617188 C 225.714844 206.089844 234.757812 209.28125 240.644531 206.054688 C 241.191406 205.753906 240.964844 204.925781 240.417969 204.792969 Z M 240.417969 204.792969 "/><path style=" stroke:none;fill-rule:nonzero;fill:rgb(100%,100%,100%);fill-opacity:1;" d="M 231.964844 214.308594 C 230.425781 213.597656 228.84375 213.6875 227.15625 213.628906 C 225.375 213.570312 223.601562 213.445312 221.832031 213.289062 C 223.859375 212.625 225.976562 212.140625 228.023438 212.289062 C 228.960938 212.351562 229.148438 210.972656 228.210938 210.832031 C 224.746094 210.320312 221.429688 209.078125 217.992188 208.425781 C 216.785156 208.195312 215.5625 208.078125 214.339844 207.988281 C 212.203125 207.832031 214.882812 203.800781 215.652344 204.40625 C 216.144531 204.792969 216.734375 204.101562 216.28125 203.675781 C 213.574219 201.097656 211.894531 206.992188 212.441406 208.964844 C 212.5 209.183594 212.773438 209.394531 212.996094 209.40625 C 217.050781 209.632812 220.875 210.898438 224.796875 211.730469 C 222.648438 212.230469 220.4375 212.578125 218.3125 212.960938 C 217.5625 213.097656 217.519531 214.199219 218.230469 214.429688 C 222.027344 215.675781 227.921875 217.082031 231.859375 215.996094 C 232.746094 215.753906 232.75 214.675781 231.964844 214.308594 Z M 231.964844 214.308594 "/><path style=" stroke:none;fill-rule:nonzero;fill:rgb(100%,100%,100%);fill-opacity:1;" d="M 254.917969 219.183594 C 255.074219 218.703125 255.023438 218.128906 254.574219 217.804688 C 252.597656 216.378906 249.957031 216.664062 247.464844 216.808594 C 249.296875 214.84375 250.832031 212.671875 251.886719 210.109375 C 252.152344 209.460938 251.546875 208.671875 250.84375 208.816406 C 248.617188 209.269531 246.4375 211.273438 244.199219 211.359375 C 243.480469 211.386719 243.484375 212.429688 244.199219 212.476562 C 245.902344 212.582031 247.386719 211.78125 248.949219 211.222656 C 247.492188 213.394531 245.800781 215.320312 243.785156 217.085938 C 242.988281 217.789062 243.414062 219.089844 244.464844 219.199219 C 246.714844 219.433594 250.03125 218.394531 252.277344 219.210938 C 251.457031 220.445312 249.949219 221.75 248.984375 222.421875 C 248.390625 222.835938 248.289062 223.773438 248.871094 224.25 C 249.328125 224.621094 249.816406 224.902344 250.289062 225.210938 C 248.800781 226.148438 246.785156 225.910156 245.089844 226.695312 C 243.949219 227.226562 244.699219 229.160156 245.894531 228.753906 C 248.625 227.820312 251.023438 228.457031 252.90625 225.933594 C 253.308594 225.398438 253.28125 224.800781 252.824219 224.3125 C 252.457031 223.921875 252.078125 223.648438 251.6875 223.398438 C 253.164062 222.167969 254.578125 220.226562 254.917969 219.183594 Z M 254.917969 219.183594 "/><path style=" stroke:none;fill-rule:nonzero;fill:rgb(100%,100%,100%);fill-opacity:1;" d="M 242.722656 191.753906 C 241.957031 190.75 241.164062 189.78125 240.378906 188.796875 C 239.101562 187.1875 238.449219 185.226562 237.183594 183.644531 C 236.785156 183.148438 236.113281 183.453125 236.097656 184.046875 C 236.019531 187.425781 238.875 191.316406 241.703125 192.964844 C 242.417969 193.378906 243.203125 192.386719 242.722656 191.753906 Z M 242.722656 191.753906 "/><path style=" stroke:none;fill-rule:nonzero;fill:rgb(100%,100%,100%);fill-opacity:1;" d="M 141.207031 145.535156 C 136.679688 135.445312 122.761719 134.894531 115.96875 142.851562 C 115.664062 143.203125 116.039062 143.859375 116.484375 143.554688 C 119.800781 141.300781 122.871094 139.410156 126.910156 138.921875 C 132.628906 138.230469 136.855469 142.203125 140.691406 145.886719 C 140.949219 146.132812 141.355469 145.867188 141.207031 145.535156 Z M 141.207031 145.535156 "/><path style=" stroke:none;fill-rule:nonzero;fill:rgb(100%,100%,100%);fill-opacity:1;" d="M 140.589844 146.210938 C 140.421875 145.84375 139.777344 145.9375 139.792969 146.367188 C 139.839844 147.738281 139.644531 149.160156 139.832031 150.511719 C 140.007812 151.773438 142.03125 151.523438 142.015625 150.277344 C 142 148.855469 141.167969 147.472656 140.589844 146.210938 Z M 140.589844 146.210938 "/><path style=" stroke:none;fill-rule:nonzero;fill:rgb(100%,100%,100%);fill-opacity:1;" d="M 113.878906 148.003906 C 112.960938 149.296875 112.546875 151.195312 112.867188 152.859375 C 112.691406 152.605469 112.359375 152.449219 112.058594 152.621094 C 111.140625 153.136719 110.324219 153.839844 110.171875 154.957031 C 109.980469 156.394531 110.890625 157.355469 112.179688 157.8125 C 112.507812 157.925781 112.824219 157.628906 112.640625 157.300781 C 112.320312 156.726562 111.875 155.988281 111.859375 155.316406 C 111.847656 154.679688 112.496094 154.019531 112.867188 153.558594 C 112.941406 153.46875 112.96875 153.371094 112.976562 153.273438 C 113.195312 154.058594 113.566406 154.777344 114.167969 155.320312 C 114.410156 155.542969 114.878906 155.453125 114.933594 155.089844 C 115.121094 153.832031 115.066406 152.636719 115.105469 151.375 C 115.136719 150.414062 115.292969 149.464844 115.289062 148.5 C 115.289062 147.828125 114.292969 147.421875 113.878906 148.003906 Z M 113.878906 148.003906 "/><path style=" stroke:none;fill-rule:nonzero;fill:rgb(100%,100%,100%);fill-opacity:1;" d="M 146.648438 143.382812 C 144.609375 138.976562 139.355469 136.636719 135.308594 134.394531 C 131.390625 132.21875 126.144531 132.703125 121.953125 133.484375 C 121.476562 133.574219 121.535156 134.269531 122.023438 134.238281 C 125.898438 133.984375 129.53125 134.53125 133.269531 135.539062 C 135.078125 136.027344 136.8125 136.496094 138.542969 137.234375 C 141.414062 138.460938 143.503906 141.917969 146.046875 143.835938 C 146.34375 144.058594 146.816406 143.746094 146.648438 143.382812 Z M 146.648438 143.382812 "/><path style=" stroke:none;fill-rule:nonzero;fill:rgb(100%,100%,100%);fill-opacity:1;" d="M 300.242188 138.207031 C 289 150.964844 278.757812 164.976562 271.609375 180.472656 C 271.324219 181.09375 272.15625 181.679688 272.53125 181.058594 C 281.324219 166.414062 290.207031 152.054688 301.070312 138.820312 C 301.496094 138.300781 300.675781 137.71875 300.242188 138.207031 Z M 300.242188 138.207031 "/><path style=" stroke:none;fill-rule:nonzero;fill:rgb(100%,100%,100%);fill-opacity:1;" d="M 296.652344 154.683594 C 288.707031 164.386719 281.683594 175.128906 276.742188 186.695312 C 276.550781 187.140625 277.160156 187.40625 277.402344 187.011719 C 284.042969 176.34375 290.082031 165.457031 297.511719 155.289062 C 297.917969 154.734375 297.078125 154.164062 296.652344 154.683594 Z M 296.652344 154.683594 "/><path style=" stroke:none;fill-rule:nonzero;fill:rgb(100%,100%,100%);fill-opacity:1;" d="M 293.695312 168.945312 C 288.367188 175.871094 282.4375 183.355469 279.570312 191.714844 C 279.4375 192.113281 279.972656 192.480469 280.234375 192.105469 C 285.34375 184.820312 289.558594 176.929688 294.75 169.671875 C 295.234375 168.992188 294.195312 168.292969 293.695312 168.945312 Z M 293.695312 168.945312 "/><path style=" stroke:none;fill-rule:nonzero;fill:rgb(100%,100%,100%);fill-opacity:1;" d="M 295.378906 176.875 C 292.515625 181.445312 288.875 186.492188 287.640625 191.8125 C 287.519531 192.320312 288.296875 192.574219 288.5625 192.171875 C 291.632812 187.582031 293.800781 182.261719 296.640625 177.492188 C 297.109375 176.707031 295.855469 176.121094 295.378906 176.875 Z M 295.378906 176.875 "/><path style=" stroke:none;fill-rule:nonzero;fill:rgb(100%,100%,100%);fill-opacity:1;" d="M 189.203125 161.113281 C 181.816406 166.929688 174.964844 175.425781 170.609375 183.753906 C 170.363281 184.21875 170.925781 184.628906 171.277344 184.222656 C 177.664062 176.949219 183.582031 169.148438 189.84375 161.75 C 190.226562 161.296875 189.65625 160.753906 189.203125 161.113281 Z M 189.203125 161.113281 "/><path style=" stroke:none;fill-rule:nonzero;fill:rgb(100%,100%,100%);fill-opacity:1;" d="M 188.878906 168.273438 C 182.574219 175.355469 176.511719 183.484375 171.652344 191.632812 C 171.410156 192.035156 171.972656 192.5625 172.304688 192.183594 C 178.589844 185.03125 184.378906 176.828125 189.53125 168.820312 C 189.789062 168.421875 189.207031 167.902344 188.878906 168.273438 Z M 188.878906 168.273438 "/><path style=" stroke:none;fill-rule:nonzero;fill:rgb(100%,100%,100%);fill-opacity:1;" d="M 185.871094 180.640625 C 181.867188 184.921875 177.738281 189.542969 175.285156 194.925781 C 175.125 195.265625 175.570312 195.632812 175.839844 195.328125 C 179.695312 190.945312 182.890625 186.011719 186.746094 181.605469 C 187.285156 180.988281 186.453125 180.019531 185.871094 180.640625 Z M 185.871094 180.640625 "/><path style=" stroke:none;fill-rule:nonzero;fill:rgb(100%,100%,100%);fill-opacity:1;" d="M 100.421875 118.433594 C 87.683594 125.519531 75.484375 133.683594 63.40625 141.832031 C 50.875 150.292969 36.988281 159.054688 26.566406 170.113281 C 26.277344 170.417969 26.710938 170.878906 27.050781 170.65625 C 39.214844 162.703125 50.375 153.007812 62.375 144.742188 C 75.054688 136.007812 88.347656 128.113281 100.777344 119.027344 C 101.136719 118.765625 100.816406 118.214844 100.421875 118.433594 Z M 100.421875 118.433594 "/><path style=" stroke:none;fill-rule:nonzero;fill:rgb(100%,100%,100%);fill-opacity:1;" d="M 89.238281 133.933594 C 69.277344 145.75 48.414062 158.941406 33.238281 176.796875 C 32.921875 177.167969 33.453125 177.585938 33.792969 177.277344 C 51.449219 161.316406 69.425781 147.230469 89.722656 134.722656 C 90.230469 134.410156 89.75 133.632812 89.238281 133.933594 Z M 89.238281 133.933594 "/><path style=" stroke:none;fill-rule:nonzero;fill:rgb(100%,100%,100%);fill-opacity:1;" d="M 78.089844 149.8125 C 66.214844 156.792969 54.335938 164.925781 44.792969 174.945312 C 44.511719 175.242188 44.890625 175.652344 45.21875 175.414062 C 56.375 167.113281 66.785156 158.152344 78.636719 150.78125 C 79.242188 150.402344 78.710938 149.445312 78.089844 149.8125 Z M 78.089844 149.8125 "/><path style=" stroke:none;fill-rule:nonzero;fill:rgb(100%,100%,100%);fill-opacity:1;" d="M 70.613281 163.828125 C 67.171875 166.480469 63.574219 168.925781 60.246094 171.71875 C 59.675781 172.195312 60.269531 173.148438 60.898438 172.699219 C 64.445312 170.144531 67.972656 167.570312 71.425781 164.882812 C 72.023438 164.417969 71.214844 163.363281 70.613281 163.828125 Z M 70.613281 163.828125 "/><path style=" stroke:none;fill-rule:nonzero;fill:rgb(100%,100%,100%);fill-opacity:1;" d="M 76.085938 183.636719 C 62.441406 191.667969 48.914062 200.261719 35.488281 208.6875 C 35.21875 208.851562 35.472656 209.238281 35.746094 209.09375 C 49.457031 201.839844 64.917969 194.773438 76.542969 184.332031 C 76.890625 184.023438 76.507812 183.390625 76.085938 183.636719 Z M 76.085938 183.636719 "/><path style=" stroke:none;fill-rule:nonzero;fill:rgb(100%,100%,100%);fill-opacity:1;" d="M 78.648438 189.5 C 64.964844 198.777344 51.246094 208.175781 37.917969 217.953125 C 37.523438 218.242188 37.941406 218.832031 38.351562 218.574219 C 52.230469 209.742188 66.339844 200.558594 79 190.015625 C 79.269531 189.792969 78.941406 189.300781 78.648438 189.5 Z M 78.648438 189.5 "/><path style=" stroke:none;fill-rule:nonzero;fill:rgb(100%,100%,100%);fill-opacity:1;" d="M 78.671875 196.433594 C 68.488281 203.3125 58.710938 211.105469 49.027344 218.667969 C 48.601562 219 49.117188 219.585938 49.546875 219.300781 C 59.765625 212.554688 69.820312 204.953125 78.953125 196.792969 C 79.148438 196.617188 78.882812 196.289062 78.671875 196.433594 Z M 78.671875 196.433594 "/><path style=" stroke:none;fill-rule:nonzero;fill:rgb(100%,100%,100%);fill-opacity:1;" d="M 80.3125 202.082031 C 74.003906 206.460938 67.570312 210.910156 61.632812 215.785156 C 61.296875 216.0625 61.625 216.6875 62.035156 216.46875 C 68.8125 212.792969 74.964844 207.65625 80.859375 202.71875 C 81.285156 202.363281 80.746094 201.78125 80.3125 202.082031 Z M 80.3125 202.082031 "/><path style=" stroke:none;fill-rule:nonzero;fill:rgb(100%,100%,100%);fill-opacity:1;" d="M 81.050781 209.933594 C 78.875 211.375 76.617188 212.738281 74.621094 214.425781 C 74.34375 214.65625 74.660156 215.101562 74.972656 214.941406 C 77.285156 213.738281 79.40625 212.183594 81.5625 210.726562 C 82.070312 210.386719 81.558594 209.597656 81.050781 209.933594 Z M 81.050781 209.933594 "/><path style=" stroke:none;fill-rule:nonzero;fill:rgb(100%,100%,100%);fill-opacity:1;" d="M 192.585938 225.519531 C 177.757812 237.582031 164.320312 252.492188 151.316406 266.464844 C 151.171875 266.617188 151.417969 266.828125 151.574219 266.707031 C 166.703125 254.992188 179.300781 239.40625 193.078125 226.148438 C 193.441406 225.796875 192.992188 225.1875 192.585938 225.519531 Z M 192.585938 225.519531 "/><path style=" stroke:none;fill-rule:nonzero;fill:rgb(100%,100%,100%);fill-opacity:1;" d="M 195.488281 230.644531 C 185.476562 240.585938 175.710938 250.867188 166.675781 261.714844 C 166.457031 261.976562 166.890625 262.359375 167.128906 262.113281 C 176.90625 251.957031 186.425781 241.523438 195.9375 231.117188 C 196.214844 230.808594 195.789062 230.34375 195.488281 230.644531 Z M 195.488281 230.644531 "/><path style=" stroke:none;fill-rule:nonzero;fill:rgb(100%,100%,100%);fill-opacity:1;" d="M 195.152344 240.742188 C 189.648438 246.808594 183.960938 252.839844 179.320312 259.609375 C 179.171875 259.828125 179.519531 260.074219 179.6875 259.878906 C 185.117188 253.75 190.28125 247.371094 195.605469 241.144531 C 195.824219 240.882812 195.382812 240.488281 195.152344 240.742188 Z M 195.152344 240.742188 "/><path style=" stroke:none;fill-rule:nonzero;fill:rgb(100%,100%,100%);fill-opacity:1;" d="M 201.054688 243.910156 C 198.953125 246.105469 196.921875 248.359375 194.886719 250.617188 C 193.066406 252.636719 190.902344 254.636719 189.679688 257.09375 C 189.574219 257.3125 189.863281 257.597656 190.074219 257.464844 C 192.136719 256.191406 193.671875 254.152344 195.230469 252.316406 C 197.441406 249.714844 199.632812 247.097656 201.878906 244.527344 C 202.324219 244.015625 201.5 243.445312 201.054688 243.910156 Z M 201.054688 243.910156 "/><path style=" stroke:none;fill-rule:nonzero;fill:rgb(100%,100%,100%);fill-opacity:1;" d="M 205.773438 248.503906 C 204.394531 249.871094 203.066406 251.285156 201.765625 252.722656 C 200.746094 253.847656 199.558594 254.949219 198.996094 256.386719 C 198.894531 256.648438 199.230469 256.898438 199.460938 256.761719 C 200.917969 255.894531 201.9375 254.34375 203.039062 253.078125 C 204.160156 251.789062 205.324219 250.53125 206.515625 249.304688 C 207.003906 248.804688 206.273438 248.007812 205.773438 248.503906 Z M 205.773438 248.503906 "/><path style=" stroke:none;fill-rule:nonzero;fill:rgb(100%,100%,100%);fill-opacity:1;" d="M 209.386719 250.664062 C 208.59375 251.460938 207.722656 252.179688 206.945312 252.992188 C 206.695312 253.25 207.007812 253.714844 207.34375 253.578125 C 208.453125 253.125 209.261719 252.304688 210.09375 251.46875 C 210.582031 250.984375 209.875 250.175781 209.386719 250.664062 Z M 209.386719 250.664062 "/></g></svg>