<?xml version="1.0" encoding="UTF-8"?>
<svg xmlns="http://www.w3.org/2000/svg" xmlns:xlink="http://www.w3.org/1999/xlink" width="375pt" height="374.999991pt" viewBox="0 0 375 374.999991" version="1.2">
<defs>
<clipPath id="clip1">
  <path d="M 62.210938 62.210938 L 312.640625 62.210938 L 312.640625 312.640625 L 62.210938 312.640625 Z M 62.210938 62.210938 "/>
</clipPath>
</defs>
<g id="surface1">
<rect x="0" y="0" width="375" height="374.999991" style="fill:rgb(100%,100%,100%);fill-opacity:1;stroke:none;"/>
<rect x="0" y="0" width="375" height="374.999991" style="fill:rgb(100%,100%,100%);fill-opacity:1;stroke:none;"/>
<rect x="0" y="0" width="375" height="374.999991" style="fill:rgb(100%,100%,100%);fill-opacity:1;stroke:none;"/>
<g clip-path="url(#clip1)" clip-rule="nonzero">
<path style=" stroke:none;fill-rule:nonzero;fill:rgb(0%,0%,0%);fill-opacity:1;" d="M 312.640625 187.425781 C 312.640625 118.378906 256.46875 62.210938 187.425781 62.210938 C 118.378906 62.210938 62.210938 118.378906 62.210938 187.425781 C 62.210938 256.46875 118.378906 312.640625 187.425781 312.640625 C 220.347656 312.640625 250.25 299.773438 272.625 278.925781 L 272.875 278.820312 C 274.023438 278.363281 274.816406 277.464844 275.378906 276.421875 C 298.355469 253.714844 312.640625 222.214844 312.640625 187.425781 Z M 72.644531 187.425781 C 72.644531 124.140625 124.140625 72.644531 187.425781 72.644531 C 250.710938 72.644531 302.207031 124.140625 302.207031 187.425781 C 302.207031 218.675781 289.609375 247.015625 269.285156 267.738281 C 268.660156 267.5 268.0625 267.230469 267.4375 267 L 246.222656 259.621094 C 244.136719 258.902344 231.636719 252.964844 221.484375 248.082031 C 227.746094 239.210938 233.691406 228.371094 237.699219 218.539062 C 238.386719 218.675781 239.035156 218.730469 239.597656 218.730469 C 248.519531 218.730469 255.25 207.511719 255.25 192.640625 C 255.25 180.445312 251.011719 170.9375 244.566406 167.726562 C 241.371094 127.699219 220.210938 103.949219 187.425781 103.949219 C 154.765625 103.949219 133.675781 127.6875 130.484375 167.691406 C 124.035156 170.90625 119.601562 180.570312 119.601562 192.640625 C 119.601562 207.511719 126.332031 218.730469 135.253906 218.730469 C 135.804688 218.730469 136.441406 218.6875 137.121094 218.550781 C 141.285156 229.039062 147.085938 239.660156 153.28125 248.195312 C 143.421875 253.058594 131.351562 258.914062 129.304688 259.632812 L 110.960938 266.007812 C 110.867188 265.976562 110.773438 265.945312 110.6875 265.914062 C 109.164062 265.453125 107.539062 265.695312 106.222656 266.59375 L 105.167969 267.3125 C 85.082031 246.628906 72.644531 218.46875 72.644531 187.425781 Z M 72.644531 187.425781 "/>
</g>
</g>
</svg>
