<svg xmlns="http://www.w3.org/2000/svg" width="24" height="24" overflow="visible"><style>.st0,.st1,.st2,.st3{fill-rule:evenodd;clip-rule:evenodd;fill:#5bb381}.st1,.st2,.st3{fill:#63c3ec}.st2,.st3{fill:#e4b34c}.st3{fill:#ce375c}</style><path class="st0" d="M12.63 8.84c0 1.4 1.13 2.53 2.53 2.53s2.53-1.13 2.53-2.53V2.53c0-1.4-1.13-2.53-2.53-2.53s-2.53 1.13-2.53 2.53v6.31z"/><path class="st1" d="M2.53 6.32a2.524 2.524 0 100 5.05h6.32c1.4 0 2.53-1.13 2.53-2.53s-1.13-2.53-2.53-2.53H2.53z"/><path class="st2" d="M15.16 12.63c-1.4 0-2.53 1.13-2.53 2.53s1.13 2.53 2.53 2.53h6.32c1.4 0 2.53-1.13 2.53-2.53s-1.13-2.53-2.53-2.53h-6.32z"/><path class="st3" d="M8.84 24c-1.4 0-2.53-1.13-2.53-2.53v-6.32c0-1.4 1.13-2.53 2.53-2.53s2.53 1.13 2.53 2.53v6.32c0 1.4-1.13 2.53-2.53 2.53z"/><path class="st1" d="M6.32 2.53a2.524 2.524 0 115.05 0v2.53H8.84a2.537 2.537 0 01-2.52-2.53z"/><path class="st3" d="M0 15.16c0 1.4 1.13 2.53 2.53 2.53s2.53-1.13 2.53-2.53v-2.53H2.53c-1.4 0-2.53 1.13-2.53 2.53z"/><path class="st2" d="M17.68 21.47c0 1.4-1.13 2.53-2.53 2.53s-2.53-1.13-2.53-2.53v-2.53h2.53a2.54 2.54 0 012.53 2.53z"/><path class="st0" d="M24 8.84c0-1.4-1.13-2.53-2.53-2.53s-2.53 1.13-2.53 2.53v2.53h2.53c1.4 0 2.53-1.13 2.53-2.53z"/></svg>