<?xml version="1.0" encoding="UTF-8" standalone="no"?>
<svg width="14px" height="14px" viewBox="0 0 14 14" version="1.1" xmlns="http://www.w3.org/2000/svg" xmlns:xlink="http://www.w3.org/1999/xlink" xmlns:sketch="http://www.bohemiancoding.com/sketch/ns">
    <!-- Generator: Sketch 3.3.3 (12081) - http://www.bohemiancoding.com/sketch -->
    <title>Imported Layers</title>
    <desc>Created with Sketch.</desc>
    <defs></defs>
    <g id="Page-1" stroke="none" stroke-width="1" fill="none" fill-rule="evenodd" sketch:type="MSPage">
        <g id="Imported-Layers" sketch:type="MSLayerGroup">
            <path d="M6.782,0.129 C3.203,0.129 0.3,3.031 0.3,6.611 C0.3,10.191 3.203,13.093 6.782,13.093 C10.363,13.093 13.264,10.191 13.264,6.611 C13.264,3.031 10.363,0.129 6.782,0.129 L6.782,0.129 Z M6.782,11.915 C3.853,11.915 1.478,9.54 1.478,6.611 C1.478,3.682 3.853,1.308 6.782,1.308 C9.712,1.308 12.086,3.682 12.086,6.611 C12.086,9.54 9.712,11.915 6.782,11.915 L6.782,11.915 Z" id="Fill-1" fill="#8491A5" sketch:type="MSShapeGroup"></path>
            <path d="M7.372,6.367 L7.372,3.075 C7.372,2.75 7.108,2.486 6.782,2.486 C6.457,2.486 6.193,2.75 6.193,3.075 L6.193,6.611 C6.193,6.612 6.194,6.614 6.194,6.615 C6.194,6.652 6.197,6.69 6.205,6.726 C6.208,6.745 6.215,6.761 6.22,6.779 C6.226,6.798 6.23,6.818 6.238,6.837 C6.246,6.857 6.258,6.876 6.269,6.895 C6.277,6.909 6.283,6.924 6.292,6.938 C6.314,6.971 6.338,7.001 6.366,7.029 L8.033,8.695 C8.262,8.925 8.636,8.925 8.866,8.695 C9.096,8.465 9.096,8.092 8.866,7.862 L7.372,6.367" id="Fill-2" fill="#57D5C1" sketch:type="MSShapeGroup"></path>
        </g>
    </g>
</svg>